<?xml version="1.0" encoding="utf-8" standalone="no"?>
<!DOCTYPE svg PUBLIC "-//W3C//DTD SVG 1.1//EN"
  "http://www.w3.org/Graphics/SVG/1.1/DTD/svg11.dtd">
<svg xmlns:xlink="http://www.w3.org/1999/xlink" width="864pt" height="432pt" viewBox="0 0 864 432" xmlns="http://www.w3.org/2000/svg" version="1.1">
 <metadata>
  <rdf:RDF xmlns:dc="http://purl.org/dc/elements/1.1/" xmlns:cc="http://creativecommons.org/ns#" xmlns:rdf="http://www.w3.org/1999/02/22-rdf-syntax-ns#">
   <cc:Work>
    <dc:type rdf:resource="http://purl.org/dc/dcmitype/StillImage"/>
    <dc:date>2026-03-15T10:36:50.538205</dc:date>
    <dc:format>image/svg+xml</dc:format>
    <dc:creator>
     <cc:Agent>
      <dc:title>Matplotlib v3.9.0, https://matplotlib.org/</dc:title>
     </cc:Agent>
    </dc:creator>
   </cc:Work>
  </rdf:RDF>
 </metadata>
 <defs>
  <style type="text/css">*{stroke-linejoin: round; stroke-linecap: butt}</style>
 </defs>
 <g id="figure_1">
  <g id="patch_1">
   <path d="M 0 432 
L 864 432 
L 864 0 
L 0 0 
z
" style="fill: #ffffff"/>
  </g>
  <g id="axes_1">
   <g id="patch_2">
    <path d="M 78.06 380.58 
L 851.04 380.58 
L 851.04 30 
L 78.06 30 
z
" style="fill: #ffffff"/>
   </g>
   <g id="patch_3">
    <path d="M 113.195455 380.58 
L 130.873671 380.58 
L 130.873671 375.566718 
L 113.195455 375.566718 
z
" clip-path="url(#p1db6a69c35)" style="fill: #4caf50; opacity: 0.8"/>
   </g>
   <g id="patch_4">
    <path d="M 135.293225 380.58 
L 152.971441 380.58 
L 152.971441 374.956019 
L 135.293225 374.956019 
z
" clip-path="url(#p1db6a69c35)" style="fill: #4caf50; opacity: 0.8"/>
   </g>
   <g id="patch_5">
    <path d="M 157.390995 380.58 
L 175.069211 380.58 
L 175.069211 373.401513 
L 157.390995 373.401513 
z
" clip-path="url(#p1db6a69c35)" style="fill: #4caf50; opacity: 0.8"/>
   </g>
   <g id="patch_6">
    <path d="M 179.488765 380.58 
L 197.166981 380.58 
L 197.166981 373.445927 
L 179.488765 373.445927 
z
" clip-path="url(#p1db6a69c35)" style="fill: #4caf50; opacity: 0.8"/>
   </g>
   <g id="patch_7">
    <path d="M 201.586535 380.58 
L 219.264751 380.58 
L 219.264751 371.863662 
L 201.586535 371.863662 
z
" clip-path="url(#p1db6a69c35)" style="fill: #4caf50; opacity: 0.8"/>
   </g>
   <g id="patch_8">
    <path d="M 223.684305 380.58 
L 241.362521 380.58 
L 241.362521 370.558987 
L 223.684305 370.558987 
z
" clip-path="url(#p1db6a69c35)" style="fill: #4caf50; opacity: 0.8"/>
   </g>
   <g id="patch_9">
    <path d="M 245.782075 380.58 
L 263.460292 380.58 
L 263.460292 369.526351 
L 245.782075 369.526351 
z
" clip-path="url(#p1db6a69c35)" style="fill: #4caf50; opacity: 0.8"/>
   </g>
   <g id="patch_10">
    <path d="M 267.879846 380.58 
L 285.558062 380.58 
L 285.558062 368.438197 
L 267.879846 368.438197 
z
" clip-path="url(#p1db6a69c35)" style="fill: #4caf50; opacity: 0.8"/>
   </g>
   <g id="patch_11">
    <path d="M 289.977616 380.58 
L 307.655832 380.58 
L 307.655832 366.706033 
L 289.977616 366.706033 
z
" clip-path="url(#p1db6a69c35)" style="fill: #4caf50; opacity: 0.8"/>
   </g>
   <g id="patch_12">
    <path d="M 312.075386 380.58 
L 329.753602 380.58 
L 329.753602 364.091131 
L 312.075386 364.091131 
z
" clip-path="url(#p1db6a69c35)" style="fill: #4caf50; opacity: 0.8"/>
   </g>
   <g id="patch_13">
    <path d="M 334.173156 380.58 
L 351.851372 380.58 
L 351.851372 359.927275 
L 334.173156 359.927275 
z
" clip-path="url(#p1db6a69c35)" style="fill: #4caf50; opacity: 0.8"/>
   </g>
   <g id="patch_14">
    <path d="M 356.270926 380.58 
L 373.949142 380.58 
L 373.949142 359.821791 
L 356.270926 359.821791 
z
" clip-path="url(#p1db6a69c35)" style="fill: #4caf50; opacity: 0.8"/>
   </g>
   <g id="patch_15">
    <path d="M 378.368696 380.58 
L 396.046913 380.58 
L 396.046913 355.397 
L 378.368696 355.397 
z
" clip-path="url(#p1db6a69c35)" style="fill: #4caf50; opacity: 0.8"/>
   </g>
   <g id="patch_16">
    <path d="M 400.466467 380.58 
L 418.144683 380.58 
L 418.144683 352.471198 
L 400.466467 352.471198 
z
" clip-path="url(#p1db6a69c35)" style="fill: #4caf50; opacity: 0.8"/>
   </g>
   <g id="patch_17">
    <path d="M 422.564237 380.58 
L 440.242453 380.58 
L 440.242453 347.091496 
L 422.564237 347.091496 
z
" clip-path="url(#p1db6a69c35)" style="fill: #4caf50; opacity: 0.8"/>
   </g>
   <g id="patch_18">
    <path d="M 444.662007 380.58 
L 462.340223 380.58 
L 462.340223 343.188575 
L 444.662007 343.188575 
z
" clip-path="url(#p1db6a69c35)" style="fill: #4caf50; opacity: 0.8"/>
   </g>
   <g id="patch_19">
    <path d="M 466.759777 380.58 
L 484.437993 380.58 
L 484.437993 336.420922 
L 466.759777 336.420922 
z
" clip-path="url(#p1db6a69c35)" style="fill: #4caf50; opacity: 0.8"/>
   </g>
   <g id="patch_20">
    <path d="M 488.857547 380.58 
L 506.535763 380.58 
L 506.535763 328.726116 
L 488.857547 328.726116 
z
" clip-path="url(#p1db6a69c35)" style="fill: #4caf50; opacity: 0.8"/>
   </g>
   <g id="patch_21">
    <path d="M 510.955317 380.58 
L 528.633533 380.58 
L 528.633533 323.074376 
L 510.955317 323.074376 
z
" clip-path="url(#p1db6a69c35)" style="fill: #4caf50; opacity: 0.8"/>
   </g>
   <g id="patch_22">
    <path d="M 533.053087 380.58 
L 550.731304 380.58 
L 550.731304 316.978491 
L 533.053087 316.978491 
z
" clip-path="url(#p1db6a69c35)" style="fill: #4caf50; opacity: 0.8"/>
   </g>
   <g id="patch_23">
    <path d="M 555.150858 380.58 
L 572.829074 380.58 
L 572.829074 305.136485 
L 555.150858 305.136485 
z
" clip-path="url(#p1db6a69c35)" style="fill: #4caf50; opacity: 0.8"/>
   </g>
   <g id="patch_24">
    <path d="M 577.248628 380.58 
L 594.926844 380.58 
L 594.926844 293.533207 
L 577.248628 293.533207 
z
" clip-path="url(#p1db6a69c35)" style="fill: #4caf50; opacity: 0.8"/>
   </g>
   <g id="patch_25">
    <path d="M 599.346398 380.58 
L 617.024614 380.58 
L 617.024614 280.591944 
L 599.346398 280.591944 
z
" clip-path="url(#p1db6a69c35)" style="fill: #4caf50; opacity: 0.8"/>
   </g>
   <g id="patch_26">
    <path d="M 621.444168 380.58 
L 639.122384 380.58 
L 639.122384 267.31202 
L 621.444168 267.31202 
z
" clip-path="url(#p1db6a69c35)" style="fill: #4caf50; opacity: 0.8"/>
   </g>
   <g id="patch_27">
    <path d="M 643.541938 380.58 
L 661.220154 380.58 
L 661.220154 254.87597 
L 643.541938 254.87597 
z
" clip-path="url(#p1db6a69c35)" style="fill: #4caf50; opacity: 0.8"/>
   </g>
   <g id="patch_28">
    <path d="M 665.639708 380.58 
L 683.317925 380.58 
L 683.317925 229.365414 
L 665.639708 229.365414 
z
" clip-path="url(#p1db6a69c35)" style="fill: #4caf50; opacity: 0.8"/>
   </g>
   <g id="patch_29">
    <path d="M 687.737479 380.58 
L 705.415695 380.58 
L 705.415695 208.779311 
L 687.737479 208.779311 
z
" clip-path="url(#p1db6a69c35)" style="fill: #4caf50; opacity: 0.8"/>
   </g>
   <g id="patch_30">
    <path d="M 709.835249 380.58 
L 727.513465 380.58 
L 727.513465 186.716427 
L 709.835249 186.716427 
z
" clip-path="url(#p1db6a69c35)" style="fill: #4caf50; opacity: 0.8"/>
   </g>
   <g id="patch_31">
    <path d="M 731.933019 380.58 
L 749.611235 380.58 
L 749.611235 157.641611 
L 731.933019 157.641611 
z
" clip-path="url(#p1db6a69c35)" style="fill: #4caf50; opacity: 0.8"/>
   </g>
   <g id="patch_32">
    <path d="M 754.030789 380.58 
L 771.709005 380.58 
L 771.709005 127.967198 
L 754.030789 127.967198 
z
" clip-path="url(#p1db6a69c35)" style="fill: #4caf50; opacity: 0.8"/>
   </g>
   <g id="patch_33">
    <path d="M 776.128559 380.58 
L 793.806775 380.58 
L 793.806775 89.148959 
L 776.128559 89.148959 
z
" clip-path="url(#p1db6a69c35)" style="fill: #4caf50; opacity: 0.8"/>
   </g>
   <g id="patch_34">
    <path d="M 798.226329 380.58 
L 815.904545 380.58 
L 815.904545 46.694286 
L 798.226329 46.694286 
z
" clip-path="url(#p1db6a69c35)" style="fill: #4caf50; opacity: 0.8"/>
   </g>
   <g id="matplotlib.axis_1">
    <g id="xtick_1">
     <g id="line2d_1">
      <path d="M 122.034563 380.58 
L 122.034563 30 
" clip-path="url(#p1db6a69c35)" style="fill: none; stroke: #b0b0b0; stroke-opacity: 0.3; stroke-width: 0.5; stroke-linecap: square"/>
     </g>
     <g id="line2d_2">
      <defs>
       <path id="m63181b91a2" d="M 0 0 
L 0 6 
" style="stroke: #000000; stroke-width: 2"/>
      </defs>
      <g>
       <use xlink:href="#m63181b91a2" x="122.034563" y="380.58" style="stroke: #000000; stroke-width: 2"/>
      </g>
     </g>
     <g id="text_1">
      <!-- 1 -->
      <g transform="translate(118.217063 399.198125) scale(0.12 -0.12)">
       <defs>
        <path id="DejaVuSans-31" d="M 794 531 
L 1825 531 
L 1825 4091 
L 703 3866 
L 703 4441 
L 1819 4666 
L 2450 4666 
L 2450 531 
L 3481 531 
L 3481 0 
L 794 0 
L 794 531 
z
" transform="scale(0.015625)"/>
       </defs>
       <use xlink:href="#DejaVuSans-31"/>
      </g>
     </g>
    </g>
    <g id="xtick_2">
     <g id="line2d_3">
      <path d="M 210.425643 380.58 
L 210.425643 30 
" clip-path="url(#p1db6a69c35)" style="fill: none; stroke: #b0b0b0; stroke-opacity: 0.3; stroke-width: 0.5; stroke-linecap: square"/>
     </g>
     <g id="line2d_4">
      <g>
       <use xlink:href="#m63181b91a2" x="210.425643" y="380.58" style="stroke: #000000; stroke-width: 2"/>
      </g>
     </g>
     <g id="text_2">
      <!-- 5 -->
      <g transform="translate(206.608143 399.198125) scale(0.12 -0.12)">
       <defs>
        <path id="DejaVuSans-35" d="M 691 4666 
L 3169 4666 
L 3169 4134 
L 1269 4134 
L 1269 2991 
Q 1406 3038 1543 3061 
Q 1681 3084 1819 3084 
Q 2600 3084 3056 2656 
Q 3513 2228 3513 1497 
Q 3513 744 3044 326 
Q 2575 -91 1722 -91 
Q 1428 -91 1123 -41 
Q 819 9 494 109 
L 494 744 
Q 775 591 1075 516 
Q 1375 441 1709 441 
Q 2250 441 2565 725 
Q 2881 1009 2881 1497 
Q 2881 1984 2565 2268 
Q 2250 2553 1709 2553 
Q 1456 2553 1204 2497 
Q 953 2441 691 2322 
L 691 4666 
z
" transform="scale(0.015625)"/>
       </defs>
       <use xlink:href="#DejaVuSans-35"/>
      </g>
     </g>
    </g>
    <g id="xtick_3">
     <g id="line2d_5">
      <path d="M 298.816724 380.58 
L 298.816724 30 
" clip-path="url(#p1db6a69c35)" style="fill: none; stroke: #b0b0b0; stroke-opacity: 0.3; stroke-width: 0.5; stroke-linecap: square"/>
     </g>
     <g id="line2d_6">
      <g>
       <use xlink:href="#m63181b91a2" x="298.816724" y="380.58" style="stroke: #000000; stroke-width: 2"/>
      </g>
     </g>
     <g id="text_3">
      <!-- 9 -->
      <g transform="translate(294.999224 399.198125) scale(0.12 -0.12)">
       <defs>
        <path id="DejaVuSans-39" d="M 703 97 
L 703 672 
Q 941 559 1184 500 
Q 1428 441 1663 441 
Q 2288 441 2617 861 
Q 2947 1281 2994 2138 
Q 2813 1869 2534 1725 
Q 2256 1581 1919 1581 
Q 1219 1581 811 2004 
Q 403 2428 403 3163 
Q 403 3881 828 4315 
Q 1253 4750 1959 4750 
Q 2769 4750 3195 4129 
Q 3622 3509 3622 2328 
Q 3622 1225 3098 567 
Q 2575 -91 1691 -91 
Q 1453 -91 1209 -44 
Q 966 3 703 97 
z
M 1959 2075 
Q 2384 2075 2632 2365 
Q 2881 2656 2881 3163 
Q 2881 3666 2632 3958 
Q 2384 4250 1959 4250 
Q 1534 4250 1286 3958 
Q 1038 3666 1038 3163 
Q 1038 2656 1286 2365 
Q 1534 2075 1959 2075 
z
" transform="scale(0.015625)"/>
       </defs>
       <use xlink:href="#DejaVuSans-39"/>
      </g>
     </g>
    </g>
    <g id="xtick_4">
     <g id="line2d_7">
      <path d="M 387.207804 380.58 
L 387.207804 30 
" clip-path="url(#p1db6a69c35)" style="fill: none; stroke: #b0b0b0; stroke-opacity: 0.3; stroke-width: 0.5; stroke-linecap: square"/>
     </g>
     <g id="line2d_8">
      <g>
       <use xlink:href="#m63181b91a2" x="387.207804" y="380.58" style="stroke: #000000; stroke-width: 2"/>
      </g>
     </g>
     <g id="text_4">
      <!-- 13 -->
      <g transform="translate(379.572804 399.198125) scale(0.12 -0.12)">
       <defs>
        <path id="DejaVuSans-33" d="M 2597 2516 
Q 3050 2419 3304 2112 
Q 3559 1806 3559 1356 
Q 3559 666 3084 287 
Q 2609 -91 1734 -91 
Q 1441 -91 1130 -33 
Q 819 25 488 141 
L 488 750 
Q 750 597 1062 519 
Q 1375 441 1716 441 
Q 2309 441 2620 675 
Q 2931 909 2931 1356 
Q 2931 1769 2642 2001 
Q 2353 2234 1838 2234 
L 1294 2234 
L 1294 2753 
L 1863 2753 
Q 2328 2753 2575 2939 
Q 2822 3125 2822 3475 
Q 2822 3834 2567 4026 
Q 2313 4219 1838 4219 
Q 1578 4219 1281 4162 
Q 984 4106 628 3988 
L 628 4550 
Q 988 4650 1302 4700 
Q 1616 4750 1894 4750 
Q 2613 4750 3031 4423 
Q 3450 4097 3450 3541 
Q 3450 3153 3228 2886 
Q 3006 2619 2597 2516 
z
" transform="scale(0.015625)"/>
       </defs>
       <use xlink:href="#DejaVuSans-31"/>
       <use xlink:href="#DejaVuSans-33" x="63.623047"/>
      </g>
     </g>
    </g>
    <g id="xtick_5">
     <g id="line2d_9">
      <path d="M 475.598885 380.58 
L 475.598885 30 
" clip-path="url(#p1db6a69c35)" style="fill: none; stroke: #b0b0b0; stroke-opacity: 0.3; stroke-width: 0.5; stroke-linecap: square"/>
     </g>
     <g id="line2d_10">
      <g>
       <use xlink:href="#m63181b91a2" x="475.598885" y="380.58" style="stroke: #000000; stroke-width: 2"/>
      </g>
     </g>
     <g id="text_5">
      <!-- 17 -->
      <g transform="translate(467.963885 399.198125) scale(0.12 -0.12)">
       <defs>
        <path id="DejaVuSans-37" d="M 525 4666 
L 3525 4666 
L 3525 4397 
L 1831 0 
L 1172 0 
L 2766 4134 
L 525 4134 
L 525 4666 
z
" transform="scale(0.015625)"/>
       </defs>
       <use xlink:href="#DejaVuSans-31"/>
       <use xlink:href="#DejaVuSans-37" x="63.623047"/>
      </g>
     </g>
    </g>
    <g id="xtick_6">
     <g id="line2d_11">
      <path d="M 563.989966 380.58 
L 563.989966 30 
" clip-path="url(#p1db6a69c35)" style="fill: none; stroke: #b0b0b0; stroke-opacity: 0.3; stroke-width: 0.5; stroke-linecap: square"/>
     </g>
     <g id="line2d_12">
      <g>
       <use xlink:href="#m63181b91a2" x="563.989966" y="380.58" style="stroke: #000000; stroke-width: 2"/>
      </g>
     </g>
     <g id="text_6">
      <!-- 21 -->
      <g transform="translate(556.354966 399.198125) scale(0.12 -0.12)">
       <defs>
        <path id="DejaVuSans-32" d="M 1228 531 
L 3431 531 
L 3431 0 
L 469 0 
L 469 531 
Q 828 903 1448 1529 
Q 2069 2156 2228 2338 
Q 2531 2678 2651 2914 
Q 2772 3150 2772 3378 
Q 2772 3750 2511 3984 
Q 2250 4219 1831 4219 
Q 1534 4219 1204 4116 
Q 875 4013 500 3803 
L 500 4441 
Q 881 4594 1212 4672 
Q 1544 4750 1819 4750 
Q 2544 4750 2975 4387 
Q 3406 4025 3406 3419 
Q 3406 3131 3298 2873 
Q 3191 2616 2906 2266 
Q 2828 2175 2409 1742 
Q 1991 1309 1228 531 
z
" transform="scale(0.015625)"/>
       </defs>
       <use xlink:href="#DejaVuSans-32"/>
       <use xlink:href="#DejaVuSans-31" x="63.623047"/>
      </g>
     </g>
    </g>
    <g id="xtick_7">
     <g id="line2d_13">
      <path d="M 652.381046 380.58 
L 652.381046 30 
" clip-path="url(#p1db6a69c35)" style="fill: none; stroke: #b0b0b0; stroke-opacity: 0.3; stroke-width: 0.5; stroke-linecap: square"/>
     </g>
     <g id="line2d_14">
      <g>
       <use xlink:href="#m63181b91a2" x="652.381046" y="380.58" style="stroke: #000000; stroke-width: 2"/>
      </g>
     </g>
     <g id="text_7">
      <!-- 25 -->
      <g transform="translate(644.746046 399.198125) scale(0.12 -0.12)">
       <use xlink:href="#DejaVuSans-32"/>
       <use xlink:href="#DejaVuSans-35" x="63.623047"/>
      </g>
     </g>
    </g>
    <g id="xtick_8">
     <g id="line2d_15">
      <path d="M 740.772127 380.58 
L 740.772127 30 
" clip-path="url(#p1db6a69c35)" style="fill: none; stroke: #b0b0b0; stroke-opacity: 0.3; stroke-width: 0.5; stroke-linecap: square"/>
     </g>
     <g id="line2d_16">
      <g>
       <use xlink:href="#m63181b91a2" x="740.772127" y="380.58" style="stroke: #000000; stroke-width: 2"/>
      </g>
     </g>
     <g id="text_8">
      <!-- 29 -->
      <g transform="translate(733.137127 399.198125) scale(0.12 -0.12)">
       <use xlink:href="#DejaVuSans-32"/>
       <use xlink:href="#DejaVuSans-39" x="63.623047"/>
      </g>
     </g>
    </g>
    <g id="text_9">
     <!-- Deney No -->
     <g transform="translate(426.5925 416.222188) scale(0.14 -0.14)">
      <defs>
       <path id="DejaVuSans-Bold-44" d="M 1791 3756 
L 1791 909 
L 2222 909 
Q 2959 909 3348 1275 
Q 3738 1641 3738 2338 
Q 3738 3031 3350 3393 
Q 2963 3756 2222 3756 
L 1791 3756 
z
M 588 4666 
L 1856 4666 
Q 2919 4666 3439 4514 
Q 3959 4363 4331 4000 
Q 4659 3684 4818 3271 
Q 4978 2859 4978 2338 
Q 4978 1809 4818 1395 
Q 4659 981 4331 666 
Q 3956 303 3431 151 
Q 2906 0 1856 0 
L 588 0 
L 588 4666 
z
" transform="scale(0.015625)"/>
       <path id="DejaVuSans-Bold-65" d="M 4031 1759 
L 4031 1441 
L 1416 1441 
Q 1456 1047 1700 850 
Q 1944 653 2381 653 
Q 2734 653 3104 758 
Q 3475 863 3866 1075 
L 3866 213 
Q 3469 63 3072 -14 
Q 2675 -91 2278 -91 
Q 1328 -91 801 392 
Q 275 875 275 1747 
Q 275 2603 792 3093 
Q 1309 3584 2216 3584 
Q 3041 3584 3536 3087 
Q 4031 2591 4031 1759 
z
M 2881 2131 
Q 2881 2450 2695 2645 
Q 2509 2841 2209 2841 
Q 1884 2841 1681 2658 
Q 1478 2475 1428 2131 
L 2881 2131 
z
" transform="scale(0.015625)"/>
       <path id="DejaVuSans-Bold-6e" d="M 4056 2131 
L 4056 0 
L 2931 0 
L 2931 347 
L 2931 1631 
Q 2931 2084 2911 2256 
Q 2891 2428 2841 2509 
Q 2775 2619 2662 2680 
Q 2550 2741 2406 2741 
Q 2056 2741 1856 2470 
Q 1656 2200 1656 1722 
L 1656 0 
L 538 0 
L 538 3500 
L 1656 3500 
L 1656 2988 
Q 1909 3294 2193 3439 
Q 2478 3584 2822 3584 
Q 3428 3584 3742 3212 
Q 4056 2841 4056 2131 
z
" transform="scale(0.015625)"/>
       <path id="DejaVuSans-Bold-79" d="M 78 3500 
L 1197 3500 
L 2138 1125 
L 2938 3500 
L 4056 3500 
L 2584 -331 
Q 2363 -916 2067 -1148 
Q 1772 -1381 1288 -1381 
L 641 -1381 
L 641 -647 
L 991 -647 
Q 1275 -647 1404 -556 
Q 1534 -466 1606 -231 
L 1638 -134 
L 78 3500 
z
" transform="scale(0.015625)"/>
       <path id="DejaVuSans-Bold-20" transform="scale(0.015625)"/>
       <path id="DejaVuSans-Bold-4e" d="M 588 4666 
L 1931 4666 
L 3628 1466 
L 3628 4666 
L 4769 4666 
L 4769 0 
L 3425 0 
L 1728 3200 
L 1728 0 
L 588 0 
L 588 4666 
z
" transform="scale(0.015625)"/>
       <path id="DejaVuSans-Bold-6f" d="M 2203 2784 
Q 1831 2784 1636 2517 
Q 1441 2250 1441 1747 
Q 1441 1244 1636 976 
Q 1831 709 2203 709 
Q 2569 709 2762 976 
Q 2956 1244 2956 1747 
Q 2956 2250 2762 2517 
Q 2569 2784 2203 2784 
z
M 2203 3584 
Q 3106 3584 3614 3096 
Q 4122 2609 4122 1747 
Q 4122 884 3614 396 
Q 3106 -91 2203 -91 
Q 1297 -91 786 396 
Q 275 884 275 1747 
Q 275 2609 786 3096 
Q 1297 3584 2203 3584 
z
" transform="scale(0.015625)"/>
      </defs>
      <use xlink:href="#DejaVuSans-Bold-44"/>
      <use xlink:href="#DejaVuSans-Bold-65" x="83.007812"/>
      <use xlink:href="#DejaVuSans-Bold-6e" x="150.830078"/>
      <use xlink:href="#DejaVuSans-Bold-65" x="222.021484"/>
      <use xlink:href="#DejaVuSans-Bold-79" x="289.84375"/>
      <use xlink:href="#DejaVuSans-Bold-20" x="355.029297"/>
      <use xlink:href="#DejaVuSans-Bold-4e" x="389.84375"/>
      <use xlink:href="#DejaVuSans-Bold-6f" x="473.535156"/>
     </g>
    </g>
   </g>
   <g id="matplotlib.axis_2">
    <g id="ytick_1">
     <g id="line2d_17">
      <path d="M 78.06 380.58 
L 851.04 380.58 
" clip-path="url(#p1db6a69c35)" style="fill: none; stroke: #b0b0b0; stroke-opacity: 0.3; stroke-width: 0.5; stroke-linecap: square"/>
     </g>
     <g id="line2d_18">
      <defs>
       <path id="m1f38b81915" d="M 0 0 
L -6 0 
" style="stroke: #000000; stroke-width: 2"/>
      </defs>
      <g>
       <use xlink:href="#m1f38b81915" x="78.06" y="380.58" style="stroke: #000000; stroke-width: 2"/>
      </g>
     </g>
     <g id="text_10">
      <!-- 0 -->
      <g transform="translate(60.925 385.139063) scale(0.12 -0.12)">
       <defs>
        <path id="DejaVuSans-30" d="M 2034 4250 
Q 1547 4250 1301 3770 
Q 1056 3291 1056 2328 
Q 1056 1369 1301 889 
Q 1547 409 2034 409 
Q 2525 409 2770 889 
Q 3016 1369 3016 2328 
Q 3016 3291 2770 3770 
Q 2525 4250 2034 4250 
z
M 2034 4750 
Q 2819 4750 3233 4129 
Q 3647 3509 3647 2328 
Q 3647 1150 3233 529 
Q 2819 -91 2034 -91 
Q 1250 -91 836 529 
Q 422 1150 422 2328 
Q 422 3509 836 4129 
Q 1250 4750 2034 4750 
z
" transform="scale(0.015625)"/>
       </defs>
       <use xlink:href="#DejaVuSans-30"/>
      </g>
     </g>
    </g>
    <g id="ytick_2">
     <g id="line2d_19">
      <path d="M 78.06 325.061923 
L 851.04 325.061923 
" clip-path="url(#p1db6a69c35)" style="fill: none; stroke: #b0b0b0; stroke-opacity: 0.3; stroke-width: 0.5; stroke-linecap: square"/>
     </g>
     <g id="line2d_20">
      <g>
       <use xlink:href="#m1f38b81915" x="78.06" y="325.061923" style="stroke: #000000; stroke-width: 2"/>
      </g>
     </g>
     <g id="text_11">
      <!-- 10000 -->
      <g transform="translate(30.385 329.620986) scale(0.12 -0.12)">
       <use xlink:href="#DejaVuSans-31"/>
       <use xlink:href="#DejaVuSans-30" x="63.623047"/>
       <use xlink:href="#DejaVuSans-30" x="127.246094"/>
       <use xlink:href="#DejaVuSans-30" x="190.869141"/>
       <use xlink:href="#DejaVuSans-30" x="254.492188"/>
      </g>
     </g>
    </g>
    <g id="ytick_3">
     <g id="line2d_21">
      <path d="M 78.06 269.543846 
L 851.04 269.543846 
" clip-path="url(#p1db6a69c35)" style="fill: none; stroke: #b0b0b0; stroke-opacity: 0.3; stroke-width: 0.5; stroke-linecap: square"/>
     </g>
     <g id="line2d_22">
      <g>
       <use xlink:href="#m1f38b81915" x="78.06" y="269.543846" style="stroke: #000000; stroke-width: 2"/>
      </g>
     </g>
     <g id="text_12">
      <!-- 20000 -->
      <g transform="translate(30.385 274.102909) scale(0.12 -0.12)">
       <use xlink:href="#DejaVuSans-32"/>
       <use xlink:href="#DejaVuSans-30" x="63.623047"/>
       <use xlink:href="#DejaVuSans-30" x="127.246094"/>
       <use xlink:href="#DejaVuSans-30" x="190.869141"/>
       <use xlink:href="#DejaVuSans-30" x="254.492188"/>
      </g>
     </g>
    </g>
    <g id="ytick_4">
     <g id="line2d_23">
      <path d="M 78.06 214.025769 
L 851.04 214.025769 
" clip-path="url(#p1db6a69c35)" style="fill: none; stroke: #b0b0b0; stroke-opacity: 0.3; stroke-width: 0.5; stroke-linecap: square"/>
     </g>
     <g id="line2d_24">
      <g>
       <use xlink:href="#m1f38b81915" x="78.06" y="214.025769" style="stroke: #000000; stroke-width: 2"/>
      </g>
     </g>
     <g id="text_13">
      <!-- 30000 -->
      <g transform="translate(30.385 218.584832) scale(0.12 -0.12)">
       <use xlink:href="#DejaVuSans-33"/>
       <use xlink:href="#DejaVuSans-30" x="63.623047"/>
       <use xlink:href="#DejaVuSans-30" x="127.246094"/>
       <use xlink:href="#DejaVuSans-30" x="190.869141"/>
       <use xlink:href="#DejaVuSans-30" x="254.492188"/>
      </g>
     </g>
    </g>
    <g id="ytick_5">
     <g id="line2d_25">
      <path d="M 78.06 158.507693 
L 851.04 158.507693 
" clip-path="url(#p1db6a69c35)" style="fill: none; stroke: #b0b0b0; stroke-opacity: 0.3; stroke-width: 0.5; stroke-linecap: square"/>
     </g>
     <g id="line2d_26">
      <g>
       <use xlink:href="#m1f38b81915" x="78.06" y="158.507693" style="stroke: #000000; stroke-width: 2"/>
      </g>
     </g>
     <g id="text_14">
      <!-- 40000 -->
      <g transform="translate(30.385 163.066755) scale(0.12 -0.12)">
       <defs>
        <path id="DejaVuSans-34" d="M 2419 4116 
L 825 1625 
L 2419 1625 
L 2419 4116 
z
M 2253 4666 
L 3047 4666 
L 3047 1625 
L 3713 1625 
L 3713 1100 
L 3047 1100 
L 3047 0 
L 2419 0 
L 2419 1100 
L 313 1100 
L 313 1709 
L 2253 4666 
z
" transform="scale(0.015625)"/>
       </defs>
       <use xlink:href="#DejaVuSans-34"/>
       <use xlink:href="#DejaVuSans-30" x="63.623047"/>
       <use xlink:href="#DejaVuSans-30" x="127.246094"/>
       <use xlink:href="#DejaVuSans-30" x="190.869141"/>
       <use xlink:href="#DejaVuSans-30" x="254.492188"/>
      </g>
     </g>
    </g>
    <g id="ytick_6">
     <g id="line2d_27">
      <path d="M 78.06 102.989616 
L 851.04 102.989616 
" clip-path="url(#p1db6a69c35)" style="fill: none; stroke: #b0b0b0; stroke-opacity: 0.3; stroke-width: 0.5; stroke-linecap: square"/>
     </g>
     <g id="line2d_28">
      <g>
       <use xlink:href="#m1f38b81915" x="78.06" y="102.989616" style="stroke: #000000; stroke-width: 2"/>
      </g>
     </g>
     <g id="text_15">
      <!-- 50000 -->
      <g transform="translate(30.385 107.548678) scale(0.12 -0.12)">
       <use xlink:href="#DejaVuSans-35"/>
       <use xlink:href="#DejaVuSans-30" x="63.623047"/>
       <use xlink:href="#DejaVuSans-30" x="127.246094"/>
       <use xlink:href="#DejaVuSans-30" x="190.869141"/>
       <use xlink:href="#DejaVuSans-30" x="254.492188"/>
      </g>
     </g>
    </g>
    <g id="ytick_7">
     <g id="line2d_29">
      <path d="M 78.06 47.471539 
L 851.04 47.471539 
" clip-path="url(#p1db6a69c35)" style="fill: none; stroke: #b0b0b0; stroke-opacity: 0.3; stroke-width: 0.5; stroke-linecap: square"/>
     </g>
     <g id="line2d_30">
      <g>
       <use xlink:href="#m1f38b81915" x="78.06" y="47.471539" style="stroke: #000000; stroke-width: 2"/>
      </g>
     </g>
     <g id="text_16">
      <!-- 60000 -->
      <g transform="translate(30.385 52.030601) scale(0.12 -0.12)">
       <defs>
        <path id="DejaVuSans-36" d="M 2113 2584 
Q 1688 2584 1439 2293 
Q 1191 2003 1191 1497 
Q 1191 994 1439 701 
Q 1688 409 2113 409 
Q 2538 409 2786 701 
Q 3034 994 3034 1497 
Q 3034 2003 2786 2293 
Q 2538 2584 2113 2584 
z
M 3366 4563 
L 3366 3988 
Q 3128 4100 2886 4159 
Q 2644 4219 2406 4219 
Q 1781 4219 1451 3797 
Q 1122 3375 1075 2522 
Q 1259 2794 1537 2939 
Q 1816 3084 2150 3084 
Q 2853 3084 3261 2657 
Q 3669 2231 3669 1497 
Q 3669 778 3244 343 
Q 2819 -91 2113 -91 
Q 1303 -91 875 529 
Q 447 1150 447 2328 
Q 447 3434 972 4092 
Q 1497 4750 2381 4750 
Q 2619 4750 2861 4703 
Q 3103 4656 3366 4563 
z
" transform="scale(0.015625)"/>
       </defs>
       <use xlink:href="#DejaVuSans-36"/>
       <use xlink:href="#DejaVuSans-30" x="63.623047"/>
       <use xlink:href="#DejaVuSans-30" x="127.246094"/>
       <use xlink:href="#DejaVuSans-30" x="190.869141"/>
       <use xlink:href="#DejaVuSans-30" x="254.492188"/>
      </g>
     </g>
    </g>
    <g id="text_17">
     <!-- Toplam Veri Sayısı -->
     <g transform="translate(23.364063 276.955781) rotate(-90) scale(0.14 -0.14)">
      <defs>
       <path id="DejaVuSans-Bold-54" d="M 31 4666 
L 4331 4666 
L 4331 3756 
L 2784 3756 
L 2784 0 
L 1581 0 
L 1581 3756 
L 31 3756 
L 31 4666 
z
" transform="scale(0.015625)"/>
       <path id="DejaVuSans-Bold-70" d="M 1656 506 
L 1656 -1331 
L 538 -1331 
L 538 3500 
L 1656 3500 
L 1656 2988 
Q 1888 3294 2169 3439 
Q 2450 3584 2816 3584 
Q 3463 3584 3878 3070 
Q 4294 2556 4294 1747 
Q 4294 938 3878 423 
Q 3463 -91 2816 -91 
Q 2450 -91 2169 54 
Q 1888 200 1656 506 
z
M 2400 2772 
Q 2041 2772 1848 2508 
Q 1656 2244 1656 1747 
Q 1656 1250 1848 986 
Q 2041 722 2400 722 
Q 2759 722 2948 984 
Q 3138 1247 3138 1747 
Q 3138 2247 2948 2509 
Q 2759 2772 2400 2772 
z
" transform="scale(0.015625)"/>
       <path id="DejaVuSans-Bold-6c" d="M 538 4863 
L 1656 4863 
L 1656 0 
L 538 0 
L 538 4863 
z
" transform="scale(0.015625)"/>
       <path id="DejaVuSans-Bold-61" d="M 2106 1575 
Q 1756 1575 1579 1456 
Q 1403 1338 1403 1106 
Q 1403 894 1545 773 
Q 1688 653 1941 653 
Q 2256 653 2472 879 
Q 2688 1106 2688 1447 
L 2688 1575 
L 2106 1575 
z
M 3816 1997 
L 3816 0 
L 2688 0 
L 2688 519 
Q 2463 200 2181 54 
Q 1900 -91 1497 -91 
Q 953 -91 614 226 
Q 275 544 275 1050 
Q 275 1666 698 1953 
Q 1122 2241 2028 2241 
L 2688 2241 
L 2688 2328 
Q 2688 2594 2478 2717 
Q 2269 2841 1825 2841 
Q 1466 2841 1156 2769 
Q 847 2697 581 2553 
L 581 3406 
Q 941 3494 1303 3539 
Q 1666 3584 2028 3584 
Q 2975 3584 3395 3211 
Q 3816 2838 3816 1997 
z
" transform="scale(0.015625)"/>
       <path id="DejaVuSans-Bold-6d" d="M 3781 2919 
Q 3994 3244 4286 3414 
Q 4578 3584 4928 3584 
Q 5531 3584 5847 3212 
Q 6163 2841 6163 2131 
L 6163 0 
L 5038 0 
L 5038 1825 
Q 5041 1866 5042 1909 
Q 5044 1953 5044 2034 
Q 5044 2406 4934 2573 
Q 4825 2741 4581 2741 
Q 4263 2741 4089 2478 
Q 3916 2216 3909 1719 
L 3909 0 
L 2784 0 
L 2784 1825 
Q 2784 2406 2684 2573 
Q 2584 2741 2328 2741 
Q 2006 2741 1831 2477 
Q 1656 2213 1656 1722 
L 1656 0 
L 531 0 
L 531 3500 
L 1656 3500 
L 1656 2988 
Q 1863 3284 2130 3434 
Q 2397 3584 2719 3584 
Q 3081 3584 3359 3409 
Q 3638 3234 3781 2919 
z
" transform="scale(0.015625)"/>
       <path id="DejaVuSans-Bold-56" d="M 31 4666 
L 1241 4666 
L 2478 1222 
L 3713 4666 
L 4922 4666 
L 3194 0 
L 1759 0 
L 31 4666 
z
" transform="scale(0.015625)"/>
       <path id="DejaVuSans-Bold-72" d="M 3138 2547 
Q 2991 2616 2845 2648 
Q 2700 2681 2553 2681 
Q 2122 2681 1889 2404 
Q 1656 2128 1656 1613 
L 1656 0 
L 538 0 
L 538 3500 
L 1656 3500 
L 1656 2925 
Q 1872 3269 2151 3426 
Q 2431 3584 2822 3584 
Q 2878 3584 2943 3579 
Q 3009 3575 3134 3559 
L 3138 2547 
z
" transform="scale(0.015625)"/>
       <path id="DejaVuSans-Bold-69" d="M 538 3500 
L 1656 3500 
L 1656 0 
L 538 0 
L 538 3500 
z
M 538 4863 
L 1656 4863 
L 1656 3950 
L 538 3950 
L 538 4863 
z
" transform="scale(0.015625)"/>
       <path id="DejaVuSans-Bold-53" d="M 3834 4519 
L 3834 3531 
Q 3450 3703 3084 3790 
Q 2719 3878 2394 3878 
Q 1963 3878 1756 3759 
Q 1550 3641 1550 3391 
Q 1550 3203 1689 3098 
Q 1828 2994 2194 2919 
L 2706 2816 
Q 3484 2659 3812 2340 
Q 4141 2022 4141 1434 
Q 4141 663 3683 286 
Q 3225 -91 2284 -91 
Q 1841 -91 1394 -6 
Q 947 78 500 244 
L 500 1259 
Q 947 1022 1364 901 
Q 1781 781 2169 781 
Q 2563 781 2772 912 
Q 2981 1044 2981 1288 
Q 2981 1506 2839 1625 
Q 2697 1744 2272 1838 
L 1806 1941 
Q 1106 2091 782 2419 
Q 459 2747 459 3303 
Q 459 4000 909 4375 
Q 1359 4750 2203 4750 
Q 2588 4750 2994 4692 
Q 3400 4634 3834 4519 
z
" transform="scale(0.015625)"/>
       <path id="DejaVuSans-Bold-131" d="M 538 3500 
L 1656 3500 
L 1656 0 
L 538 0 
L 538 3500 
z
" transform="scale(0.015625)"/>
       <path id="DejaVuSans-Bold-73" d="M 3272 3391 
L 3272 2541 
Q 2913 2691 2578 2766 
Q 2244 2841 1947 2841 
Q 1628 2841 1473 2761 
Q 1319 2681 1319 2516 
Q 1319 2381 1436 2309 
Q 1553 2238 1856 2203 
L 2053 2175 
Q 2913 2066 3209 1816 
Q 3506 1566 3506 1031 
Q 3506 472 3093 190 
Q 2681 -91 1863 -91 
Q 1516 -91 1145 -36 
Q 775 19 384 128 
L 384 978 
Q 719 816 1070 734 
Q 1422 653 1784 653 
Q 2113 653 2278 743 
Q 2444 834 2444 1013 
Q 2444 1163 2330 1236 
Q 2216 1309 1875 1350 
L 1678 1375 
Q 931 1469 631 1722 
Q 331 1975 331 2491 
Q 331 3047 712 3315 
Q 1094 3584 1881 3584 
Q 2191 3584 2531 3537 
Q 2872 3491 3272 3391 
z
" transform="scale(0.015625)"/>
      </defs>
      <use xlink:href="#DejaVuSans-Bold-54"/>
      <use xlink:href="#DejaVuSans-Bold-6f" x="54.962891"/>
      <use xlink:href="#DejaVuSans-Bold-70" x="123.664062"/>
      <use xlink:href="#DejaVuSans-Bold-6c" x="195.246094"/>
      <use xlink:href="#DejaVuSans-Bold-61" x="229.523438"/>
      <use xlink:href="#DejaVuSans-Bold-6d" x="297.003906"/>
      <use xlink:href="#DejaVuSans-Bold-20" x="401.203125"/>
      <use xlink:href="#DejaVuSans-Bold-56" x="436.017578"/>
      <use xlink:href="#DejaVuSans-Bold-65" x="507.910156"/>
      <use xlink:href="#DejaVuSans-Bold-72" x="575.732422"/>
      <use xlink:href="#DejaVuSans-Bold-69" x="625.048828"/>
      <use xlink:href="#DejaVuSans-Bold-20" x="659.326172"/>
      <use xlink:href="#DejaVuSans-Bold-53" x="694.140625"/>
      <use xlink:href="#DejaVuSans-Bold-61" x="766.162109"/>
      <use xlink:href="#DejaVuSans-Bold-79" x="830.517578"/>
      <use xlink:href="#DejaVuSans-Bold-131" x="895.703125"/>
      <use xlink:href="#DejaVuSans-Bold-73" x="929.980469"/>
      <use xlink:href="#DejaVuSans-Bold-131" x="989.501953"/>
     </g>
    </g>
   </g>
   <g id="patch_35">
    <path d="M 78.06 380.58 
L 78.06 30 
" style="fill: none; stroke: #000000; stroke-width: 2.5; stroke-linejoin: miter; stroke-linecap: square"/>
   </g>
   <g id="patch_36">
    <path d="M 78.06 380.58 
L 851.04 380.58 
" style="fill: none; stroke: #000000; stroke-width: 2.5; stroke-linejoin: miter; stroke-linecap: square"/>
   </g>
   <g id="text_18">
    <!-- Her Deneydeki Toplam Veri Miktarı -->
    <g transform="translate(317.623828 24) scale(0.15 -0.15)">
     <defs>
      <path id="DejaVuSans-Bold-48" d="M 588 4666 
L 1791 4666 
L 1791 2888 
L 3566 2888 
L 3566 4666 
L 4769 4666 
L 4769 0 
L 3566 0 
L 3566 1978 
L 1791 1978 
L 1791 0 
L 588 0 
L 588 4666 
z
" transform="scale(0.015625)"/>
      <path id="DejaVuSans-Bold-64" d="M 2919 2988 
L 2919 4863 
L 4044 4863 
L 4044 0 
L 2919 0 
L 2919 506 
Q 2688 197 2409 53 
Q 2131 -91 1766 -91 
Q 1119 -91 703 423 
Q 288 938 288 1747 
Q 288 2556 703 3070 
Q 1119 3584 1766 3584 
Q 2128 3584 2408 3439 
Q 2688 3294 2919 2988 
z
M 2181 722 
Q 2541 722 2730 984 
Q 2919 1247 2919 1747 
Q 2919 2247 2730 2509 
Q 2541 2772 2181 2772 
Q 1825 2772 1636 2509 
Q 1447 2247 1447 1747 
Q 1447 1247 1636 984 
Q 1825 722 2181 722 
z
" transform="scale(0.015625)"/>
      <path id="DejaVuSans-Bold-6b" d="M 538 4863 
L 1656 4863 
L 1656 2216 
L 2944 3500 
L 4244 3500 
L 2534 1894 
L 4378 0 
L 3022 0 
L 1656 1459 
L 1656 0 
L 538 0 
L 538 4863 
z
" transform="scale(0.015625)"/>
      <path id="DejaVuSans-Bold-4d" d="M 588 4666 
L 2119 4666 
L 3181 2169 
L 4250 4666 
L 5778 4666 
L 5778 0 
L 4641 0 
L 4641 3413 
L 3566 897 
L 2803 897 
L 1728 3413 
L 1728 0 
L 588 0 
L 588 4666 
z
" transform="scale(0.015625)"/>
      <path id="DejaVuSans-Bold-74" d="M 1759 4494 
L 1759 3500 
L 2913 3500 
L 2913 2700 
L 1759 2700 
L 1759 1216 
Q 1759 972 1856 886 
Q 1953 800 2241 800 
L 2816 800 
L 2816 0 
L 1856 0 
Q 1194 0 917 276 
Q 641 553 641 1216 
L 641 2700 
L 84 2700 
L 84 3500 
L 641 3500 
L 641 4494 
L 1759 4494 
z
" transform="scale(0.015625)"/>
     </defs>
     <use xlink:href="#DejaVuSans-Bold-48"/>
     <use xlink:href="#DejaVuSans-Bold-65" x="83.691406"/>
     <use xlink:href="#DejaVuSans-Bold-72" x="151.513672"/>
     <use xlink:href="#DejaVuSans-Bold-20" x="200.830078"/>
     <use xlink:href="#DejaVuSans-Bold-44" x="235.644531"/>
     <use xlink:href="#DejaVuSans-Bold-65" x="318.652344"/>
     <use xlink:href="#DejaVuSans-Bold-6e" x="386.474609"/>
     <use xlink:href="#DejaVuSans-Bold-65" x="457.666016"/>
     <use xlink:href="#DejaVuSans-Bold-79" x="525.488281"/>
     <use xlink:href="#DejaVuSans-Bold-64" x="590.673828"/>
     <use xlink:href="#DejaVuSans-Bold-65" x="662.255859"/>
     <use xlink:href="#DejaVuSans-Bold-6b" x="730.078125"/>
     <use xlink:href="#DejaVuSans-Bold-69" x="796.582031"/>
     <use xlink:href="#DejaVuSans-Bold-20" x="830.859375"/>
     <use xlink:href="#DejaVuSans-Bold-54" x="865.673828"/>
     <use xlink:href="#DejaVuSans-Bold-6f" x="920.636719"/>
     <use xlink:href="#DejaVuSans-Bold-70" x="989.337891"/>
     <use xlink:href="#DejaVuSans-Bold-6c" x="1060.919922"/>
     <use xlink:href="#DejaVuSans-Bold-61" x="1095.197266"/>
     <use xlink:href="#DejaVuSans-Bold-6d" x="1162.677734"/>
     <use xlink:href="#DejaVuSans-Bold-20" x="1266.876953"/>
     <use xlink:href="#DejaVuSans-Bold-56" x="1301.691406"/>
     <use xlink:href="#DejaVuSans-Bold-65" x="1373.583984"/>
     <use xlink:href="#DejaVuSans-Bold-72" x="1441.40625"/>
     <use xlink:href="#DejaVuSans-Bold-69" x="1490.722656"/>
     <use xlink:href="#DejaVuSans-Bold-20" x="1525"/>
     <use xlink:href="#DejaVuSans-Bold-4d" x="1559.814453"/>
     <use xlink:href="#DejaVuSans-Bold-69" x="1659.326172"/>
     <use xlink:href="#DejaVuSans-Bold-6b" x="1693.603516"/>
     <use xlink:href="#DejaVuSans-Bold-74" x="1760.107422"/>
     <use xlink:href="#DejaVuSans-Bold-61" x="1807.910156"/>
     <use xlink:href="#DejaVuSans-Bold-72" x="1875.390625"/>
     <use xlink:href="#DejaVuSans-Bold-131" x="1924.707031"/>
    </g>
   </g>
  </g>
 </g>
 <defs>
  <clipPath id="p1db6a69c35">
   <rect x="78.06" y="30" width="772.98" height="350.58"/>
  </clipPath>
 </defs>
</svg>
