<?xml version="1.0" encoding="utf-8" standalone="no"?>
<!DOCTYPE svg PUBLIC "-//W3C//DTD SVG 1.1//EN"
  "http://www.w3.org/Graphics/SVG/1.1/DTD/svg11.dtd">
<svg xmlns:xlink="http://www.w3.org/1999/xlink" width="1008pt" height="504pt" viewBox="0 0 1008 504" xmlns="http://www.w3.org/2000/svg" version="1.1">
 <metadata>
  <rdf:RDF xmlns:dc="http://purl.org/dc/elements/1.1/" xmlns:cc="http://creativecommons.org/ns#" xmlns:rdf="http://www.w3.org/1999/02/22-rdf-syntax-ns#">
   <cc:Work>
    <dc:type rdf:resource="http://purl.org/dc/dcmitype/StillImage"/>
    <dc:date>2026-03-19T13:24:40.972924</dc:date>
    <dc:format>image/svg+xml</dc:format>
    <dc:creator>
     <cc:Agent>
      <dc:title>Matplotlib v3.9.0, https://matplotlib.org/</dc:title>
     </cc:Agent>
    </dc:creator>
   </cc:Work>
  </rdf:RDF>
 </metadata>
 <defs>
  <style type="text/css">*{stroke-linejoin: round; stroke-linecap: butt}</style>
 </defs>
 <g id="figure_1">
  <g id="patch_1">
   <path d="M 0 504 
L 1008 504 
L 1008 0 
L 0 0 
z
" style="fill: #ffffff"/>
  </g>
  <g id="axes_1">
   <g id="patch_2">
    <path d="M 66.72 431.643799 
L 995.04 431.643799 
L 995.04 30 
L 66.72 30 
z
" style="fill: #ffffff"/>
   </g>
   <g id="matplotlib.axis_1">
    <g id="xtick_1">
     <g id="line2d_1">
      <path d="M 108.916364 431.643799 
L 108.916364 30 
" clip-path="url(#p5f01f9987d)" style="fill: none; stroke: #b0b0b0; stroke-opacity: 0.3; stroke-width: 0.5; stroke-linecap: square"/>
     </g>
     <g id="line2d_2">
      <defs>
       <path id="m1b940138a0" d="M 0 0 
L 0 6 
" style="stroke: #000000; stroke-width: 2"/>
      </defs>
      <g>
       <use xlink:href="#m1b940138a0" x="108.916364" y="431.643799" style="stroke: #000000; stroke-width: 2"/>
      </g>
     </g>
     <g id="text_1">
      <!-- 30 -->
      <g transform="translate(96.35417 458.388807) rotate(-45) scale(0.12 -0.12)">
       <defs>
        <path id="DejaVuSans-33" d="M 2597 2516 
Q 3050 2419 3304 2112 
Q 3559 1806 3559 1356 
Q 3559 666 3084 287 
Q 2609 -91 1734 -91 
Q 1441 -91 1130 -33 
Q 819 25 488 141 
L 488 750 
Q 750 597 1062 519 
Q 1375 441 1716 441 
Q 2309 441 2620 675 
Q 2931 909 2931 1356 
Q 2931 1769 2642 2001 
Q 2353 2234 1838 2234 
L 1294 2234 
L 1294 2753 
L 1863 2753 
Q 2328 2753 2575 2939 
Q 2822 3125 2822 3475 
Q 2822 3834 2567 4026 
Q 2313 4219 1838 4219 
Q 1578 4219 1281 4162 
Q 984 4106 628 3988 
L 628 4550 
Q 988 4650 1302 4700 
Q 1616 4750 1894 4750 
Q 2613 4750 3031 4423 
Q 3450 4097 3450 3541 
Q 3450 3153 3228 2886 
Q 3006 2619 2597 2516 
z
" transform="scale(0.015625)"/>
        <path id="DejaVuSans-30" d="M 2034 4250 
Q 1547 4250 1301 3770 
Q 1056 3291 1056 2328 
Q 1056 1369 1301 889 
Q 1547 409 2034 409 
Q 2525 409 2770 889 
Q 3016 1369 3016 2328 
Q 3016 3291 2770 3770 
Q 2525 4250 2034 4250 
z
M 2034 4750 
Q 2819 4750 3233 4129 
Q 3647 3509 3647 2328 
Q 3647 1150 3233 529 
Q 2819 -91 2034 -91 
Q 1250 -91 836 529 
Q 422 1150 422 2328 
Q 422 3509 836 4129 
Q 1250 4750 2034 4750 
z
" transform="scale(0.015625)"/>
       </defs>
       <use xlink:href="#DejaVuSans-33"/>
       <use xlink:href="#DejaVuSans-30" x="63.623047"/>
      </g>
     </g>
    </g>
    <g id="xtick_2">
     <g id="line2d_3">
      <path d="M 190.586745 431.643799 
L 190.586745 30 
" clip-path="url(#p5f01f9987d)" style="fill: none; stroke: #b0b0b0; stroke-opacity: 0.3; stroke-width: 0.5; stroke-linecap: square"/>
     </g>
     <g id="line2d_4">
      <g>
       <use xlink:href="#m1b940138a0" x="190.586745" y="431.643799" style="stroke: #000000; stroke-width: 2"/>
      </g>
     </g>
     <g id="text_2">
      <!-- 600 -->
      <g transform="translate(172.625791 463.787568) rotate(-45) scale(0.12 -0.12)">
       <defs>
        <path id="DejaVuSans-36" d="M 2113 2584 
Q 1688 2584 1439 2293 
Q 1191 2003 1191 1497 
Q 1191 994 1439 701 
Q 1688 409 2113 409 
Q 2538 409 2786 701 
Q 3034 994 3034 1497 
Q 3034 2003 2786 2293 
Q 2538 2584 2113 2584 
z
M 3366 4563 
L 3366 3988 
Q 3128 4100 2886 4159 
Q 2644 4219 2406 4219 
Q 1781 4219 1451 3797 
Q 1122 3375 1075 2522 
Q 1259 2794 1537 2939 
Q 1816 3084 2150 3084 
Q 2853 3084 3261 2657 
Q 3669 2231 3669 1497 
Q 3669 778 3244 343 
Q 2819 -91 2113 -91 
Q 1303 -91 875 529 
Q 447 1150 447 2328 
Q 447 3434 972 4092 
Q 1497 4750 2381 4750 
Q 2619 4750 2861 4703 
Q 3103 4656 3366 4563 
z
" transform="scale(0.015625)"/>
       </defs>
       <use xlink:href="#DejaVuSans-36"/>
       <use xlink:href="#DejaVuSans-30" x="63.623047"/>
       <use xlink:href="#DejaVuSans-30" x="127.246094"/>
      </g>
     </g>
    </g>
    <g id="xtick_3">
     <g id="line2d_5">
      <path d="M 272.257126 431.643799 
L 272.257126 30 
" clip-path="url(#p5f01f9987d)" style="fill: none; stroke: #b0b0b0; stroke-opacity: 0.3; stroke-width: 0.5; stroke-linecap: square"/>
     </g>
     <g id="line2d_6">
      <g>
       <use xlink:href="#m1b940138a0" x="272.257126" y="431.643799" style="stroke: #000000; stroke-width: 2"/>
      </g>
     </g>
     <g id="text_3">
      <!-- 400 -->
      <g transform="translate(254.296172 463.787568) rotate(-45) scale(0.12 -0.12)">
       <defs>
        <path id="DejaVuSans-34" d="M 2419 4116 
L 825 1625 
L 2419 1625 
L 2419 4116 
z
M 2253 4666 
L 3047 4666 
L 3047 1625 
L 3713 1625 
L 3713 1100 
L 3047 1100 
L 3047 0 
L 2419 0 
L 2419 1100 
L 313 1100 
L 313 1709 
L 2253 4666 
z
" transform="scale(0.015625)"/>
       </defs>
       <use xlink:href="#DejaVuSans-34"/>
       <use xlink:href="#DejaVuSans-30" x="63.623047"/>
       <use xlink:href="#DejaVuSans-30" x="127.246094"/>
      </g>
     </g>
    </g>
    <g id="xtick_4">
     <g id="line2d_7">
      <path d="M 381.150968 431.643799 
L 381.150968 30 
" clip-path="url(#p5f01f9987d)" style="fill: none; stroke: #b0b0b0; stroke-opacity: 0.3; stroke-width: 0.5; stroke-linecap: square"/>
     </g>
     <g id="line2d_8">
      <g>
       <use xlink:href="#m1b940138a0" x="381.150968" y="431.643799" style="stroke: #000000; stroke-width: 2"/>
      </g>
     </g>
     <g id="text_4">
      <!-- 500 -->
      <g transform="translate(363.190014 463.787568) rotate(-45) scale(0.12 -0.12)">
       <defs>
        <path id="DejaVuSans-35" d="M 691 4666 
L 3169 4666 
L 3169 4134 
L 1269 4134 
L 1269 2991 
Q 1406 3038 1543 3061 
Q 1681 3084 1819 3084 
Q 2600 3084 3056 2656 
Q 3513 2228 3513 1497 
Q 3513 744 3044 326 
Q 2575 -91 1722 -91 
Q 1428 -91 1123 -41 
Q 819 9 494 109 
L 494 744 
Q 775 591 1075 516 
Q 1375 441 1709 441 
Q 2250 441 2565 725 
Q 2881 1009 2881 1497 
Q 2881 1984 2565 2268 
Q 2250 2553 1709 2553 
Q 1456 2553 1204 2497 
Q 953 2441 691 2322 
L 691 4666 
z
" transform="scale(0.015625)"/>
       </defs>
       <use xlink:href="#DejaVuSans-35"/>
       <use xlink:href="#DejaVuSans-30" x="63.623047"/>
       <use xlink:href="#DejaVuSans-30" x="127.246094"/>
      </g>
     </g>
    </g>
    <g id="xtick_5">
     <g id="line2d_9">
      <path d="M 462.821349 431.643799 
L 462.821349 30 
" clip-path="url(#p5f01f9987d)" style="fill: none; stroke: #b0b0b0; stroke-opacity: 0.3; stroke-width: 0.5; stroke-linecap: square"/>
     </g>
     <g id="line2d_10">
      <g>
       <use xlink:href="#m1b940138a0" x="462.821349" y="431.643799" style="stroke: #000000; stroke-width: 2"/>
      </g>
     </g>
     <g id="text_5">
      <!-- 300 -->
      <g transform="translate(444.860395 463.787568) rotate(-45) scale(0.12 -0.12)">
       <use xlink:href="#DejaVuSans-33"/>
       <use xlink:href="#DejaVuSans-30" x="63.623047"/>
       <use xlink:href="#DejaVuSans-30" x="127.246094"/>
      </g>
     </g>
    </g>
    <g id="xtick_6">
     <g id="line2d_11">
      <path d="M 571.715191 431.643799 
L 571.715191 30 
" clip-path="url(#p5f01f9987d)" style="fill: none; stroke: #b0b0b0; stroke-opacity: 0.3; stroke-width: 0.5; stroke-linecap: square"/>
     </g>
     <g id="line2d_12">
      <g>
       <use xlink:href="#m1b940138a0" x="571.715191" y="431.643799" style="stroke: #000000; stroke-width: 2"/>
      </g>
     </g>
     <g id="text_6">
      <!-- 350 -->
      <g transform="translate(553.754236 463.787568) rotate(-45) scale(0.12 -0.12)">
       <use xlink:href="#DejaVuSans-33"/>
       <use xlink:href="#DejaVuSans-35" x="63.623047"/>
       <use xlink:href="#DejaVuSans-30" x="127.246094"/>
      </g>
     </g>
    </g>
    <g id="xtick_7">
     <g id="line2d_13">
      <path d="M 653.385572 431.643799 
L 653.385572 30 
" clip-path="url(#p5f01f9987d)" style="fill: none; stroke: #b0b0b0; stroke-opacity: 0.3; stroke-width: 0.5; stroke-linecap: square"/>
     </g>
     <g id="line2d_14">
      <g>
       <use xlink:href="#m1b940138a0" x="653.385572" y="431.643799" style="stroke: #000000; stroke-width: 2"/>
      </g>
     </g>
     <g id="text_7">
      <!-- 80 -->
      <g transform="translate(640.823378 458.388807) rotate(-45) scale(0.12 -0.12)">
       <defs>
        <path id="DejaVuSans-38" d="M 2034 2216 
Q 1584 2216 1326 1975 
Q 1069 1734 1069 1313 
Q 1069 891 1326 650 
Q 1584 409 2034 409 
Q 2484 409 2743 651 
Q 3003 894 3003 1313 
Q 3003 1734 2745 1975 
Q 2488 2216 2034 2216 
z
M 1403 2484 
Q 997 2584 770 2862 
Q 544 3141 544 3541 
Q 544 4100 942 4425 
Q 1341 4750 2034 4750 
Q 2731 4750 3128 4425 
Q 3525 4100 3525 3541 
Q 3525 3141 3298 2862 
Q 3072 2584 2669 2484 
Q 3125 2378 3379 2068 
Q 3634 1759 3634 1313 
Q 3634 634 3220 271 
Q 2806 -91 2034 -91 
Q 1263 -91 848 271 
Q 434 634 434 1313 
Q 434 1759 690 2068 
Q 947 2378 1403 2484 
z
M 1172 3481 
Q 1172 3119 1398 2916 
Q 1625 2713 2034 2713 
Q 2441 2713 2670 2916 
Q 2900 3119 2900 3481 
Q 2900 3844 2670 4047 
Q 2441 4250 2034 4250 
Q 1625 4250 1398 4047 
Q 1172 3844 1172 3481 
z
" transform="scale(0.015625)"/>
       </defs>
       <use xlink:href="#DejaVuSans-38"/>
       <use xlink:href="#DejaVuSans-30" x="63.623047"/>
      </g>
     </g>
    </g>
    <g id="xtick_8">
     <g id="line2d_15">
      <path d="M 762.279413 431.643799 
L 762.279413 30 
" clip-path="url(#p5f01f9987d)" style="fill: none; stroke: #b0b0b0; stroke-opacity: 0.3; stroke-width: 0.5; stroke-linecap: square"/>
     </g>
     <g id="line2d_16">
      <g>
       <use xlink:href="#m1b940138a0" x="762.279413" y="431.643799" style="stroke: #000000; stroke-width: 2"/>
      </g>
     </g>
     <g id="text_8">
      <!-- 90 -->
      <g transform="translate(749.71722 458.388807) rotate(-45) scale(0.12 -0.12)">
       <defs>
        <path id="DejaVuSans-39" d="M 703 97 
L 703 672 
Q 941 559 1184 500 
Q 1428 441 1663 441 
Q 2288 441 2617 861 
Q 2947 1281 2994 2138 
Q 2813 1869 2534 1725 
Q 2256 1581 1919 1581 
Q 1219 1581 811 2004 
Q 403 2428 403 3163 
Q 403 3881 828 4315 
Q 1253 4750 1959 4750 
Q 2769 4750 3195 4129 
Q 3622 3509 3622 2328 
Q 3622 1225 3098 567 
Q 2575 -91 1691 -91 
Q 1453 -91 1209 -44 
Q 966 3 703 97 
z
M 1959 2075 
Q 2384 2075 2632 2365 
Q 2881 2656 2881 3163 
Q 2881 3666 2632 3958 
Q 2384 4250 1959 4250 
Q 1534 4250 1286 3958 
Q 1038 3666 1038 3163 
Q 1038 2656 1286 2365 
Q 1534 2075 1959 2075 
z
" transform="scale(0.015625)"/>
       </defs>
       <use xlink:href="#DejaVuSans-39"/>
       <use xlink:href="#DejaVuSans-30" x="63.623047"/>
      </g>
     </g>
    </g>
    <g id="xtick_9">
     <g id="line2d_17">
      <path d="M 843.949795 431.643799 
L 843.949795 30 
" clip-path="url(#p5f01f9987d)" style="fill: none; stroke: #b0b0b0; stroke-opacity: 0.3; stroke-width: 0.5; stroke-linecap: square"/>
     </g>
     <g id="line2d_18">
      <g>
       <use xlink:href="#m1b940138a0" x="843.949795" y="431.643799" style="stroke: #000000; stroke-width: 2"/>
      </g>
     </g>
     <g id="text_9">
      <!-- 1,800 -->
      <g transform="translate(817.893352 471.883056) rotate(-45) scale(0.12 -0.12)">
       <defs>
        <path id="DejaVuSans-31" d="M 794 531 
L 1825 531 
L 1825 4091 
L 703 3866 
L 703 4441 
L 1819 4666 
L 2450 4666 
L 2450 531 
L 3481 531 
L 3481 0 
L 794 0 
L 794 531 
z
" transform="scale(0.015625)"/>
        <path id="DejaVuSans-2c" d="M 750 794 
L 1409 794 
L 1409 256 
L 897 -744 
L 494 -744 
L 750 256 
L 750 794 
z
" transform="scale(0.015625)"/>
       </defs>
       <use xlink:href="#DejaVuSans-31"/>
       <use xlink:href="#DejaVuSans-2c" x="63.623047"/>
       <use xlink:href="#DejaVuSans-38" x="95.410156"/>
       <use xlink:href="#DejaVuSans-30" x="159.033203"/>
       <use xlink:href="#DejaVuSans-30" x="222.65625"/>
      </g>
     </g>
    </g>
    <g id="xtick_10">
     <g id="line2d_19">
      <path d="M 952.843636 431.643799 
L 952.843636 30 
" clip-path="url(#p5f01f9987d)" style="fill: none; stroke: #b0b0b0; stroke-opacity: 0.3; stroke-width: 0.5; stroke-linecap: square"/>
     </g>
     <g id="line2d_20">
      <g>
       <use xlink:href="#m1b940138a0" x="952.843636" y="431.643799" style="stroke: #000000; stroke-width: 2"/>
      </g>
     </g>
     <g id="text_10">
      <!-- 2,000 -->
      <g transform="translate(926.787193 471.883056) rotate(-45) scale(0.12 -0.12)">
       <defs>
        <path id="DejaVuSans-32" d="M 1228 531 
L 3431 531 
L 3431 0 
L 469 0 
L 469 531 
Q 828 903 1448 1529 
Q 2069 2156 2228 2338 
Q 2531 2678 2651 2914 
Q 2772 3150 2772 3378 
Q 2772 3750 2511 3984 
Q 2250 4219 1831 4219 
Q 1534 4219 1204 4116 
Q 875 4013 500 3803 
L 500 4441 
Q 881 4594 1212 4672 
Q 1544 4750 1819 4750 
Q 2544 4750 2975 4387 
Q 3406 4025 3406 3419 
Q 3406 3131 3298 2873 
Q 3191 2616 2906 2266 
Q 2828 2175 2409 1742 
Q 1991 1309 1228 531 
z
" transform="scale(0.015625)"/>
       </defs>
       <use xlink:href="#DejaVuSans-32"/>
       <use xlink:href="#DejaVuSans-2c" x="63.623047"/>
       <use xlink:href="#DejaVuSans-30" x="95.410156"/>
       <use xlink:href="#DejaVuSans-30" x="159.033203"/>
       <use xlink:href="#DejaVuSans-30" x="222.65625"/>
      </g>
     </g>
    </g>
    <g id="text_11">
     <!-- Kullanıcı Sayısı -->
     <g transform="translate(471.628281 488.285542) scale(0.14 -0.14)">
      <defs>
       <path id="DejaVuSans-Bold-4b" d="M 588 4666 
L 1791 4666 
L 1791 2963 
L 3525 4666 
L 4922 4666 
L 2675 2456 
L 5153 0 
L 3647 0 
L 1791 1838 
L 1791 0 
L 588 0 
L 588 4666 
z
" transform="scale(0.015625)"/>
       <path id="DejaVuSans-Bold-75" d="M 500 1363 
L 500 3500 
L 1625 3500 
L 1625 3150 
Q 1625 2866 1622 2436 
Q 1619 2006 1619 1863 
Q 1619 1441 1641 1255 
Q 1663 1069 1716 984 
Q 1784 875 1895 815 
Q 2006 756 2150 756 
Q 2500 756 2700 1025 
Q 2900 1294 2900 1772 
L 2900 3500 
L 4019 3500 
L 4019 0 
L 2900 0 
L 2900 506 
Q 2647 200 2364 54 
Q 2081 -91 1741 -91 
Q 1134 -91 817 281 
Q 500 653 500 1363 
z
" transform="scale(0.015625)"/>
       <path id="DejaVuSans-Bold-6c" d="M 538 4863 
L 1656 4863 
L 1656 0 
L 538 0 
L 538 4863 
z
" transform="scale(0.015625)"/>
       <path id="DejaVuSans-Bold-61" d="M 2106 1575 
Q 1756 1575 1579 1456 
Q 1403 1338 1403 1106 
Q 1403 894 1545 773 
Q 1688 653 1941 653 
Q 2256 653 2472 879 
Q 2688 1106 2688 1447 
L 2688 1575 
L 2106 1575 
z
M 3816 1997 
L 3816 0 
L 2688 0 
L 2688 519 
Q 2463 200 2181 54 
Q 1900 -91 1497 -91 
Q 953 -91 614 226 
Q 275 544 275 1050 
Q 275 1666 698 1953 
Q 1122 2241 2028 2241 
L 2688 2241 
L 2688 2328 
Q 2688 2594 2478 2717 
Q 2269 2841 1825 2841 
Q 1466 2841 1156 2769 
Q 847 2697 581 2553 
L 581 3406 
Q 941 3494 1303 3539 
Q 1666 3584 2028 3584 
Q 2975 3584 3395 3211 
Q 3816 2838 3816 1997 
z
" transform="scale(0.015625)"/>
       <path id="DejaVuSans-Bold-6e" d="M 4056 2131 
L 4056 0 
L 2931 0 
L 2931 347 
L 2931 1631 
Q 2931 2084 2911 2256 
Q 2891 2428 2841 2509 
Q 2775 2619 2662 2680 
Q 2550 2741 2406 2741 
Q 2056 2741 1856 2470 
Q 1656 2200 1656 1722 
L 1656 0 
L 538 0 
L 538 3500 
L 1656 3500 
L 1656 2988 
Q 1909 3294 2193 3439 
Q 2478 3584 2822 3584 
Q 3428 3584 3742 3212 
Q 4056 2841 4056 2131 
z
" transform="scale(0.015625)"/>
       <path id="DejaVuSans-Bold-131" d="M 538 3500 
L 1656 3500 
L 1656 0 
L 538 0 
L 538 3500 
z
" transform="scale(0.015625)"/>
       <path id="DejaVuSans-Bold-63" d="M 3366 3391 
L 3366 2478 
Q 3138 2634 2908 2709 
Q 2678 2784 2431 2784 
Q 1963 2784 1702 2511 
Q 1441 2238 1441 1747 
Q 1441 1256 1702 982 
Q 1963 709 2431 709 
Q 2694 709 2930 787 
Q 3166 866 3366 1019 
L 3366 103 
Q 3103 6 2833 -42 
Q 2563 -91 2291 -91 
Q 1344 -91 809 395 
Q 275 881 275 1747 
Q 275 2613 809 3098 
Q 1344 3584 2291 3584 
Q 2566 3584 2833 3536 
Q 3100 3488 3366 3391 
z
" transform="scale(0.015625)"/>
       <path id="DejaVuSans-Bold-20" transform="scale(0.015625)"/>
       <path id="DejaVuSans-Bold-53" d="M 3834 4519 
L 3834 3531 
Q 3450 3703 3084 3790 
Q 2719 3878 2394 3878 
Q 1963 3878 1756 3759 
Q 1550 3641 1550 3391 
Q 1550 3203 1689 3098 
Q 1828 2994 2194 2919 
L 2706 2816 
Q 3484 2659 3812 2340 
Q 4141 2022 4141 1434 
Q 4141 663 3683 286 
Q 3225 -91 2284 -91 
Q 1841 -91 1394 -6 
Q 947 78 500 244 
L 500 1259 
Q 947 1022 1364 901 
Q 1781 781 2169 781 
Q 2563 781 2772 912 
Q 2981 1044 2981 1288 
Q 2981 1506 2839 1625 
Q 2697 1744 2272 1838 
L 1806 1941 
Q 1106 2091 782 2419 
Q 459 2747 459 3303 
Q 459 4000 909 4375 
Q 1359 4750 2203 4750 
Q 2588 4750 2994 4692 
Q 3400 4634 3834 4519 
z
" transform="scale(0.015625)"/>
       <path id="DejaVuSans-Bold-79" d="M 78 3500 
L 1197 3500 
L 2138 1125 
L 2938 3500 
L 4056 3500 
L 2584 -331 
Q 2363 -916 2067 -1148 
Q 1772 -1381 1288 -1381 
L 641 -1381 
L 641 -647 
L 991 -647 
Q 1275 -647 1404 -556 
Q 1534 -466 1606 -231 
L 1638 -134 
L 78 3500 
z
" transform="scale(0.015625)"/>
       <path id="DejaVuSans-Bold-73" d="M 3272 3391 
L 3272 2541 
Q 2913 2691 2578 2766 
Q 2244 2841 1947 2841 
Q 1628 2841 1473 2761 
Q 1319 2681 1319 2516 
Q 1319 2381 1436 2309 
Q 1553 2238 1856 2203 
L 2053 2175 
Q 2913 2066 3209 1816 
Q 3506 1566 3506 1031 
Q 3506 472 3093 190 
Q 2681 -91 1863 -91 
Q 1516 -91 1145 -36 
Q 775 19 384 128 
L 384 978 
Q 719 816 1070 734 
Q 1422 653 1784 653 
Q 2113 653 2278 743 
Q 2444 834 2444 1013 
Q 2444 1163 2330 1236 
Q 2216 1309 1875 1350 
L 1678 1375 
Q 931 1469 631 1722 
Q 331 1975 331 2491 
Q 331 3047 712 3315 
Q 1094 3584 1881 3584 
Q 2191 3584 2531 3537 
Q 2872 3491 3272 3391 
z
" transform="scale(0.015625)"/>
      </defs>
      <use xlink:href="#DejaVuSans-Bold-4b"/>
      <use xlink:href="#DejaVuSans-Bold-75" x="75.740234"/>
      <use xlink:href="#DejaVuSans-Bold-6c" x="146.931641"/>
      <use xlink:href="#DejaVuSans-Bold-6c" x="181.208984"/>
      <use xlink:href="#DejaVuSans-Bold-61" x="215.486328"/>
      <use xlink:href="#DejaVuSans-Bold-6e" x="282.966797"/>
      <use xlink:href="#DejaVuSans-Bold-131" x="354.158203"/>
      <use xlink:href="#DejaVuSans-Bold-63" x="388.435547"/>
      <use xlink:href="#DejaVuSans-Bold-131" x="447.712891"/>
      <use xlink:href="#DejaVuSans-Bold-20" x="481.990234"/>
      <use xlink:href="#DejaVuSans-Bold-53" x="516.804688"/>
      <use xlink:href="#DejaVuSans-Bold-61" x="588.826172"/>
      <use xlink:href="#DejaVuSans-Bold-79" x="653.181641"/>
      <use xlink:href="#DejaVuSans-Bold-131" x="718.367188"/>
      <use xlink:href="#DejaVuSans-Bold-73" x="752.644531"/>
      <use xlink:href="#DejaVuSans-Bold-131" x="812.166016"/>
     </g>
    </g>
   </g>
   <g id="matplotlib.axis_2">
    <g id="ytick_1">
     <g id="line2d_21">
      <path d="M 66.72 413.446268 
L 995.04 413.446268 
" clip-path="url(#p5f01f9987d)" style="fill: none; stroke: #b0b0b0; stroke-opacity: 0.3; stroke-width: 0.5; stroke-linecap: square"/>
     </g>
     <g id="line2d_22">
      <defs>
       <path id="me235cf234e" d="M 0 0 
L -6 0 
" style="stroke: #000000; stroke-width: 2"/>
      </defs>
      <g>
       <use xlink:href="#me235cf234e" x="66.72" y="413.446268" style="stroke: #000000; stroke-width: 2"/>
      </g>
     </g>
     <g id="text_12">
      <!-- 0.00 -->
      <g transform="translate(30.50125 418.00533) scale(0.12 -0.12)">
       <defs>
        <path id="DejaVuSans-2e" d="M 684 794 
L 1344 794 
L 1344 0 
L 684 0 
L 684 794 
z
" transform="scale(0.015625)"/>
       </defs>
       <use xlink:href="#DejaVuSans-30"/>
       <use xlink:href="#DejaVuSans-2e" x="63.623047"/>
       <use xlink:href="#DejaVuSans-30" x="95.410156"/>
       <use xlink:href="#DejaVuSans-30" x="159.033203"/>
      </g>
     </g>
    </g>
    <g id="ytick_2">
     <g id="line2d_23">
      <path d="M 66.72 361.573647 
L 995.04 361.573647 
" clip-path="url(#p5f01f9987d)" style="fill: none; stroke: #b0b0b0; stroke-opacity: 0.3; stroke-width: 0.5; stroke-linecap: square"/>
     </g>
     <g id="line2d_24">
      <g>
       <use xlink:href="#me235cf234e" x="66.72" y="361.573647" style="stroke: #000000; stroke-width: 2"/>
      </g>
     </g>
     <g id="text_13">
      <!-- 0.08 -->
      <g transform="translate(30.50125 366.13271) scale(0.12 -0.12)">
       <use xlink:href="#DejaVuSans-30"/>
       <use xlink:href="#DejaVuSans-2e" x="63.623047"/>
       <use xlink:href="#DejaVuSans-30" x="95.410156"/>
       <use xlink:href="#DejaVuSans-38" x="159.033203"/>
      </g>
     </g>
    </g>
    <g id="ytick_3">
     <g id="line2d_25">
      <path d="M 66.72 309.701027 
L 995.04 309.701027 
" clip-path="url(#p5f01f9987d)" style="fill: none; stroke: #b0b0b0; stroke-opacity: 0.3; stroke-width: 0.5; stroke-linecap: square"/>
     </g>
     <g id="line2d_26">
      <g>
       <use xlink:href="#me235cf234e" x="66.72" y="309.701027" style="stroke: #000000; stroke-width: 2"/>
      </g>
     </g>
     <g id="text_14">
      <!-- 0.16 -->
      <g transform="translate(30.50125 314.260089) scale(0.12 -0.12)">
       <use xlink:href="#DejaVuSans-30"/>
       <use xlink:href="#DejaVuSans-2e" x="63.623047"/>
       <use xlink:href="#DejaVuSans-31" x="95.410156"/>
       <use xlink:href="#DejaVuSans-36" x="159.033203"/>
      </g>
     </g>
    </g>
    <g id="ytick_4">
     <g id="line2d_27">
      <path d="M 66.72 257.828407 
L 995.04 257.828407 
" clip-path="url(#p5f01f9987d)" style="fill: none; stroke: #b0b0b0; stroke-opacity: 0.3; stroke-width: 0.5; stroke-linecap: square"/>
     </g>
     <g id="line2d_28">
      <g>
       <use xlink:href="#me235cf234e" x="66.72" y="257.828407" style="stroke: #000000; stroke-width: 2"/>
      </g>
     </g>
     <g id="text_15">
      <!-- 0.24 -->
      <g transform="translate(30.50125 262.387469) scale(0.12 -0.12)">
       <use xlink:href="#DejaVuSans-30"/>
       <use xlink:href="#DejaVuSans-2e" x="63.623047"/>
       <use xlink:href="#DejaVuSans-32" x="95.410156"/>
       <use xlink:href="#DejaVuSans-34" x="159.033203"/>
      </g>
     </g>
    </g>
    <g id="ytick_5">
     <g id="line2d_29">
      <path d="M 66.72 205.955786 
L 995.04 205.955786 
" clip-path="url(#p5f01f9987d)" style="fill: none; stroke: #b0b0b0; stroke-opacity: 0.3; stroke-width: 0.5; stroke-linecap: square"/>
     </g>
     <g id="line2d_30">
      <g>
       <use xlink:href="#me235cf234e" x="66.72" y="205.955786" style="stroke: #000000; stroke-width: 2"/>
      </g>
     </g>
     <g id="text_16">
      <!-- 0.32 -->
      <g transform="translate(30.50125 210.514849) scale(0.12 -0.12)">
       <use xlink:href="#DejaVuSans-30"/>
       <use xlink:href="#DejaVuSans-2e" x="63.623047"/>
       <use xlink:href="#DejaVuSans-33" x="95.410156"/>
       <use xlink:href="#DejaVuSans-32" x="159.033203"/>
      </g>
     </g>
    </g>
    <g id="ytick_6">
     <g id="line2d_31">
      <path d="M 66.72 154.083166 
L 995.04 154.083166 
" clip-path="url(#p5f01f9987d)" style="fill: none; stroke: #b0b0b0; stroke-opacity: 0.3; stroke-width: 0.5; stroke-linecap: square"/>
     </g>
     <g id="line2d_32">
      <g>
       <use xlink:href="#me235cf234e" x="66.72" y="154.083166" style="stroke: #000000; stroke-width: 2"/>
      </g>
     </g>
     <g id="text_17">
      <!-- 0.40 -->
      <g transform="translate(30.50125 158.642228) scale(0.12 -0.12)">
       <use xlink:href="#DejaVuSans-30"/>
       <use xlink:href="#DejaVuSans-2e" x="63.623047"/>
       <use xlink:href="#DejaVuSans-34" x="95.410156"/>
       <use xlink:href="#DejaVuSans-30" x="159.033203"/>
      </g>
     </g>
    </g>
    <g id="ytick_7">
     <g id="line2d_33">
      <path d="M 66.72 102.210546 
L 995.04 102.210546 
" clip-path="url(#p5f01f9987d)" style="fill: none; stroke: #b0b0b0; stroke-opacity: 0.3; stroke-width: 0.5; stroke-linecap: square"/>
     </g>
     <g id="line2d_34">
      <g>
       <use xlink:href="#me235cf234e" x="66.72" y="102.210546" style="stroke: #000000; stroke-width: 2"/>
      </g>
     </g>
     <g id="text_18">
      <!-- 0.48 -->
      <g transform="translate(30.50125 106.769608) scale(0.12 -0.12)">
       <use xlink:href="#DejaVuSans-30"/>
       <use xlink:href="#DejaVuSans-2e" x="63.623047"/>
       <use xlink:href="#DejaVuSans-34" x="95.410156"/>
       <use xlink:href="#DejaVuSans-38" x="159.033203"/>
      </g>
     </g>
    </g>
    <g id="ytick_8">
     <g id="line2d_35">
      <path d="M 66.72 50.337925 
L 995.04 50.337925 
" clip-path="url(#p5f01f9987d)" style="fill: none; stroke: #b0b0b0; stroke-opacity: 0.3; stroke-width: 0.5; stroke-linecap: square"/>
     </g>
     <g id="line2d_36">
      <g>
       <use xlink:href="#me235cf234e" x="66.72" y="50.337925" style="stroke: #000000; stroke-width: 2"/>
      </g>
     </g>
     <g id="text_19">
      <!-- 0.56 -->
      <g transform="translate(30.50125 54.896988) scale(0.12 -0.12)">
       <use xlink:href="#DejaVuSans-30"/>
       <use xlink:href="#DejaVuSans-2e" x="63.623047"/>
       <use xlink:href="#DejaVuSans-35" x="95.410156"/>
       <use xlink:href="#DejaVuSans-36" x="159.033203"/>
      </g>
     </g>
    </g>
    <g id="text_20">
     <!-- Sorgu Süresi (s) -->
     <g transform="translate(23.480312 294.345806) rotate(-90) scale(0.14 -0.14)">
      <defs>
       <path id="DejaVuSans-Bold-6f" d="M 2203 2784 
Q 1831 2784 1636 2517 
Q 1441 2250 1441 1747 
Q 1441 1244 1636 976 
Q 1831 709 2203 709 
Q 2569 709 2762 976 
Q 2956 1244 2956 1747 
Q 2956 2250 2762 2517 
Q 2569 2784 2203 2784 
z
M 2203 3584 
Q 3106 3584 3614 3096 
Q 4122 2609 4122 1747 
Q 4122 884 3614 396 
Q 3106 -91 2203 -91 
Q 1297 -91 786 396 
Q 275 884 275 1747 
Q 275 2609 786 3096 
Q 1297 3584 2203 3584 
z
" transform="scale(0.015625)"/>
       <path id="DejaVuSans-Bold-72" d="M 3138 2547 
Q 2991 2616 2845 2648 
Q 2700 2681 2553 2681 
Q 2122 2681 1889 2404 
Q 1656 2128 1656 1613 
L 1656 0 
L 538 0 
L 538 3500 
L 1656 3500 
L 1656 2925 
Q 1872 3269 2151 3426 
Q 2431 3584 2822 3584 
Q 2878 3584 2943 3579 
Q 3009 3575 3134 3559 
L 3138 2547 
z
" transform="scale(0.015625)"/>
       <path id="DejaVuSans-Bold-67" d="M 2919 594 
Q 2688 288 2409 144 
Q 2131 0 1766 0 
Q 1125 0 706 504 
Q 288 1009 288 1791 
Q 288 2575 706 3076 
Q 1125 3578 1766 3578 
Q 2131 3578 2409 3434 
Q 2688 3291 2919 2981 
L 2919 3500 
L 4044 3500 
L 4044 353 
Q 4044 -491 3511 -936 
Q 2978 -1381 1966 -1381 
Q 1638 -1381 1331 -1331 
Q 1025 -1281 716 -1178 
L 716 -306 
Q 1009 -475 1290 -558 
Q 1572 -641 1856 -641 
Q 2406 -641 2662 -400 
Q 2919 -159 2919 353 
L 2919 594 
z
M 2181 2772 
Q 1834 2772 1640 2515 
Q 1447 2259 1447 1791 
Q 1447 1309 1634 1061 
Q 1822 813 2181 813 
Q 2531 813 2725 1069 
Q 2919 1325 2919 1791 
Q 2919 2259 2725 2515 
Q 2531 2772 2181 2772 
z
" transform="scale(0.015625)"/>
       <path id="DejaVuSans-Bold-fc" d="M 500 1363 
L 500 3500 
L 1625 3500 
L 1625 3150 
Q 1625 2866 1622 2436 
Q 1619 2006 1619 1863 
Q 1619 1441 1641 1255 
Q 1663 1069 1716 984 
Q 1784 875 1895 815 
Q 2006 756 2150 756 
Q 2500 756 2700 1025 
Q 2900 1294 2900 1772 
L 2900 3500 
L 4019 3500 
L 4019 0 
L 2900 0 
L 2900 506 
Q 2647 200 2364 54 
Q 2081 -91 1741 -91 
Q 1134 -91 817 281 
Q 500 653 500 1363 
z
M 1280 4953 
L 2014 4953 
L 2014 4184 
L 1280 4184 
L 1280 4953 
z
M 2514 4953 
L 3248 4953 
L 3248 4184 
L 2514 4184 
L 2514 4953 
z
" transform="scale(0.015625)"/>
       <path id="DejaVuSans-Bold-65" d="M 4031 1759 
L 4031 1441 
L 1416 1441 
Q 1456 1047 1700 850 
Q 1944 653 2381 653 
Q 2734 653 3104 758 
Q 3475 863 3866 1075 
L 3866 213 
Q 3469 63 3072 -14 
Q 2675 -91 2278 -91 
Q 1328 -91 801 392 
Q 275 875 275 1747 
Q 275 2603 792 3093 
Q 1309 3584 2216 3584 
Q 3041 3584 3536 3087 
Q 4031 2591 4031 1759 
z
M 2881 2131 
Q 2881 2450 2695 2645 
Q 2509 2841 2209 2841 
Q 1884 2841 1681 2658 
Q 1478 2475 1428 2131 
L 2881 2131 
z
" transform="scale(0.015625)"/>
       <path id="DejaVuSans-Bold-69" d="M 538 3500 
L 1656 3500 
L 1656 0 
L 538 0 
L 538 3500 
z
M 538 4863 
L 1656 4863 
L 1656 3950 
L 538 3950 
L 538 4863 
z
" transform="scale(0.015625)"/>
       <path id="DejaVuSans-Bold-28" d="M 2413 -844 
L 1484 -844 
Q 1006 -72 778 623 
Q 550 1319 550 2003 
Q 550 2688 779 3389 
Q 1009 4091 1484 4856 
L 2413 4856 
Q 2013 4116 1813 3408 
Q 1613 2700 1613 2009 
Q 1613 1319 1811 609 
Q 2009 -100 2413 -844 
z
" transform="scale(0.015625)"/>
       <path id="DejaVuSans-Bold-29" d="M 513 -844 
Q 913 -100 1113 609 
Q 1313 1319 1313 2009 
Q 1313 2700 1113 3408 
Q 913 4116 513 4856 
L 1441 4856 
Q 1916 4091 2145 3389 
Q 2375 2688 2375 2003 
Q 2375 1319 2147 623 
Q 1919 -72 1441 -844 
L 513 -844 
z
" transform="scale(0.015625)"/>
      </defs>
      <use xlink:href="#DejaVuSans-Bold-53"/>
      <use xlink:href="#DejaVuSans-Bold-6f" x="72.021484"/>
      <use xlink:href="#DejaVuSans-Bold-72" x="140.722656"/>
      <use xlink:href="#DejaVuSans-Bold-67" x="190.039062"/>
      <use xlink:href="#DejaVuSans-Bold-75" x="261.621094"/>
      <use xlink:href="#DejaVuSans-Bold-20" x="332.8125"/>
      <use xlink:href="#DejaVuSans-Bold-53" x="367.626953"/>
      <use xlink:href="#DejaVuSans-Bold-fc" x="439.648438"/>
      <use xlink:href="#DejaVuSans-Bold-72" x="510.839844"/>
      <use xlink:href="#DejaVuSans-Bold-65" x="560.15625"/>
      <use xlink:href="#DejaVuSans-Bold-73" x="627.978516"/>
      <use xlink:href="#DejaVuSans-Bold-69" x="687.5"/>
      <use xlink:href="#DejaVuSans-Bold-20" x="721.777344"/>
      <use xlink:href="#DejaVuSans-Bold-28" x="756.591797"/>
      <use xlink:href="#DejaVuSans-Bold-73" x="802.294922"/>
      <use xlink:href="#DejaVuSans-Bold-29" x="861.816406"/>
     </g>
    </g>
   </g>
   <g id="line2d_37">
    <path d="M 108.916364 412.775166 
L 136.139824 410.100484 
L 163.363284 407.340212 
L 190.586745 400.446989 
L 217.810205 412.46393 
L 245.033666 410.21201 
L 272.257126 407.427098 
L 299.480587 401.433865 
L 326.704047 412.792024 
L 353.927507 410.145224 
L 381.150968 407.245544 
L 408.374428 401.14273 
L 435.597889 412.87113 
L 462.821349 410.192557 
L 490.044809 407.306495 
L 517.26827 399.649447 
L 544.49173 412.559246 
L 571.715191 410.401993 
L 598.938651 406.864929 
L 626.162111 399.686407 
L 653.385572 412.776462 
L 680.609032 410.425336 
L 707.832493 405.822938 
L 735.055953 398.651548 
L 762.279413 412.867239 
L 789.502874 410.588735 
L 816.726334 405.977907 
L 843.949795 398.741028 
L 871.173255 412.654562 
L 898.396716 410.245727 
L 925.620176 406.227544 
L 952.843636 398.331234 
" clip-path="url(#p5f01f9987d)" style="fill: none; stroke: #e91e63; stroke-width: 2; stroke-linecap: square"/>
    <defs>
     <path id="mf3c1bc451c" d="M 0 2 
C 0.530406 2 1.03916 1.789267 1.414214 1.414214 
C 1.789267 1.03916 2 0.530406 2 0 
C 2 -0.530406 1.789267 -1.03916 1.414214 -1.414214 
C 1.03916 -1.789267 0.530406 -2 0 -2 
C -0.530406 -2 -1.03916 -1.789267 -1.414214 -1.414214 
C -1.789267 -1.03916 -2 -0.530406 -2 0 
C -2 0.530406 -1.789267 1.03916 -1.414214 1.414214 
C -1.03916 1.789267 -0.530406 2 0 2 
z
" style="stroke: #e91e63"/>
    </defs>
    <g clip-path="url(#p5f01f9987d)">
     <use xlink:href="#mf3c1bc451c" x="108.916364" y="412.775166" style="fill: #e91e63; stroke: #e91e63"/>
     <use xlink:href="#mf3c1bc451c" x="136.139824" y="410.100484" style="fill: #e91e63; stroke: #e91e63"/>
     <use xlink:href="#mf3c1bc451c" x="163.363284" y="407.340212" style="fill: #e91e63; stroke: #e91e63"/>
     <use xlink:href="#mf3c1bc451c" x="190.586745" y="400.446989" style="fill: #e91e63; stroke: #e91e63"/>
     <use xlink:href="#mf3c1bc451c" x="217.810205" y="412.46393" style="fill: #e91e63; stroke: #e91e63"/>
     <use xlink:href="#mf3c1bc451c" x="245.033666" y="410.21201" style="fill: #e91e63; stroke: #e91e63"/>
     <use xlink:href="#mf3c1bc451c" x="272.257126" y="407.427098" style="fill: #e91e63; stroke: #e91e63"/>
     <use xlink:href="#mf3c1bc451c" x="299.480587" y="401.433865" style="fill: #e91e63; stroke: #e91e63"/>
     <use xlink:href="#mf3c1bc451c" x="326.704047" y="412.792024" style="fill: #e91e63; stroke: #e91e63"/>
     <use xlink:href="#mf3c1bc451c" x="353.927507" y="410.145224" style="fill: #e91e63; stroke: #e91e63"/>
     <use xlink:href="#mf3c1bc451c" x="381.150968" y="407.245544" style="fill: #e91e63; stroke: #e91e63"/>
     <use xlink:href="#mf3c1bc451c" x="408.374428" y="401.14273" style="fill: #e91e63; stroke: #e91e63"/>
     <use xlink:href="#mf3c1bc451c" x="435.597889" y="412.87113" style="fill: #e91e63; stroke: #e91e63"/>
     <use xlink:href="#mf3c1bc451c" x="462.821349" y="410.192557" style="fill: #e91e63; stroke: #e91e63"/>
     <use xlink:href="#mf3c1bc451c" x="490.044809" y="407.306495" style="fill: #e91e63; stroke: #e91e63"/>
     <use xlink:href="#mf3c1bc451c" x="517.26827" y="399.649447" style="fill: #e91e63; stroke: #e91e63"/>
     <use xlink:href="#mf3c1bc451c" x="544.49173" y="412.559246" style="fill: #e91e63; stroke: #e91e63"/>
     <use xlink:href="#mf3c1bc451c" x="571.715191" y="410.401993" style="fill: #e91e63; stroke: #e91e63"/>
     <use xlink:href="#mf3c1bc451c" x="598.938651" y="406.864929" style="fill: #e91e63; stroke: #e91e63"/>
     <use xlink:href="#mf3c1bc451c" x="626.162111" y="399.686407" style="fill: #e91e63; stroke: #e91e63"/>
     <use xlink:href="#mf3c1bc451c" x="653.385572" y="412.776462" style="fill: #e91e63; stroke: #e91e63"/>
     <use xlink:href="#mf3c1bc451c" x="680.609032" y="410.425336" style="fill: #e91e63; stroke: #e91e63"/>
     <use xlink:href="#mf3c1bc451c" x="707.832493" y="405.822938" style="fill: #e91e63; stroke: #e91e63"/>
     <use xlink:href="#mf3c1bc451c" x="735.055953" y="398.651548" style="fill: #e91e63; stroke: #e91e63"/>
     <use xlink:href="#mf3c1bc451c" x="762.279413" y="412.867239" style="fill: #e91e63; stroke: #e91e63"/>
     <use xlink:href="#mf3c1bc451c" x="789.502874" y="410.588735" style="fill: #e91e63; stroke: #e91e63"/>
     <use xlink:href="#mf3c1bc451c" x="816.726334" y="405.977907" style="fill: #e91e63; stroke: #e91e63"/>
     <use xlink:href="#mf3c1bc451c" x="843.949795" y="398.741028" style="fill: #e91e63; stroke: #e91e63"/>
     <use xlink:href="#mf3c1bc451c" x="871.173255" y="412.654562" style="fill: #e91e63; stroke: #e91e63"/>
     <use xlink:href="#mf3c1bc451c" x="898.396716" y="410.245727" style="fill: #e91e63; stroke: #e91e63"/>
     <use xlink:href="#mf3c1bc451c" x="925.620176" y="406.227544" style="fill: #e91e63; stroke: #e91e63"/>
     <use xlink:href="#mf3c1bc451c" x="952.843636" y="398.331234" style="fill: #e91e63; stroke: #e91e63"/>
    </g>
   </g>
   <g id="line2d_38">
    <path d="M 108.916364 413.343819 
L 136.139824 413.347061 
L 163.363284 413.30686 
L 190.586745 413.313992 
L 217.810205 413.381427 
L 245.033666 413.293892 
L 272.257126 413.387262 
L 299.480587 413.345764 
L 326.704047 413.386614 
L 353.927507 413.332148 
L 381.150968 413.280924 
L 408.374428 413.336038 
L 435.597889 413.315938 
L 462.821349 413.345764 
L 490.044809 413.232941 
L 517.26827 413.314641 
L 544.49173 413.344468 
L 571.715191 413.296485 
L 598.938651 413.29065 
L 626.162111 413.213489 
L 653.385572 413.327609 
L 680.609032 413.356139 
L 707.832493 413.306211 
L 735.055953 413.18042 
L 762.279413 413.354194 
L 789.502874 413.376888 
L 816.726334 413.346413 
L 843.949795 413.29454 
L 871.173255 413.38013 
L 898.396716 413.330851 
L 925.620176 413.234238 
L 952.843636 413.334093 
" clip-path="url(#p5f01f9987d)" style="fill: none; stroke: #ff9800; stroke-width: 2; stroke-linecap: square"/>
    <defs>
     <path id="mb6ff0e9f06" d="M 0 2 
C 0.530406 2 1.03916 1.789267 1.414214 1.414214 
C 1.789267 1.03916 2 0.530406 2 0 
C 2 -0.530406 1.789267 -1.03916 1.414214 -1.414214 
C 1.03916 -1.789267 0.530406 -2 0 -2 
C -0.530406 -2 -1.03916 -1.789267 -1.414214 -1.414214 
C -1.789267 -1.03916 -2 -0.530406 -2 0 
C -2 0.530406 -1.789267 1.03916 -1.414214 1.414214 
C -1.03916 1.789267 -0.530406 2 0 2 
z
" style="stroke: #ff9800"/>
    </defs>
    <g clip-path="url(#p5f01f9987d)">
     <use xlink:href="#mb6ff0e9f06" x="108.916364" y="413.343819" style="fill: #ff9800; stroke: #ff9800"/>
     <use xlink:href="#mb6ff0e9f06" x="136.139824" y="413.347061" style="fill: #ff9800; stroke: #ff9800"/>
     <use xlink:href="#mb6ff0e9f06" x="163.363284" y="413.30686" style="fill: #ff9800; stroke: #ff9800"/>
     <use xlink:href="#mb6ff0e9f06" x="190.586745" y="413.313992" style="fill: #ff9800; stroke: #ff9800"/>
     <use xlink:href="#mb6ff0e9f06" x="217.810205" y="413.381427" style="fill: #ff9800; stroke: #ff9800"/>
     <use xlink:href="#mb6ff0e9f06" x="245.033666" y="413.293892" style="fill: #ff9800; stroke: #ff9800"/>
     <use xlink:href="#mb6ff0e9f06" x="272.257126" y="413.387262" style="fill: #ff9800; stroke: #ff9800"/>
     <use xlink:href="#mb6ff0e9f06" x="299.480587" y="413.345764" style="fill: #ff9800; stroke: #ff9800"/>
     <use xlink:href="#mb6ff0e9f06" x="326.704047" y="413.386614" style="fill: #ff9800; stroke: #ff9800"/>
     <use xlink:href="#mb6ff0e9f06" x="353.927507" y="413.332148" style="fill: #ff9800; stroke: #ff9800"/>
     <use xlink:href="#mb6ff0e9f06" x="381.150968" y="413.280924" style="fill: #ff9800; stroke: #ff9800"/>
     <use xlink:href="#mb6ff0e9f06" x="408.374428" y="413.336038" style="fill: #ff9800; stroke: #ff9800"/>
     <use xlink:href="#mb6ff0e9f06" x="435.597889" y="413.315938" style="fill: #ff9800; stroke: #ff9800"/>
     <use xlink:href="#mb6ff0e9f06" x="462.821349" y="413.345764" style="fill: #ff9800; stroke: #ff9800"/>
     <use xlink:href="#mb6ff0e9f06" x="490.044809" y="413.232941" style="fill: #ff9800; stroke: #ff9800"/>
     <use xlink:href="#mb6ff0e9f06" x="517.26827" y="413.314641" style="fill: #ff9800; stroke: #ff9800"/>
     <use xlink:href="#mb6ff0e9f06" x="544.49173" y="413.344468" style="fill: #ff9800; stroke: #ff9800"/>
     <use xlink:href="#mb6ff0e9f06" x="571.715191" y="413.296485" style="fill: #ff9800; stroke: #ff9800"/>
     <use xlink:href="#mb6ff0e9f06" x="598.938651" y="413.29065" style="fill: #ff9800; stroke: #ff9800"/>
     <use xlink:href="#mb6ff0e9f06" x="626.162111" y="413.213489" style="fill: #ff9800; stroke: #ff9800"/>
     <use xlink:href="#mb6ff0e9f06" x="653.385572" y="413.327609" style="fill: #ff9800; stroke: #ff9800"/>
     <use xlink:href="#mb6ff0e9f06" x="680.609032" y="413.356139" style="fill: #ff9800; stroke: #ff9800"/>
     <use xlink:href="#mb6ff0e9f06" x="707.832493" y="413.306211" style="fill: #ff9800; stroke: #ff9800"/>
     <use xlink:href="#mb6ff0e9f06" x="735.055953" y="413.18042" style="fill: #ff9800; stroke: #ff9800"/>
     <use xlink:href="#mb6ff0e9f06" x="762.279413" y="413.354194" style="fill: #ff9800; stroke: #ff9800"/>
     <use xlink:href="#mb6ff0e9f06" x="789.502874" y="413.376888" style="fill: #ff9800; stroke: #ff9800"/>
     <use xlink:href="#mb6ff0e9f06" x="816.726334" y="413.346413" style="fill: #ff9800; stroke: #ff9800"/>
     <use xlink:href="#mb6ff0e9f06" x="843.949795" y="413.29454" style="fill: #ff9800; stroke: #ff9800"/>
     <use xlink:href="#mb6ff0e9f06" x="871.173255" y="413.38013" style="fill: #ff9800; stroke: #ff9800"/>
     <use xlink:href="#mb6ff0e9f06" x="898.396716" y="413.330851" style="fill: #ff9800; stroke: #ff9800"/>
     <use xlink:href="#mb6ff0e9f06" x="925.620176" y="413.234238" style="fill: #ff9800; stroke: #ff9800"/>
     <use xlink:href="#mb6ff0e9f06" x="952.843636" y="413.334093" style="fill: #ff9800; stroke: #ff9800"/>
    </g>
   </g>
   <g id="line2d_39">
    <path d="M 108.916364 413.286111 
L 136.139824 412.782946 
L 163.363284 412.200676 
L 190.586745 410.929149 
L 217.810205 413.228403 
L 245.033666 412.518396 
L 272.257126 411.659256 
L 299.480587 409.953943 
L 326.704047 413.133735 
L 353.927507 412.393902 
L 381.150968 411.231307 
L 408.374428 408.828308 
L 435.597889 413.194685 
L 462.821349 412.11768 
L 490.044809 410.843559 
L 517.26827 407.870609 
L 544.49173 413.112338 
L 571.715191 412.028848 
L 598.938651 409.133708 
L 626.162111 406.23338 
L 653.385572 412.945697 
L 680.609032 411.707886 
L 707.832493 409.992199 
L 735.055953 404.51899 
L 762.279413 412.943103 
L 789.502874 411.470569 
L 816.726334 409.805458 
L 843.949795 404.115032 
L 871.173255 412.963204 
L 898.396716 411.231307 
L 925.620176 408.087826 
L 952.843636 402.404532 
" clip-path="url(#p5f01f9987d)" style="fill: none; stroke: #9c27b0; stroke-width: 2; stroke-linecap: square"/>
    <defs>
     <path id="m28281a2165" d="M 0 2 
C 0.530406 2 1.03916 1.789267 1.414214 1.414214 
C 1.789267 1.03916 2 0.530406 2 0 
C 2 -0.530406 1.789267 -1.03916 1.414214 -1.414214 
C 1.03916 -1.789267 0.530406 -2 0 -2 
C -0.530406 -2 -1.03916 -1.789267 -1.414214 -1.414214 
C -1.789267 -1.03916 -2 -0.530406 -2 0 
C -2 0.530406 -1.789267 1.03916 -1.414214 1.414214 
C -1.03916 1.789267 -0.530406 2 0 2 
z
" style="stroke: #9c27b0"/>
    </defs>
    <g clip-path="url(#p5f01f9987d)">
     <use xlink:href="#m28281a2165" x="108.916364" y="413.286111" style="fill: #9c27b0; stroke: #9c27b0"/>
     <use xlink:href="#m28281a2165" x="136.139824" y="412.782946" style="fill: #9c27b0; stroke: #9c27b0"/>
     <use xlink:href="#m28281a2165" x="163.363284" y="412.200676" style="fill: #9c27b0; stroke: #9c27b0"/>
     <use xlink:href="#m28281a2165" x="190.586745" y="410.929149" style="fill: #9c27b0; stroke: #9c27b0"/>
     <use xlink:href="#m28281a2165" x="217.810205" y="413.228403" style="fill: #9c27b0; stroke: #9c27b0"/>
     <use xlink:href="#m28281a2165" x="245.033666" y="412.518396" style="fill: #9c27b0; stroke: #9c27b0"/>
     <use xlink:href="#m28281a2165" x="272.257126" y="411.659256" style="fill: #9c27b0; stroke: #9c27b0"/>
     <use xlink:href="#m28281a2165" x="299.480587" y="409.953943" style="fill: #9c27b0; stroke: #9c27b0"/>
     <use xlink:href="#m28281a2165" x="326.704047" y="413.133735" style="fill: #9c27b0; stroke: #9c27b0"/>
     <use xlink:href="#m28281a2165" x="353.927507" y="412.393902" style="fill: #9c27b0; stroke: #9c27b0"/>
     <use xlink:href="#m28281a2165" x="381.150968" y="411.231307" style="fill: #9c27b0; stroke: #9c27b0"/>
     <use xlink:href="#m28281a2165" x="408.374428" y="408.828308" style="fill: #9c27b0; stroke: #9c27b0"/>
     <use xlink:href="#m28281a2165" x="435.597889" y="413.194685" style="fill: #9c27b0; stroke: #9c27b0"/>
     <use xlink:href="#m28281a2165" x="462.821349" y="412.11768" style="fill: #9c27b0; stroke: #9c27b0"/>
     <use xlink:href="#m28281a2165" x="490.044809" y="410.843559" style="fill: #9c27b0; stroke: #9c27b0"/>
     <use xlink:href="#m28281a2165" x="517.26827" y="407.870609" style="fill: #9c27b0; stroke: #9c27b0"/>
     <use xlink:href="#m28281a2165" x="544.49173" y="413.112338" style="fill: #9c27b0; stroke: #9c27b0"/>
     <use xlink:href="#m28281a2165" x="571.715191" y="412.028848" style="fill: #9c27b0; stroke: #9c27b0"/>
     <use xlink:href="#m28281a2165" x="598.938651" y="409.133708" style="fill: #9c27b0; stroke: #9c27b0"/>
     <use xlink:href="#m28281a2165" x="626.162111" y="406.23338" style="fill: #9c27b0; stroke: #9c27b0"/>
     <use xlink:href="#m28281a2165" x="653.385572" y="412.945697" style="fill: #9c27b0; stroke: #9c27b0"/>
     <use xlink:href="#m28281a2165" x="680.609032" y="411.707886" style="fill: #9c27b0; stroke: #9c27b0"/>
     <use xlink:href="#m28281a2165" x="707.832493" y="409.992199" style="fill: #9c27b0; stroke: #9c27b0"/>
     <use xlink:href="#m28281a2165" x="735.055953" y="404.51899" style="fill: #9c27b0; stroke: #9c27b0"/>
     <use xlink:href="#m28281a2165" x="762.279413" y="412.943103" style="fill: #9c27b0; stroke: #9c27b0"/>
     <use xlink:href="#m28281a2165" x="789.502874" y="411.470569" style="fill: #9c27b0; stroke: #9c27b0"/>
     <use xlink:href="#m28281a2165" x="816.726334" y="409.805458" style="fill: #9c27b0; stroke: #9c27b0"/>
     <use xlink:href="#m28281a2165" x="843.949795" y="404.115032" style="fill: #9c27b0; stroke: #9c27b0"/>
     <use xlink:href="#m28281a2165" x="871.173255" y="412.963204" style="fill: #9c27b0; stroke: #9c27b0"/>
     <use xlink:href="#m28281a2165" x="898.396716" y="411.231307" style="fill: #9c27b0; stroke: #9c27b0"/>
     <use xlink:href="#m28281a2165" x="925.620176" y="408.087826" style="fill: #9c27b0; stroke: #9c27b0"/>
     <use xlink:href="#m28281a2165" x="952.843636" y="402.404532" style="fill: #9c27b0; stroke: #9c27b0"/>
    </g>
   </g>
   <g id="line2d_40">
    <path d="M 108.916364 413.246558 
L 136.139824 412.812125 
L 163.363284 412.371856 
L 190.586745 411.434258 
L 217.810205 413.216731 
L 245.033666 412.677256 
L 272.257126 412.07683 
L 299.480587 410.75343 
L 326.704047 413.19274 
L 353.927507 412.46782 
L 381.150968 411.69427 
L 408.374428 409.932546 
L 435.597889 413.236832 
L 462.821349 412.345271 
L 490.044809 411.272156 
L 517.26827 408.389335 
L 544.49173 413.179124 
L 571.715191 412.1501 
L 598.938651 410.693128 
L 626.162111 407.495181 
L 653.385572 413.034529 
L 680.609032 411.993186 
L 707.832493 410.650982 
L 735.055953 405.54088 
L 762.279413 413.094831 
L 789.502874 411.838216 
L 816.726334 410.317052 
L 843.949795 405.664726 
L 871.173255 412.943103 
L 898.396716 411.630726 
L 925.620176 409.861869 
L 952.843636 403.65531 
" clip-path="url(#p5f01f9987d)" style="fill: none; stroke: #00bcd4; stroke-width: 2; stroke-linecap: square"/>
    <defs>
     <path id="m296b2cf1e5" d="M 0 2 
C 0.530406 2 1.03916 1.789267 1.414214 1.414214 
C 1.789267 1.03916 2 0.530406 2 0 
C 2 -0.530406 1.789267 -1.03916 1.414214 -1.414214 
C 1.03916 -1.789267 0.530406 -2 0 -2 
C -0.530406 -2 -1.03916 -1.789267 -1.414214 -1.414214 
C -1.789267 -1.03916 -2 -0.530406 -2 0 
C -2 0.530406 -1.789267 1.03916 -1.414214 1.414214 
C -1.03916 1.789267 -0.530406 2 0 2 
z
" style="stroke: #00bcd4"/>
    </defs>
    <g clip-path="url(#p5f01f9987d)">
     <use xlink:href="#m296b2cf1e5" x="108.916364" y="413.246558" style="fill: #00bcd4; stroke: #00bcd4"/>
     <use xlink:href="#m296b2cf1e5" x="136.139824" y="412.812125" style="fill: #00bcd4; stroke: #00bcd4"/>
     <use xlink:href="#m296b2cf1e5" x="163.363284" y="412.371856" style="fill: #00bcd4; stroke: #00bcd4"/>
     <use xlink:href="#m296b2cf1e5" x="190.586745" y="411.434258" style="fill: #00bcd4; stroke: #00bcd4"/>
     <use xlink:href="#m296b2cf1e5" x="217.810205" y="413.216731" style="fill: #00bcd4; stroke: #00bcd4"/>
     <use xlink:href="#m296b2cf1e5" x="245.033666" y="412.677256" style="fill: #00bcd4; stroke: #00bcd4"/>
     <use xlink:href="#m296b2cf1e5" x="272.257126" y="412.07683" style="fill: #00bcd4; stroke: #00bcd4"/>
     <use xlink:href="#m296b2cf1e5" x="299.480587" y="410.75343" style="fill: #00bcd4; stroke: #00bcd4"/>
     <use xlink:href="#m296b2cf1e5" x="326.704047" y="413.19274" style="fill: #00bcd4; stroke: #00bcd4"/>
     <use xlink:href="#m296b2cf1e5" x="353.927507" y="412.46782" style="fill: #00bcd4; stroke: #00bcd4"/>
     <use xlink:href="#m296b2cf1e5" x="381.150968" y="411.69427" style="fill: #00bcd4; stroke: #00bcd4"/>
     <use xlink:href="#m296b2cf1e5" x="408.374428" y="409.932546" style="fill: #00bcd4; stroke: #00bcd4"/>
     <use xlink:href="#m296b2cf1e5" x="435.597889" y="413.236832" style="fill: #00bcd4; stroke: #00bcd4"/>
     <use xlink:href="#m296b2cf1e5" x="462.821349" y="412.345271" style="fill: #00bcd4; stroke: #00bcd4"/>
     <use xlink:href="#m296b2cf1e5" x="490.044809" y="411.272156" style="fill: #00bcd4; stroke: #00bcd4"/>
     <use xlink:href="#m296b2cf1e5" x="517.26827" y="408.389335" style="fill: #00bcd4; stroke: #00bcd4"/>
     <use xlink:href="#m296b2cf1e5" x="544.49173" y="413.179124" style="fill: #00bcd4; stroke: #00bcd4"/>
     <use xlink:href="#m296b2cf1e5" x="571.715191" y="412.1501" style="fill: #00bcd4; stroke: #00bcd4"/>
     <use xlink:href="#m296b2cf1e5" x="598.938651" y="410.693128" style="fill: #00bcd4; stroke: #00bcd4"/>
     <use xlink:href="#m296b2cf1e5" x="626.162111" y="407.495181" style="fill: #00bcd4; stroke: #00bcd4"/>
     <use xlink:href="#m296b2cf1e5" x="653.385572" y="413.034529" style="fill: #00bcd4; stroke: #00bcd4"/>
     <use xlink:href="#m296b2cf1e5" x="680.609032" y="411.993186" style="fill: #00bcd4; stroke: #00bcd4"/>
     <use xlink:href="#m296b2cf1e5" x="707.832493" y="410.650982" style="fill: #00bcd4; stroke: #00bcd4"/>
     <use xlink:href="#m296b2cf1e5" x="735.055953" y="405.54088" style="fill: #00bcd4; stroke: #00bcd4"/>
     <use xlink:href="#m296b2cf1e5" x="762.279413" y="413.094831" style="fill: #00bcd4; stroke: #00bcd4"/>
     <use xlink:href="#m296b2cf1e5" x="789.502874" y="411.838216" style="fill: #00bcd4; stroke: #00bcd4"/>
     <use xlink:href="#m296b2cf1e5" x="816.726334" y="410.317052" style="fill: #00bcd4; stroke: #00bcd4"/>
     <use xlink:href="#m296b2cf1e5" x="843.949795" y="405.664726" style="fill: #00bcd4; stroke: #00bcd4"/>
     <use xlink:href="#m296b2cf1e5" x="871.173255" y="412.943103" style="fill: #00bcd4; stroke: #00bcd4"/>
     <use xlink:href="#m296b2cf1e5" x="898.396716" y="411.630726" style="fill: #00bcd4; stroke: #00bcd4"/>
     <use xlink:href="#m296b2cf1e5" x="925.620176" y="409.861869" style="fill: #00bcd4; stroke: #00bcd4"/>
     <use xlink:href="#m296b2cf1e5" x="952.843636" y="403.65531" style="fill: #00bcd4; stroke: #00bcd4"/>
    </g>
   </g>
   <g id="line2d_41">
    <path d="M 108.916364 412.642242 
L 136.139824 410.336504 
L 163.363284 406.755348 
L 190.586745 399.541163 
L 217.810205 412.478195 
L 245.033666 408.74596 
L 272.257126 405.105799 
L 299.480587 395.537894 
L 326.704047 412.270704 
L 353.927507 407.882281 
L 381.150968 402.106913 
L 408.374428 386.28706 
L 435.597889 412.183169 
L 462.821349 407.243599 
L 490.044809 400.246631 
L 517.26827 382.154758 
L 544.49173 411.869988 
L 571.715191 406.170484 
L 598.938651 398.07252 
L 626.162111 370.880244 
L 653.385572 411.682598 
L 680.609032 405.043551 
L 707.832493 396.690114 
L 735.055953 370.646169 
L 762.279413 411.573666 
L 789.502874 403.942555 
L 816.726334 394.232001 
L 843.949795 365.740315 
L 871.173255 411.322732 
L 898.396716 401.990199 
L 925.620176 388.352239 
L 952.843636 359.236137 
" clip-path="url(#p5f01f9987d)" style="fill: none; stroke: #8bc34a; stroke-width: 2; stroke-linecap: square"/>
    <defs>
     <path id="me0392dc98e" d="M 0 2 
C 0.530406 2 1.03916 1.789267 1.414214 1.414214 
C 1.789267 1.03916 2 0.530406 2 0 
C 2 -0.530406 1.789267 -1.03916 1.414214 -1.414214 
C 1.03916 -1.789267 0.530406 -2 0 -2 
C -0.530406 -2 -1.03916 -1.789267 -1.414214 -1.414214 
C -1.789267 -1.03916 -2 -0.530406 -2 0 
C -2 0.530406 -1.789267 1.03916 -1.414214 1.414214 
C -1.03916 1.789267 -0.530406 2 0 2 
z
" style="stroke: #8bc34a"/>
    </defs>
    <g clip-path="url(#p5f01f9987d)">
     <use xlink:href="#me0392dc98e" x="108.916364" y="412.642242" style="fill: #8bc34a; stroke: #8bc34a"/>
     <use xlink:href="#me0392dc98e" x="136.139824" y="410.336504" style="fill: #8bc34a; stroke: #8bc34a"/>
     <use xlink:href="#me0392dc98e" x="163.363284" y="406.755348" style="fill: #8bc34a; stroke: #8bc34a"/>
     <use xlink:href="#me0392dc98e" x="190.586745" y="399.541163" style="fill: #8bc34a; stroke: #8bc34a"/>
     <use xlink:href="#me0392dc98e" x="217.810205" y="412.478195" style="fill: #8bc34a; stroke: #8bc34a"/>
     <use xlink:href="#me0392dc98e" x="245.033666" y="408.74596" style="fill: #8bc34a; stroke: #8bc34a"/>
     <use xlink:href="#me0392dc98e" x="272.257126" y="405.105799" style="fill: #8bc34a; stroke: #8bc34a"/>
     <use xlink:href="#me0392dc98e" x="299.480587" y="395.537894" style="fill: #8bc34a; stroke: #8bc34a"/>
     <use xlink:href="#me0392dc98e" x="326.704047" y="412.270704" style="fill: #8bc34a; stroke: #8bc34a"/>
     <use xlink:href="#me0392dc98e" x="353.927507" y="407.882281" style="fill: #8bc34a; stroke: #8bc34a"/>
     <use xlink:href="#me0392dc98e" x="381.150968" y="402.106913" style="fill: #8bc34a; stroke: #8bc34a"/>
     <use xlink:href="#me0392dc98e" x="408.374428" y="386.28706" style="fill: #8bc34a; stroke: #8bc34a"/>
     <use xlink:href="#me0392dc98e" x="435.597889" y="412.183169" style="fill: #8bc34a; stroke: #8bc34a"/>
     <use xlink:href="#me0392dc98e" x="462.821349" y="407.243599" style="fill: #8bc34a; stroke: #8bc34a"/>
     <use xlink:href="#me0392dc98e" x="490.044809" y="400.246631" style="fill: #8bc34a; stroke: #8bc34a"/>
     <use xlink:href="#me0392dc98e" x="517.26827" y="382.154758" style="fill: #8bc34a; stroke: #8bc34a"/>
     <use xlink:href="#me0392dc98e" x="544.49173" y="411.869988" style="fill: #8bc34a; stroke: #8bc34a"/>
     <use xlink:href="#me0392dc98e" x="571.715191" y="406.170484" style="fill: #8bc34a; stroke: #8bc34a"/>
     <use xlink:href="#me0392dc98e" x="598.938651" y="398.07252" style="fill: #8bc34a; stroke: #8bc34a"/>
     <use xlink:href="#me0392dc98e" x="626.162111" y="370.880244" style="fill: #8bc34a; stroke: #8bc34a"/>
     <use xlink:href="#me0392dc98e" x="653.385572" y="411.682598" style="fill: #8bc34a; stroke: #8bc34a"/>
     <use xlink:href="#me0392dc98e" x="680.609032" y="405.043551" style="fill: #8bc34a; stroke: #8bc34a"/>
     <use xlink:href="#me0392dc98e" x="707.832493" y="396.690114" style="fill: #8bc34a; stroke: #8bc34a"/>
     <use xlink:href="#me0392dc98e" x="735.055953" y="370.646169" style="fill: #8bc34a; stroke: #8bc34a"/>
     <use xlink:href="#me0392dc98e" x="762.279413" y="411.573666" style="fill: #8bc34a; stroke: #8bc34a"/>
     <use xlink:href="#me0392dc98e" x="789.502874" y="403.942555" style="fill: #8bc34a; stroke: #8bc34a"/>
     <use xlink:href="#me0392dc98e" x="816.726334" y="394.232001" style="fill: #8bc34a; stroke: #8bc34a"/>
     <use xlink:href="#me0392dc98e" x="843.949795" y="365.740315" style="fill: #8bc34a; stroke: #8bc34a"/>
     <use xlink:href="#me0392dc98e" x="871.173255" y="411.322732" style="fill: #8bc34a; stroke: #8bc34a"/>
     <use xlink:href="#me0392dc98e" x="898.396716" y="401.990199" style="fill: #8bc34a; stroke: #8bc34a"/>
     <use xlink:href="#me0392dc98e" x="925.620176" y="388.352239" style="fill: #8bc34a; stroke: #8bc34a"/>
     <use xlink:href="#me0392dc98e" x="952.843636" y="359.236137" style="fill: #8bc34a; stroke: #8bc34a"/>
    </g>
   </g>
   <g id="line2d_42">
    <path d="M 108.916364 412.778408 
L 136.139824 407.645612 
L 163.363284 393.456505 
L 190.586745 327.891458 
L 217.810205 412.65521 
L 245.033666 404.784188 
L 272.257126 387.262266 
L 299.480587 286.820662 
L 326.704047 412.768681 
L 353.927507 403.592415 
L 381.150968 409.235508 
L 408.374428 240.957485 
L 435.597889 412.757659 
L 462.821349 403.561291 
L 490.044809 371.830161 
L 517.26827 236.357032 
L 544.49173 412.52488 
L 571.715191 401.702306 
L 598.938651 364.294366 
L 626.162111 184.191332 
L 653.385572 412.526825 
L 680.609032 399.44066 
L 707.832493 408.755686 
L 735.055953 136.597554 
L 762.279413 412.62279 
L 789.502874 397.981743 
L 816.726334 408.500862 
L 843.949795 93.894068 
L 871.173255 412.393902 
L 898.396716 410.621155 
L 925.620176 327.534185 
L 952.843636 48.256536 
" clip-path="url(#p5f01f9987d)" style="fill: none; stroke: #ff5722; stroke-width: 2; stroke-linecap: square"/>
    <defs>
     <path id="mc46be15182" d="M 0 2 
C 0.530406 2 1.03916 1.789267 1.414214 1.414214 
C 1.789267 1.03916 2 0.530406 2 0 
C 2 -0.530406 1.789267 -1.03916 1.414214 -1.414214 
C 1.03916 -1.789267 0.530406 -2 0 -2 
C -0.530406 -2 -1.03916 -1.789267 -1.414214 -1.414214 
C -1.789267 -1.03916 -2 -0.530406 -2 0 
C -2 0.530406 -1.789267 1.03916 -1.414214 1.414214 
C -1.03916 1.789267 -0.530406 2 0 2 
z
" style="stroke: #ff5722"/>
    </defs>
    <g clip-path="url(#p5f01f9987d)">
     <use xlink:href="#mc46be15182" x="108.916364" y="412.778408" style="fill: #ff5722; stroke: #ff5722"/>
     <use xlink:href="#mc46be15182" x="136.139824" y="407.645612" style="fill: #ff5722; stroke: #ff5722"/>
     <use xlink:href="#mc46be15182" x="163.363284" y="393.456505" style="fill: #ff5722; stroke: #ff5722"/>
     <use xlink:href="#mc46be15182" x="190.586745" y="327.891458" style="fill: #ff5722; stroke: #ff5722"/>
     <use xlink:href="#mc46be15182" x="217.810205" y="412.65521" style="fill: #ff5722; stroke: #ff5722"/>
     <use xlink:href="#mc46be15182" x="245.033666" y="404.784188" style="fill: #ff5722; stroke: #ff5722"/>
     <use xlink:href="#mc46be15182" x="272.257126" y="387.262266" style="fill: #ff5722; stroke: #ff5722"/>
     <use xlink:href="#mc46be15182" x="299.480587" y="286.820662" style="fill: #ff5722; stroke: #ff5722"/>
     <use xlink:href="#mc46be15182" x="326.704047" y="412.768681" style="fill: #ff5722; stroke: #ff5722"/>
     <use xlink:href="#mc46be15182" x="353.927507" y="403.592415" style="fill: #ff5722; stroke: #ff5722"/>
     <use xlink:href="#mc46be15182" x="381.150968" y="409.235508" style="fill: #ff5722; stroke: #ff5722"/>
     <use xlink:href="#mc46be15182" x="408.374428" y="240.957485" style="fill: #ff5722; stroke: #ff5722"/>
     <use xlink:href="#mc46be15182" x="435.597889" y="412.757659" style="fill: #ff5722; stroke: #ff5722"/>
     <use xlink:href="#mc46be15182" x="462.821349" y="403.561291" style="fill: #ff5722; stroke: #ff5722"/>
     <use xlink:href="#mc46be15182" x="490.044809" y="371.830161" style="fill: #ff5722; stroke: #ff5722"/>
     <use xlink:href="#mc46be15182" x="517.26827" y="236.357032" style="fill: #ff5722; stroke: #ff5722"/>
     <use xlink:href="#mc46be15182" x="544.49173" y="412.52488" style="fill: #ff5722; stroke: #ff5722"/>
     <use xlink:href="#mc46be15182" x="571.715191" y="401.702306" style="fill: #ff5722; stroke: #ff5722"/>
     <use xlink:href="#mc46be15182" x="598.938651" y="364.294366" style="fill: #ff5722; stroke: #ff5722"/>
     <use xlink:href="#mc46be15182" x="626.162111" y="184.191332" style="fill: #ff5722; stroke: #ff5722"/>
     <use xlink:href="#mc46be15182" x="653.385572" y="412.526825" style="fill: #ff5722; stroke: #ff5722"/>
     <use xlink:href="#mc46be15182" x="680.609032" y="399.44066" style="fill: #ff5722; stroke: #ff5722"/>
     <use xlink:href="#mc46be15182" x="707.832493" y="408.755686" style="fill: #ff5722; stroke: #ff5722"/>
     <use xlink:href="#mc46be15182" x="735.055953" y="136.597554" style="fill: #ff5722; stroke: #ff5722"/>
     <use xlink:href="#mc46be15182" x="762.279413" y="412.62279" style="fill: #ff5722; stroke: #ff5722"/>
     <use xlink:href="#mc46be15182" x="789.502874" y="397.981743" style="fill: #ff5722; stroke: #ff5722"/>
     <use xlink:href="#mc46be15182" x="816.726334" y="408.500862" style="fill: #ff5722; stroke: #ff5722"/>
     <use xlink:href="#mc46be15182" x="843.949795" y="93.894068" style="fill: #ff5722; stroke: #ff5722"/>
     <use xlink:href="#mc46be15182" x="871.173255" y="412.393902" style="fill: #ff5722; stroke: #ff5722"/>
     <use xlink:href="#mc46be15182" x="898.396716" y="410.621155" style="fill: #ff5722; stroke: #ff5722"/>
     <use xlink:href="#mc46be15182" x="925.620176" y="327.534185" style="fill: #ff5722; stroke: #ff5722"/>
     <use xlink:href="#mc46be15182" x="952.843636" y="48.256536" style="fill: #ff5722; stroke: #ff5722"/>
    </g>
   </g>
   <g id="patch_3">
    <path d="M 66.72 431.643799 
L 66.72 30 
" style="fill: none; stroke: #000000; stroke-width: 2.5; stroke-linejoin: miter; stroke-linecap: square"/>
   </g>
   <g id="patch_4">
    <path d="M 66.72 431.643799 
L 995.04 431.643799 
" style="fill: none; stroke: #000000; stroke-width: 2.5; stroke-linejoin: miter; stroke-linecap: square"/>
   </g>
   <g id="text_21">
    <!-- Süpervizör Sorgu Süreleri vs Kullanıcı Sayısı -->
    <g transform="translate(343.615547 24) scale(0.15 -0.15)">
     <defs>
      <path id="DejaVuSans-Bold-70" d="M 1656 506 
L 1656 -1331 
L 538 -1331 
L 538 3500 
L 1656 3500 
L 1656 2988 
Q 1888 3294 2169 3439 
Q 2450 3584 2816 3584 
Q 3463 3584 3878 3070 
Q 4294 2556 4294 1747 
Q 4294 938 3878 423 
Q 3463 -91 2816 -91 
Q 2450 -91 2169 54 
Q 1888 200 1656 506 
z
M 2400 2772 
Q 2041 2772 1848 2508 
Q 1656 2244 1656 1747 
Q 1656 1250 1848 986 
Q 2041 722 2400 722 
Q 2759 722 2948 984 
Q 3138 1247 3138 1747 
Q 3138 2247 2948 2509 
Q 2759 2772 2400 2772 
z
" transform="scale(0.015625)"/>
      <path id="DejaVuSans-Bold-76" d="M 97 3500 
L 1216 3500 
L 2088 1081 
L 2956 3500 
L 4078 3500 
L 2700 0 
L 1472 0 
L 97 3500 
z
" transform="scale(0.015625)"/>
      <path id="DejaVuSans-Bold-7a" d="M 366 3500 
L 3419 3500 
L 3419 2719 
L 1575 800 
L 3419 800 
L 3419 0 
L 288 0 
L 288 781 
L 2131 2700 
L 366 2700 
L 366 3500 
z
" transform="scale(0.015625)"/>
      <path id="DejaVuSans-Bold-f6" d="M 2203 2784 
Q 1831 2784 1636 2517 
Q 1441 2250 1441 1747 
Q 1441 1244 1636 976 
Q 1831 709 2203 709 
Q 2569 709 2762 976 
Q 2956 1244 2956 1747 
Q 2956 2250 2762 2517 
Q 2569 2784 2203 2784 
z
M 2203 3584 
Q 3106 3584 3614 3096 
Q 4122 2609 4122 1747 
Q 4122 884 3614 396 
Q 3106 -91 2203 -91 
Q 1297 -91 786 396 
Q 275 884 275 1747 
Q 275 2609 786 3096 
Q 1297 3584 2203 3584 
z
M 1208 4953 
L 1942 4953 
L 1942 4184 
L 1208 4184 
L 1208 4953 
z
M 2442 4953 
L 3176 4953 
L 3176 4184 
L 2442 4184 
L 2442 4953 
z
" transform="scale(0.015625)"/>
     </defs>
     <use xlink:href="#DejaVuSans-Bold-53"/>
     <use xlink:href="#DejaVuSans-Bold-fc" x="72.021484"/>
     <use xlink:href="#DejaVuSans-Bold-70" x="143.212891"/>
     <use xlink:href="#DejaVuSans-Bold-65" x="214.794922"/>
     <use xlink:href="#DejaVuSans-Bold-72" x="282.617188"/>
     <use xlink:href="#DejaVuSans-Bold-76" x="331.933594"/>
     <use xlink:href="#DejaVuSans-Bold-69" x="397.119141"/>
     <use xlink:href="#DejaVuSans-Bold-7a" x="431.396484"/>
     <use xlink:href="#DejaVuSans-Bold-f6" x="489.599609"/>
     <use xlink:href="#DejaVuSans-Bold-72" x="558.300781"/>
     <use xlink:href="#DejaVuSans-Bold-20" x="607.617188"/>
     <use xlink:href="#DejaVuSans-Bold-53" x="642.431641"/>
     <use xlink:href="#DejaVuSans-Bold-6f" x="714.453125"/>
     <use xlink:href="#DejaVuSans-Bold-72" x="783.154297"/>
     <use xlink:href="#DejaVuSans-Bold-67" x="832.470703"/>
     <use xlink:href="#DejaVuSans-Bold-75" x="904.052734"/>
     <use xlink:href="#DejaVuSans-Bold-20" x="975.244141"/>
     <use xlink:href="#DejaVuSans-Bold-53" x="1010.058594"/>
     <use xlink:href="#DejaVuSans-Bold-fc" x="1082.080078"/>
     <use xlink:href="#DejaVuSans-Bold-72" x="1153.271484"/>
     <use xlink:href="#DejaVuSans-Bold-65" x="1202.587891"/>
     <use xlink:href="#DejaVuSans-Bold-6c" x="1270.410156"/>
     <use xlink:href="#DejaVuSans-Bold-65" x="1304.6875"/>
     <use xlink:href="#DejaVuSans-Bold-72" x="1372.509766"/>
     <use xlink:href="#DejaVuSans-Bold-69" x="1421.826172"/>
     <use xlink:href="#DejaVuSans-Bold-20" x="1456.103516"/>
     <use xlink:href="#DejaVuSans-Bold-76" x="1490.917969"/>
     <use xlink:href="#DejaVuSans-Bold-73" x="1556.103516"/>
     <use xlink:href="#DejaVuSans-Bold-20" x="1615.625"/>
     <use xlink:href="#DejaVuSans-Bold-4b" x="1650.439453"/>
     <use xlink:href="#DejaVuSans-Bold-75" x="1726.179688"/>
     <use xlink:href="#DejaVuSans-Bold-6c" x="1797.371094"/>
     <use xlink:href="#DejaVuSans-Bold-6c" x="1831.648438"/>
     <use xlink:href="#DejaVuSans-Bold-61" x="1865.925781"/>
     <use xlink:href="#DejaVuSans-Bold-6e" x="1933.40625"/>
     <use xlink:href="#DejaVuSans-Bold-131" x="2004.597656"/>
     <use xlink:href="#DejaVuSans-Bold-63" x="2038.875"/>
     <use xlink:href="#DejaVuSans-Bold-131" x="2098.152344"/>
     <use xlink:href="#DejaVuSans-Bold-20" x="2132.429688"/>
     <use xlink:href="#DejaVuSans-Bold-53" x="2167.244141"/>
     <use xlink:href="#DejaVuSans-Bold-61" x="2239.265625"/>
     <use xlink:href="#DejaVuSans-Bold-79" x="2303.621094"/>
     <use xlink:href="#DejaVuSans-Bold-131" x="2368.806641"/>
     <use xlink:href="#DejaVuSans-Bold-73" x="2403.083984"/>
     <use xlink:href="#DejaVuSans-Bold-131" x="2462.605469"/>
    </g>
   </g>
   <g id="legend_1">
    <g id="patch_5">
     <path d="M 73.72 126.575 
L 357.984063 126.575 
Q 359.984063 126.575 359.984063 124.575 
L 359.984063 37 
Q 359.984063 35 357.984063 35 
L 73.72 35 
Q 71.72 35 71.72 37 
L 71.72 124.575 
Q 71.72 126.575 73.72 126.575 
z
" style="fill: #ffffff; opacity: 0.8; stroke: #cccccc; stroke-linejoin: miter"/>
    </g>
    <g id="line2d_43">
     <path d="M 75.72 43.098438 
L 85.72 43.098438 
L 95.72 43.098438 
" style="fill: none; stroke: #e91e63; stroke-width: 2; stroke-linecap: square"/>
     <g>
      <use xlink:href="#mf3c1bc451c" x="85.72" y="43.098438" style="fill: #e91e63; stroke: #e91e63"/>
     </g>
    </g>
    <g id="text_22">
     <!-- S1: Kurum Sorgulama -->
     <g transform="translate(103.72 46.598438) scale(0.1 -0.1)">
      <defs>
       <path id="DejaVuSans-53" d="M 3425 4513 
L 3425 3897 
Q 3066 4069 2747 4153 
Q 2428 4238 2131 4238 
Q 1616 4238 1336 4038 
Q 1056 3838 1056 3469 
Q 1056 3159 1242 3001 
Q 1428 2844 1947 2747 
L 2328 2669 
Q 3034 2534 3370 2195 
Q 3706 1856 3706 1288 
Q 3706 609 3251 259 
Q 2797 -91 1919 -91 
Q 1588 -91 1214 -16 
Q 841 59 441 206 
L 441 856 
Q 825 641 1194 531 
Q 1563 422 1919 422 
Q 2459 422 2753 634 
Q 3047 847 3047 1241 
Q 3047 1584 2836 1778 
Q 2625 1972 2144 2069 
L 1759 2144 
Q 1053 2284 737 2584 
Q 422 2884 422 3419 
Q 422 4038 858 4394 
Q 1294 4750 2059 4750 
Q 2388 4750 2728 4690 
Q 3069 4631 3425 4513 
z
" transform="scale(0.015625)"/>
       <path id="DejaVuSans-3a" d="M 750 794 
L 1409 794 
L 1409 0 
L 750 0 
L 750 794 
z
M 750 3309 
L 1409 3309 
L 1409 2516 
L 750 2516 
L 750 3309 
z
" transform="scale(0.015625)"/>
       <path id="DejaVuSans-20" transform="scale(0.015625)"/>
       <path id="DejaVuSans-4b" d="M 628 4666 
L 1259 4666 
L 1259 2694 
L 3353 4666 
L 4166 4666 
L 1850 2491 
L 4331 0 
L 3500 0 
L 1259 2247 
L 1259 0 
L 628 0 
L 628 4666 
z
" transform="scale(0.015625)"/>
       <path id="DejaVuSans-75" d="M 544 1381 
L 544 3500 
L 1119 3500 
L 1119 1403 
Q 1119 906 1312 657 
Q 1506 409 1894 409 
Q 2359 409 2629 706 
Q 2900 1003 2900 1516 
L 2900 3500 
L 3475 3500 
L 3475 0 
L 2900 0 
L 2900 538 
Q 2691 219 2414 64 
Q 2138 -91 1772 -91 
Q 1169 -91 856 284 
Q 544 659 544 1381 
z
M 1991 3584 
L 1991 3584 
z
" transform="scale(0.015625)"/>
       <path id="DejaVuSans-72" d="M 2631 2963 
Q 2534 3019 2420 3045 
Q 2306 3072 2169 3072 
Q 1681 3072 1420 2755 
Q 1159 2438 1159 1844 
L 1159 0 
L 581 0 
L 581 3500 
L 1159 3500 
L 1159 2956 
Q 1341 3275 1631 3429 
Q 1922 3584 2338 3584 
Q 2397 3584 2469 3576 
Q 2541 3569 2628 3553 
L 2631 2963 
z
" transform="scale(0.015625)"/>
       <path id="DejaVuSans-6d" d="M 3328 2828 
Q 3544 3216 3844 3400 
Q 4144 3584 4550 3584 
Q 5097 3584 5394 3201 
Q 5691 2819 5691 2113 
L 5691 0 
L 5113 0 
L 5113 2094 
Q 5113 2597 4934 2840 
Q 4756 3084 4391 3084 
Q 3944 3084 3684 2787 
Q 3425 2491 3425 1978 
L 3425 0 
L 2847 0 
L 2847 2094 
Q 2847 2600 2669 2842 
Q 2491 3084 2119 3084 
Q 1678 3084 1418 2786 
Q 1159 2488 1159 1978 
L 1159 0 
L 581 0 
L 581 3500 
L 1159 3500 
L 1159 2956 
Q 1356 3278 1631 3431 
Q 1906 3584 2284 3584 
Q 2666 3584 2933 3390 
Q 3200 3197 3328 2828 
z
" transform="scale(0.015625)"/>
       <path id="DejaVuSans-6f" d="M 1959 3097 
Q 1497 3097 1228 2736 
Q 959 2375 959 1747 
Q 959 1119 1226 758 
Q 1494 397 1959 397 
Q 2419 397 2687 759 
Q 2956 1122 2956 1747 
Q 2956 2369 2687 2733 
Q 2419 3097 1959 3097 
z
M 1959 3584 
Q 2709 3584 3137 3096 
Q 3566 2609 3566 1747 
Q 3566 888 3137 398 
Q 2709 -91 1959 -91 
Q 1206 -91 779 398 
Q 353 888 353 1747 
Q 353 2609 779 3096 
Q 1206 3584 1959 3584 
z
" transform="scale(0.015625)"/>
       <path id="DejaVuSans-67" d="M 2906 1791 
Q 2906 2416 2648 2759 
Q 2391 3103 1925 3103 
Q 1463 3103 1205 2759 
Q 947 2416 947 1791 
Q 947 1169 1205 825 
Q 1463 481 1925 481 
Q 2391 481 2648 825 
Q 2906 1169 2906 1791 
z
M 3481 434 
Q 3481 -459 3084 -895 
Q 2688 -1331 1869 -1331 
Q 1566 -1331 1297 -1286 
Q 1028 -1241 775 -1147 
L 775 -588 
Q 1028 -725 1275 -790 
Q 1522 -856 1778 -856 
Q 2344 -856 2625 -561 
Q 2906 -266 2906 331 
L 2906 616 
Q 2728 306 2450 153 
Q 2172 0 1784 0 
Q 1141 0 747 490 
Q 353 981 353 1791 
Q 353 2603 747 3093 
Q 1141 3584 1784 3584 
Q 2172 3584 2450 3431 
Q 2728 3278 2906 2969 
L 2906 3500 
L 3481 3500 
L 3481 434 
z
" transform="scale(0.015625)"/>
       <path id="DejaVuSans-6c" d="M 603 4863 
L 1178 4863 
L 1178 0 
L 603 0 
L 603 4863 
z
" transform="scale(0.015625)"/>
       <path id="DejaVuSans-61" d="M 2194 1759 
Q 1497 1759 1228 1600 
Q 959 1441 959 1056 
Q 959 750 1161 570 
Q 1363 391 1709 391 
Q 2188 391 2477 730 
Q 2766 1069 2766 1631 
L 2766 1759 
L 2194 1759 
z
M 3341 1997 
L 3341 0 
L 2766 0 
L 2766 531 
Q 2569 213 2275 61 
Q 1981 -91 1556 -91 
Q 1019 -91 701 211 
Q 384 513 384 1019 
Q 384 1609 779 1909 
Q 1175 2209 1959 2209 
L 2766 2209 
L 2766 2266 
Q 2766 2663 2505 2880 
Q 2244 3097 1772 3097 
Q 1472 3097 1187 3025 
Q 903 2953 641 2809 
L 641 3341 
Q 956 3463 1253 3523 
Q 1550 3584 1831 3584 
Q 2591 3584 2966 3190 
Q 3341 2797 3341 1997 
z
" transform="scale(0.015625)"/>
      </defs>
      <use xlink:href="#DejaVuSans-53"/>
      <use xlink:href="#DejaVuSans-31" x="63.476562"/>
      <use xlink:href="#DejaVuSans-3a" x="127.099609"/>
      <use xlink:href="#DejaVuSans-20" x="160.791016"/>
      <use xlink:href="#DejaVuSans-4b" x="192.578125"/>
      <use xlink:href="#DejaVuSans-75" x="253.154297"/>
      <use xlink:href="#DejaVuSans-72" x="316.533203"/>
      <use xlink:href="#DejaVuSans-75" x="357.646484"/>
      <use xlink:href="#DejaVuSans-6d" x="421.025391"/>
      <use xlink:href="#DejaVuSans-20" x="518.4375"/>
      <use xlink:href="#DejaVuSans-53" x="550.224609"/>
      <use xlink:href="#DejaVuSans-6f" x="613.701172"/>
      <use xlink:href="#DejaVuSans-72" x="674.882812"/>
      <use xlink:href="#DejaVuSans-67" x="714.246094"/>
      <use xlink:href="#DejaVuSans-75" x="777.722656"/>
      <use xlink:href="#DejaVuSans-6c" x="841.101562"/>
      <use xlink:href="#DejaVuSans-61" x="868.884766"/>
      <use xlink:href="#DejaVuSans-6d" x="930.164062"/>
      <use xlink:href="#DejaVuSans-61" x="1027.576172"/>
     </g>
    </g>
    <g id="line2d_44">
     <path d="M 75.72 57.776563 
L 85.72 57.776563 
L 95.72 57.776563 
" style="fill: none; stroke: #ff9800; stroke-width: 2; stroke-linecap: square"/>
     <g>
      <use xlink:href="#mb6ff0e9f06" x="85.72" y="57.776563" style="fill: #ff9800; stroke: #ff9800"/>
     </g>
    </g>
    <g id="text_23">
     <!-- S2: Uzman Sorgulama -->
     <g transform="translate(103.72 61.276563) scale(0.1 -0.1)">
      <defs>
       <path id="DejaVuSans-55" d="M 556 4666 
L 1191 4666 
L 1191 1831 
Q 1191 1081 1462 751 
Q 1734 422 2344 422 
Q 2950 422 3222 751 
Q 3494 1081 3494 1831 
L 3494 4666 
L 4128 4666 
L 4128 1753 
Q 4128 841 3676 375 
Q 3225 -91 2344 -91 
Q 1459 -91 1007 375 
Q 556 841 556 1753 
L 556 4666 
z
" transform="scale(0.015625)"/>
       <path id="DejaVuSans-7a" d="M 353 3500 
L 3084 3500 
L 3084 2975 
L 922 459 
L 3084 459 
L 3084 0 
L 275 0 
L 275 525 
L 2438 3041 
L 353 3041 
L 353 3500 
z
" transform="scale(0.015625)"/>
       <path id="DejaVuSans-6e" d="M 3513 2113 
L 3513 0 
L 2938 0 
L 2938 2094 
Q 2938 2591 2744 2837 
Q 2550 3084 2163 3084 
Q 1697 3084 1428 2787 
Q 1159 2491 1159 1978 
L 1159 0 
L 581 0 
L 581 3500 
L 1159 3500 
L 1159 2956 
Q 1366 3272 1645 3428 
Q 1925 3584 2291 3584 
Q 2894 3584 3203 3211 
Q 3513 2838 3513 2113 
z
" transform="scale(0.015625)"/>
      </defs>
      <use xlink:href="#DejaVuSans-53"/>
      <use xlink:href="#DejaVuSans-32" x="63.476562"/>
      <use xlink:href="#DejaVuSans-3a" x="127.099609"/>
      <use xlink:href="#DejaVuSans-20" x="160.791016"/>
      <use xlink:href="#DejaVuSans-55" x="192.578125"/>
      <use xlink:href="#DejaVuSans-7a" x="265.771484"/>
      <use xlink:href="#DejaVuSans-6d" x="318.261719"/>
      <use xlink:href="#DejaVuSans-61" x="415.673828"/>
      <use xlink:href="#DejaVuSans-6e" x="476.953125"/>
      <use xlink:href="#DejaVuSans-20" x="540.332031"/>
      <use xlink:href="#DejaVuSans-53" x="572.119141"/>
      <use xlink:href="#DejaVuSans-6f" x="635.595703"/>
      <use xlink:href="#DejaVuSans-72" x="696.777344"/>
      <use xlink:href="#DejaVuSans-67" x="736.140625"/>
      <use xlink:href="#DejaVuSans-75" x="799.617188"/>
      <use xlink:href="#DejaVuSans-6c" x="862.996094"/>
      <use xlink:href="#DejaVuSans-61" x="890.779297"/>
      <use xlink:href="#DejaVuSans-6d" x="952.058594"/>
      <use xlink:href="#DejaVuSans-61" x="1049.470703"/>
     </g>
    </g>
    <g id="line2d_45">
     <path d="M 75.72 72.454688 
L 85.72 72.454688 
L 95.72 72.454688 
" style="fill: none; stroke: #9c27b0; stroke-width: 2; stroke-linecap: square"/>
     <g>
      <use xlink:href="#m28281a2165" x="85.72" y="72.454688" style="fill: #9c27b0; stroke: #9c27b0"/>
     </g>
    </g>
    <g id="text_24">
     <!-- S3: Olay Türü Sorgulama -->
     <g transform="translate(103.72 75.954688) scale(0.1 -0.1)">
      <defs>
       <path id="DejaVuSans-4f" d="M 2522 4238 
Q 1834 4238 1429 3725 
Q 1025 3213 1025 2328 
Q 1025 1447 1429 934 
Q 1834 422 2522 422 
Q 3209 422 3611 934 
Q 4013 1447 4013 2328 
Q 4013 3213 3611 3725 
Q 3209 4238 2522 4238 
z
M 2522 4750 
Q 3503 4750 4090 4092 
Q 4678 3434 4678 2328 
Q 4678 1225 4090 567 
Q 3503 -91 2522 -91 
Q 1538 -91 948 565 
Q 359 1222 359 2328 
Q 359 3434 948 4092 
Q 1538 4750 2522 4750 
z
" transform="scale(0.015625)"/>
       <path id="DejaVuSans-79" d="M 2059 -325 
Q 1816 -950 1584 -1140 
Q 1353 -1331 966 -1331 
L 506 -1331 
L 506 -850 
L 844 -850 
Q 1081 -850 1212 -737 
Q 1344 -625 1503 -206 
L 1606 56 
L 191 3500 
L 800 3500 
L 1894 763 
L 2988 3500 
L 3597 3500 
L 2059 -325 
z
" transform="scale(0.015625)"/>
       <path id="DejaVuSans-54" d="M -19 4666 
L 3928 4666 
L 3928 4134 
L 2272 4134 
L 2272 0 
L 1638 0 
L 1638 4134 
L -19 4134 
L -19 4666 
z
" transform="scale(0.015625)"/>
       <path id="DejaVuSans-fc" d="M 544 1381 
L 544 3500 
L 1119 3500 
L 1119 1403 
Q 1119 906 1312 657 
Q 1506 409 1894 409 
Q 2359 409 2629 706 
Q 2900 1003 2900 1516 
L 2900 3500 
L 3475 3500 
L 3475 0 
L 2900 0 
L 2900 538 
Q 2691 219 2414 64 
Q 2138 -91 1772 -91 
Q 1169 -91 856 284 
Q 544 659 544 1381 
z
M 1991 3584 
L 1991 3584 
z
M 2278 4850 
L 2912 4850 
L 2912 4219 
L 2278 4219 
L 2278 4850 
z
M 1056 4850 
L 1690 4850 
L 1690 4219 
L 1056 4219 
L 1056 4850 
z
" transform="scale(0.015625)"/>
      </defs>
      <use xlink:href="#DejaVuSans-53"/>
      <use xlink:href="#DejaVuSans-33" x="63.476562"/>
      <use xlink:href="#DejaVuSans-3a" x="127.099609"/>
      <use xlink:href="#DejaVuSans-20" x="160.791016"/>
      <use xlink:href="#DejaVuSans-4f" x="192.578125"/>
      <use xlink:href="#DejaVuSans-6c" x="271.289062"/>
      <use xlink:href="#DejaVuSans-61" x="299.072266"/>
      <use xlink:href="#DejaVuSans-79" x="360.351562"/>
      <use xlink:href="#DejaVuSans-20" x="419.53125"/>
      <use xlink:href="#DejaVuSans-54" x="451.318359"/>
      <use xlink:href="#DejaVuSans-fc" x="498.652344"/>
      <use xlink:href="#DejaVuSans-72" x="562.03125"/>
      <use xlink:href="#DejaVuSans-fc" x="603.144531"/>
      <use xlink:href="#DejaVuSans-20" x="666.523438"/>
      <use xlink:href="#DejaVuSans-53" x="698.310547"/>
      <use xlink:href="#DejaVuSans-6f" x="761.787109"/>
      <use xlink:href="#DejaVuSans-72" x="822.96875"/>
      <use xlink:href="#DejaVuSans-67" x="862.332031"/>
      <use xlink:href="#DejaVuSans-75" x="925.808594"/>
      <use xlink:href="#DejaVuSans-6c" x="989.1875"/>
      <use xlink:href="#DejaVuSans-61" x="1016.970703"/>
      <use xlink:href="#DejaVuSans-6d" x="1078.25"/>
      <use xlink:href="#DejaVuSans-61" x="1175.662109"/>
     </g>
    </g>
    <g id="line2d_46">
     <path d="M 75.72 87.132813 
L 85.72 87.132813 
L 95.72 87.132813 
" style="fill: none; stroke: #00bcd4; stroke-width: 2; stroke-linecap: square"/>
     <g>
      <use xlink:href="#m296b2cf1e5" x="85.72" y="87.132813" style="fill: #00bcd4; stroke: #00bcd4"/>
     </g>
    </g>
    <g id="text_25">
     <!-- S4: Medyalı Olay Sorgulama -->
     <g transform="translate(103.72 90.632813) scale(0.1 -0.1)">
      <defs>
       <path id="DejaVuSans-4d" d="M 628 4666 
L 1569 4666 
L 2759 1491 
L 3956 4666 
L 4897 4666 
L 4897 0 
L 4281 0 
L 4281 4097 
L 3078 897 
L 2444 897 
L 1241 4097 
L 1241 0 
L 628 0 
L 628 4666 
z
" transform="scale(0.015625)"/>
       <path id="DejaVuSans-65" d="M 3597 1894 
L 3597 1613 
L 953 1613 
Q 991 1019 1311 708 
Q 1631 397 2203 397 
Q 2534 397 2845 478 
Q 3156 559 3463 722 
L 3463 178 
Q 3153 47 2828 -22 
Q 2503 -91 2169 -91 
Q 1331 -91 842 396 
Q 353 884 353 1716 
Q 353 2575 817 3079 
Q 1281 3584 2069 3584 
Q 2775 3584 3186 3129 
Q 3597 2675 3597 1894 
z
M 3022 2063 
Q 3016 2534 2758 2815 
Q 2500 3097 2075 3097 
Q 1594 3097 1305 2825 
Q 1016 2553 972 2059 
L 3022 2063 
z
" transform="scale(0.015625)"/>
       <path id="DejaVuSans-64" d="M 2906 2969 
L 2906 4863 
L 3481 4863 
L 3481 0 
L 2906 0 
L 2906 525 
Q 2725 213 2448 61 
Q 2172 -91 1784 -91 
Q 1150 -91 751 415 
Q 353 922 353 1747 
Q 353 2572 751 3078 
Q 1150 3584 1784 3584 
Q 2172 3584 2448 3432 
Q 2725 3281 2906 2969 
z
M 947 1747 
Q 947 1113 1208 752 
Q 1469 391 1925 391 
Q 2381 391 2643 752 
Q 2906 1113 2906 1747 
Q 2906 2381 2643 2742 
Q 2381 3103 1925 3103 
Q 1469 3103 1208 2742 
Q 947 2381 947 1747 
z
" transform="scale(0.015625)"/>
       <path id="DejaVuSans-131" d="M 603 3500 
L 1178 3500 
L 1178 0 
L 603 0 
L 603 3500 
z
M 891 3584 
L 891 3584 
z
" transform="scale(0.015625)"/>
      </defs>
      <use xlink:href="#DejaVuSans-53"/>
      <use xlink:href="#DejaVuSans-34" x="63.476562"/>
      <use xlink:href="#DejaVuSans-3a" x="127.099609"/>
      <use xlink:href="#DejaVuSans-20" x="160.791016"/>
      <use xlink:href="#DejaVuSans-4d" x="192.578125"/>
      <use xlink:href="#DejaVuSans-65" x="278.857422"/>
      <use xlink:href="#DejaVuSans-64" x="340.380859"/>
      <use xlink:href="#DejaVuSans-79" x="403.857422"/>
      <use xlink:href="#DejaVuSans-61" x="463.037109"/>
      <use xlink:href="#DejaVuSans-6c" x="524.316406"/>
      <use xlink:href="#DejaVuSans-131" x="552.099609"/>
      <use xlink:href="#DejaVuSans-20" x="579.882812"/>
      <use xlink:href="#DejaVuSans-4f" x="611.669922"/>
      <use xlink:href="#DejaVuSans-6c" x="690.380859"/>
      <use xlink:href="#DejaVuSans-61" x="718.164062"/>
      <use xlink:href="#DejaVuSans-79" x="779.443359"/>
      <use xlink:href="#DejaVuSans-20" x="838.623047"/>
      <use xlink:href="#DejaVuSans-53" x="870.410156"/>
      <use xlink:href="#DejaVuSans-6f" x="933.886719"/>
      <use xlink:href="#DejaVuSans-72" x="995.068359"/>
      <use xlink:href="#DejaVuSans-67" x="1034.431641"/>
      <use xlink:href="#DejaVuSans-75" x="1097.908203"/>
      <use xlink:href="#DejaVuSans-6c" x="1161.287109"/>
      <use xlink:href="#DejaVuSans-61" x="1189.070312"/>
      <use xlink:href="#DejaVuSans-6d" x="1250.349609"/>
      <use xlink:href="#DejaVuSans-61" x="1347.761719"/>
     </g>
    </g>
    <g id="line2d_47">
     <path d="M 75.72 102.064063 
L 85.72 102.064063 
L 95.72 102.064063 
" style="fill: none; stroke: #8bc34a; stroke-width: 2; stroke-linecap: square"/>
     <g>
      <use xlink:href="#me0392dc98e" x="85.72" y="102.064063" style="fill: #8bc34a; stroke: #8bc34a"/>
     </g>
    </g>
    <g id="text_26">
     <!-- S5: Tarih aralığı + Kurum Sorgulama -->
     <g transform="translate(103.72 105.564063) scale(0.1 -0.1)">
      <defs>
       <path id="DejaVuSans-69" d="M 603 3500 
L 1178 3500 
L 1178 0 
L 603 0 
L 603 3500 
z
M 603 4863 
L 1178 4863 
L 1178 4134 
L 603 4134 
L 603 4863 
z
" transform="scale(0.015625)"/>
       <path id="DejaVuSans-68" d="M 3513 2113 
L 3513 0 
L 2938 0 
L 2938 2094 
Q 2938 2591 2744 2837 
Q 2550 3084 2163 3084 
Q 1697 3084 1428 2787 
Q 1159 2491 1159 1978 
L 1159 0 
L 581 0 
L 581 4863 
L 1159 4863 
L 1159 2956 
Q 1366 3272 1645 3428 
Q 1925 3584 2291 3584 
Q 2894 3584 3203 3211 
Q 3513 2838 3513 2113 
z
" transform="scale(0.015625)"/>
       <path id="DejaVuSans-11f" d="M 2906 1791 
Q 2906 2416 2648 2759 
Q 2391 3103 1925 3103 
Q 1463 3103 1205 2759 
Q 947 2416 947 1791 
Q 947 1169 1205 825 
Q 1463 481 1925 481 
Q 2391 481 2648 825 
Q 2906 1169 2906 1791 
z
M 3481 434 
Q 3481 -459 3084 -895 
Q 2688 -1331 1869 -1331 
Q 1566 -1331 1297 -1286 
Q 1028 -1241 775 -1147 
L 775 -588 
Q 1028 -725 1275 -790 
Q 1522 -856 1778 -856 
Q 2344 -856 2625 -561 
Q 2906 -266 2906 331 
L 2906 616 
Q 2728 306 2450 153 
Q 2172 0 1784 0 
Q 1141 0 747 490 
Q 353 981 353 1791 
Q 353 2603 747 3093 
Q 1141 3584 1784 3584 
Q 2172 3584 2450 3431 
Q 2728 3278 2906 2969 
L 2906 3500 
L 3481 3500 
L 3481 434 
z
M 1054 5025 
L 1423 5025 
Q 1457 4791 1608 4673 
Q 1760 4556 2032 4556 
Q 2301 4556 2451 4672 
Q 2601 4788 2641 5025 
L 3010 5025 
Q 2979 4578 2732 4353 
Q 2485 4128 2032 4128 
Q 1579 4128 1332 4353 
Q 1085 4578 1054 5025 
z
" transform="scale(0.015625)"/>
       <path id="DejaVuSans-2b" d="M 2944 4013 
L 2944 2272 
L 4684 2272 
L 4684 1741 
L 2944 1741 
L 2944 0 
L 2419 0 
L 2419 1741 
L 678 1741 
L 678 2272 
L 2419 2272 
L 2419 4013 
L 2944 4013 
z
" transform="scale(0.015625)"/>
      </defs>
      <use xlink:href="#DejaVuSans-53"/>
      <use xlink:href="#DejaVuSans-35" x="63.476562"/>
      <use xlink:href="#DejaVuSans-3a" x="127.099609"/>
      <use xlink:href="#DejaVuSans-20" x="160.791016"/>
      <use xlink:href="#DejaVuSans-54" x="192.578125"/>
      <use xlink:href="#DejaVuSans-61" x="237.162109"/>
      <use xlink:href="#DejaVuSans-72" x="298.441406"/>
      <use xlink:href="#DejaVuSans-69" x="339.554688"/>
      <use xlink:href="#DejaVuSans-68" x="367.337891"/>
      <use xlink:href="#DejaVuSans-20" x="430.716797"/>
      <use xlink:href="#DejaVuSans-61" x="462.503906"/>
      <use xlink:href="#DejaVuSans-72" x="523.783203"/>
      <use xlink:href="#DejaVuSans-61" x="564.896484"/>
      <use xlink:href="#DejaVuSans-6c" x="626.175781"/>
      <use xlink:href="#DejaVuSans-131" x="653.958984"/>
      <use xlink:href="#DejaVuSans-11f" x="681.742188"/>
      <use xlink:href="#DejaVuSans-131" x="745.21875"/>
      <use xlink:href="#DejaVuSans-20" x="773.001953"/>
      <use xlink:href="#DejaVuSans-2b" x="804.789062"/>
      <use xlink:href="#DejaVuSans-20" x="888.578125"/>
      <use xlink:href="#DejaVuSans-4b" x="920.365234"/>
      <use xlink:href="#DejaVuSans-75" x="980.941406"/>
      <use xlink:href="#DejaVuSans-72" x="1044.320312"/>
      <use xlink:href="#DejaVuSans-75" x="1085.433594"/>
      <use xlink:href="#DejaVuSans-6d" x="1148.8125"/>
      <use xlink:href="#DejaVuSans-20" x="1246.224609"/>
      <use xlink:href="#DejaVuSans-53" x="1278.011719"/>
      <use xlink:href="#DejaVuSans-6f" x="1341.488281"/>
      <use xlink:href="#DejaVuSans-72" x="1402.669922"/>
      <use xlink:href="#DejaVuSans-67" x="1442.033203"/>
      <use xlink:href="#DejaVuSans-75" x="1505.509766"/>
      <use xlink:href="#DejaVuSans-6c" x="1568.888672"/>
      <use xlink:href="#DejaVuSans-61" x="1596.671875"/>
      <use xlink:href="#DejaVuSans-6d" x="1657.951172"/>
      <use xlink:href="#DejaVuSans-61" x="1755.363281"/>
     </g>
    </g>
    <g id="line2d_48">
     <path d="M 75.72 116.995313 
L 85.72 116.995313 
L 95.72 116.995313 
" style="fill: none; stroke: #ff5722; stroke-width: 2; stroke-linecap: square"/>
     <g>
      <use xlink:href="#mc46be15182" x="85.72" y="116.995313" style="fill: #ff5722; stroke: #ff5722"/>
     </g>
    </g>
    <g id="text_27">
     <!-- S6: T1-T2 Tarih Aralığında Kurumdan Toplanan Veri -->
     <g transform="translate(103.72 120.495313) scale(0.1 -0.1)">
      <defs>
       <path id="DejaVuSans-2d" d="M 313 2009 
L 1997 2009 
L 1997 1497 
L 313 1497 
L 313 2009 
z
" transform="scale(0.015625)"/>
       <path id="DejaVuSans-41" d="M 2188 4044 
L 1331 1722 
L 3047 1722 
L 2188 4044 
z
M 1831 4666 
L 2547 4666 
L 4325 0 
L 3669 0 
L 3244 1197 
L 1141 1197 
L 716 0 
L 50 0 
L 1831 4666 
z
" transform="scale(0.015625)"/>
       <path id="DejaVuSans-70" d="M 1159 525 
L 1159 -1331 
L 581 -1331 
L 581 3500 
L 1159 3500 
L 1159 2969 
Q 1341 3281 1617 3432 
Q 1894 3584 2278 3584 
Q 2916 3584 3314 3078 
Q 3713 2572 3713 1747 
Q 3713 922 3314 415 
Q 2916 -91 2278 -91 
Q 1894 -91 1617 61 
Q 1341 213 1159 525 
z
M 3116 1747 
Q 3116 2381 2855 2742 
Q 2594 3103 2138 3103 
Q 1681 3103 1420 2742 
Q 1159 2381 1159 1747 
Q 1159 1113 1420 752 
Q 1681 391 2138 391 
Q 2594 391 2855 752 
Q 3116 1113 3116 1747 
z
" transform="scale(0.015625)"/>
       <path id="DejaVuSans-56" d="M 1831 0 
L 50 4666 
L 709 4666 
L 2188 738 
L 3669 4666 
L 4325 4666 
L 2547 0 
L 1831 0 
z
" transform="scale(0.015625)"/>
      </defs>
      <use xlink:href="#DejaVuSans-53"/>
      <use xlink:href="#DejaVuSans-36" x="63.476562"/>
      <use xlink:href="#DejaVuSans-3a" x="127.099609"/>
      <use xlink:href="#DejaVuSans-20" x="160.791016"/>
      <use xlink:href="#DejaVuSans-54" x="192.578125"/>
      <use xlink:href="#DejaVuSans-31" x="253.662109"/>
      <use xlink:href="#DejaVuSans-2d" x="317.285156"/>
      <use xlink:href="#DejaVuSans-54" x="344.244141"/>
      <use xlink:href="#DejaVuSans-32" x="405.328125"/>
      <use xlink:href="#DejaVuSans-20" x="468.951172"/>
      <use xlink:href="#DejaVuSans-54" x="500.738281"/>
      <use xlink:href="#DejaVuSans-61" x="545.322266"/>
      <use xlink:href="#DejaVuSans-72" x="606.601562"/>
      <use xlink:href="#DejaVuSans-69" x="647.714844"/>
      <use xlink:href="#DejaVuSans-68" x="675.498047"/>
      <use xlink:href="#DejaVuSans-20" x="738.876953"/>
      <use xlink:href="#DejaVuSans-41" x="770.664062"/>
      <use xlink:href="#DejaVuSans-72" x="839.072266"/>
      <use xlink:href="#DejaVuSans-61" x="880.185547"/>
      <use xlink:href="#DejaVuSans-6c" x="941.464844"/>
      <use xlink:href="#DejaVuSans-131" x="969.248047"/>
      <use xlink:href="#DejaVuSans-11f" x="997.03125"/>
      <use xlink:href="#DejaVuSans-131" x="1060.507812"/>
      <use xlink:href="#DejaVuSans-6e" x="1088.291016"/>
      <use xlink:href="#DejaVuSans-64" x="1151.669922"/>
      <use xlink:href="#DejaVuSans-61" x="1215.146484"/>
      <use xlink:href="#DejaVuSans-20" x="1276.425781"/>
      <use xlink:href="#DejaVuSans-4b" x="1308.212891"/>
      <use xlink:href="#DejaVuSans-75" x="1368.789062"/>
      <use xlink:href="#DejaVuSans-72" x="1432.167969"/>
      <use xlink:href="#DejaVuSans-75" x="1473.28125"/>
      <use xlink:href="#DejaVuSans-6d" x="1536.660156"/>
      <use xlink:href="#DejaVuSans-64" x="1634.072266"/>
      <use xlink:href="#DejaVuSans-61" x="1697.548828"/>
      <use xlink:href="#DejaVuSans-6e" x="1758.828125"/>
      <use xlink:href="#DejaVuSans-20" x="1822.207031"/>
      <use xlink:href="#DejaVuSans-54" x="1853.994141"/>
      <use xlink:href="#DejaVuSans-6f" x="1898.078125"/>
      <use xlink:href="#DejaVuSans-70" x="1959.259766"/>
      <use xlink:href="#DejaVuSans-6c" x="2022.736328"/>
      <use xlink:href="#DejaVuSans-61" x="2050.519531"/>
      <use xlink:href="#DejaVuSans-6e" x="2111.798828"/>
      <use xlink:href="#DejaVuSans-61" x="2175.177734"/>
      <use xlink:href="#DejaVuSans-6e" x="2236.457031"/>
      <use xlink:href="#DejaVuSans-20" x="2299.835938"/>
      <use xlink:href="#DejaVuSans-56" x="2331.623047"/>
      <use xlink:href="#DejaVuSans-65" x="2392.28125"/>
      <use xlink:href="#DejaVuSans-72" x="2453.804688"/>
      <use xlink:href="#DejaVuSans-69" x="2494.917969"/>
     </g>
    </g>
   </g>
  </g>
 </g>
 <defs>
  <clipPath id="p5f01f9987d">
   <rect x="66.72" y="30" width="928.32" height="401.643799"/>
  </clipPath>
 </defs>
</svg>
