<?xml version="1.0" encoding="utf-8" standalone="no"?>
<!DOCTYPE svg PUBLIC "-//W3C//DTD SVG 1.1//EN"
  "http://www.w3.org/Graphics/SVG/1.1/DTD/svg11.dtd">
<svg xmlns:xlink="http://www.w3.org/1999/xlink" width="1008pt" height="504pt" viewBox="0 0 1008 504" xmlns="http://www.w3.org/2000/svg" version="1.1">
 <metadata>
  <rdf:RDF xmlns:dc="http://purl.org/dc/elements/1.1/" xmlns:cc="http://creativecommons.org/ns#" xmlns:rdf="http://www.w3.org/1999/02/22-rdf-syntax-ns#">
   <cc:Work>
    <dc:type rdf:resource="http://purl.org/dc/dcmitype/StillImage"/>
    <dc:date>2026-03-08T06:59:27.934597</dc:date>
    <dc:format>image/svg+xml</dc:format>
    <dc:creator>
     <cc:Agent>
      <dc:title>Matplotlib v3.9.0, https://matplotlib.org/</dc:title>
     </cc:Agent>
    </dc:creator>
   </cc:Work>
  </rdf:RDF>
 </metadata>
 <defs>
  <style type="text/css">*{stroke-linejoin: round; stroke-linecap: butt}</style>
 </defs>
 <g id="figure_1">
  <g id="patch_1">
   <path d="M 0 504 
L 1008 504 
L 1008 0 
L 0 0 
z
" style="fill: #ffffff"/>
  </g>
  <g id="axes_1">
   <g id="patch_2">
    <path d="M 49.22 458.584 
L 997.2 458.584 
L 997.2 27.36 
L 49.22 27.36 
z
" style="fill: #ffffff"/>
   </g>
   <g id="matplotlib.axis_1">
    <g id="xtick_1">
     <g id="line2d_1">
      <path d="M 339.312317 458.584 
L 339.312317 27.36 
" clip-path="url(#p0f897799f3)" style="fill: none; stroke: #b0b0b0; stroke-opacity: 0.3; stroke-width: 0.8; stroke-linecap: square"/>
     </g>
     <g id="line2d_2">
      <defs>
       <path id="m2779fe9cff" d="M 0 0 
L 0 3.5 
" style="stroke: #000000; stroke-width: 0.8"/>
      </defs>
      <g>
       <use xlink:href="#m2779fe9cff" x="339.312317" y="458.584" style="stroke: #000000; stroke-width: 0.8"/>
      </g>
     </g>
     <g id="text_1">
      <!-- $\mathdefault{10^{2}}$ -->
      <g transform="translate(330.512317 473.182437) scale(0.1 -0.1)">
       <defs>
        <path id="DejaVuSans-31" d="M 794 531 
L 1825 531 
L 1825 4091 
L 703 3866 
L 703 4441 
L 1819 4666 
L 2450 4666 
L 2450 531 
L 3481 531 
L 3481 0 
L 794 0 
L 794 531 
z
" transform="scale(0.015625)"/>
        <path id="DejaVuSans-30" d="M 2034 4250 
Q 1547 4250 1301 3770 
Q 1056 3291 1056 2328 
Q 1056 1369 1301 889 
Q 1547 409 2034 409 
Q 2525 409 2770 889 
Q 3016 1369 3016 2328 
Q 3016 3291 2770 3770 
Q 2525 4250 2034 4250 
z
M 2034 4750 
Q 2819 4750 3233 4129 
Q 3647 3509 3647 2328 
Q 3647 1150 3233 529 
Q 2819 -91 2034 -91 
Q 1250 -91 836 529 
Q 422 1150 422 2328 
Q 422 3509 836 4129 
Q 1250 4750 2034 4750 
z
" transform="scale(0.015625)"/>
        <path id="DejaVuSans-32" d="M 1228 531 
L 3431 531 
L 3431 0 
L 469 0 
L 469 531 
Q 828 903 1448 1529 
Q 2069 2156 2228 2338 
Q 2531 2678 2651 2914 
Q 2772 3150 2772 3378 
Q 2772 3750 2511 3984 
Q 2250 4219 1831 4219 
Q 1534 4219 1204 4116 
Q 875 4013 500 3803 
L 500 4441 
Q 881 4594 1212 4672 
Q 1544 4750 1819 4750 
Q 2544 4750 2975 4387 
Q 3406 4025 3406 3419 
Q 3406 3131 3298 2873 
Q 3191 2616 2906 2266 
Q 2828 2175 2409 1742 
Q 1991 1309 1228 531 
z
" transform="scale(0.015625)"/>
       </defs>
       <use xlink:href="#DejaVuSans-31" transform="translate(0 0.765625)"/>
       <use xlink:href="#DejaVuSans-30" transform="translate(63.623047 0.765625)"/>
       <use xlink:href="#DejaVuSans-32" transform="translate(128.203125 39.046875) scale(0.7)"/>
      </g>
     </g>
    </g>
    <g id="xtick_2">
     <g id="line2d_3">
      <path d="M 811.701602 458.584 
L 811.701602 27.36 
" clip-path="url(#p0f897799f3)" style="fill: none; stroke: #b0b0b0; stroke-opacity: 0.3; stroke-width: 0.8; stroke-linecap: square"/>
     </g>
     <g id="line2d_4">
      <g>
       <use xlink:href="#m2779fe9cff" x="811.701602" y="458.584" style="stroke: #000000; stroke-width: 0.8"/>
      </g>
     </g>
     <g id="text_2">
      <!-- $\mathdefault{10^{3}}$ -->
      <g transform="translate(802.901602 473.182437) scale(0.1 -0.1)">
       <defs>
        <path id="DejaVuSans-33" d="M 2597 2516 
Q 3050 2419 3304 2112 
Q 3559 1806 3559 1356 
Q 3559 666 3084 287 
Q 2609 -91 1734 -91 
Q 1441 -91 1130 -33 
Q 819 25 488 141 
L 488 750 
Q 750 597 1062 519 
Q 1375 441 1716 441 
Q 2309 441 2620 675 
Q 2931 909 2931 1356 
Q 2931 1769 2642 2001 
Q 2353 2234 1838 2234 
L 1294 2234 
L 1294 2753 
L 1863 2753 
Q 2328 2753 2575 2939 
Q 2822 3125 2822 3475 
Q 2822 3834 2567 4026 
Q 2313 4219 1838 4219 
Q 1578 4219 1281 4162 
Q 984 4106 628 3988 
L 628 4550 
Q 988 4650 1302 4700 
Q 1616 4750 1894 4750 
Q 2613 4750 3031 4423 
Q 3450 4097 3450 3541 
Q 3450 3153 3228 2886 
Q 3006 2619 2597 2516 
z
" transform="scale(0.015625)"/>
       </defs>
       <use xlink:href="#DejaVuSans-31" transform="translate(0 0.765625)"/>
       <use xlink:href="#DejaVuSans-30" transform="translate(63.623047 0.765625)"/>
       <use xlink:href="#DejaVuSans-33" transform="translate(128.203125 39.046875) scale(0.7)"/>
      </g>
     </g>
    </g>
    <g id="xtick_3">
     <g id="line2d_5">
      <defs>
       <path id="m1a21184167" d="M 0 0 
L 0 2 
" style="stroke: #000000; stroke-width: 0.6"/>
      </defs>
      <g>
       <use xlink:href="#m1a21184167" x="92.31" y="458.584" style="stroke: #000000; stroke-width: 0.6"/>
      </g>
     </g>
    </g>
    <g id="xtick_4">
     <g id="line2d_6">
      <g>
       <use xlink:href="#m1a21184167" x="151.32972" y="458.584" style="stroke: #000000; stroke-width: 0.6"/>
      </g>
     </g>
    </g>
    <g id="xtick_5">
     <g id="line2d_7">
      <g>
       <use xlink:href="#m1a21184167" x="197.108972" y="458.584" style="stroke: #000000; stroke-width: 0.6"/>
      </g>
     </g>
    </g>
    <g id="xtick_6">
     <g id="line2d_8">
      <g>
       <use xlink:href="#m1a21184167" x="234.513344" y="458.584" style="stroke: #000000; stroke-width: 0.6"/>
      </g>
     </g>
    </g>
    <g id="xtick_7">
     <g id="line2d_9">
      <g>
       <use xlink:href="#m1a21184167" x="266.138291" y="458.584" style="stroke: #000000; stroke-width: 0.6"/>
      </g>
     </g>
    </g>
    <g id="xtick_8">
     <g id="line2d_10">
      <g>
       <use xlink:href="#m1a21184167" x="293.533065" y="458.584" style="stroke: #000000; stroke-width: 0.6"/>
      </g>
     </g>
    </g>
    <g id="xtick_9">
     <g id="line2d_11">
      <g>
       <use xlink:href="#m1a21184167" x="317.696968" y="458.584" style="stroke: #000000; stroke-width: 0.6"/>
      </g>
     </g>
    </g>
    <g id="xtick_10">
     <g id="line2d_12">
      <g>
       <use xlink:href="#m1a21184167" x="481.515661" y="458.584" style="stroke: #000000; stroke-width: 0.6"/>
      </g>
     </g>
    </g>
    <g id="xtick_11">
     <g id="line2d_13">
      <g>
       <use xlink:href="#m1a21184167" x="564.699285" y="458.584" style="stroke: #000000; stroke-width: 0.6"/>
      </g>
     </g>
    </g>
    <g id="xtick_12">
     <g id="line2d_14">
      <g>
       <use xlink:href="#m1a21184167" x="623.719006" y="458.584" style="stroke: #000000; stroke-width: 0.6"/>
      </g>
     </g>
    </g>
    <g id="xtick_13">
     <g id="line2d_15">
      <g>
       <use xlink:href="#m1a21184167" x="669.498257" y="458.584" style="stroke: #000000; stroke-width: 0.6"/>
      </g>
     </g>
    </g>
    <g id="xtick_14">
     <g id="line2d_16">
      <g>
       <use xlink:href="#m1a21184167" x="706.90263" y="458.584" style="stroke: #000000; stroke-width: 0.6"/>
      </g>
     </g>
    </g>
    <g id="xtick_15">
     <g id="line2d_17">
      <g>
       <use xlink:href="#m1a21184167" x="738.527576" y="458.584" style="stroke: #000000; stroke-width: 0.6"/>
      </g>
     </g>
    </g>
    <g id="xtick_16">
     <g id="line2d_18">
      <g>
       <use xlink:href="#m1a21184167" x="765.92235" y="458.584" style="stroke: #000000; stroke-width: 0.6"/>
      </g>
     </g>
    </g>
    <g id="xtick_17">
     <g id="line2d_19">
      <g>
       <use xlink:href="#m1a21184167" x="790.086254" y="458.584" style="stroke: #000000; stroke-width: 0.6"/>
      </g>
     </g>
    </g>
    <g id="xtick_18">
     <g id="line2d_20">
      <g>
       <use xlink:href="#m1a21184167" x="953.904946" y="458.584" style="stroke: #000000; stroke-width: 0.6"/>
      </g>
     </g>
    </g>
    <g id="text_3">
     <!-- Kullanıcı Sayısı (log ölçek) -->
     <g transform="translate(445.477187 488.38025) scale(0.12 -0.12)">
      <defs>
       <path id="DejaVuSans-4b" d="M 628 4666 
L 1259 4666 
L 1259 2694 
L 3353 4666 
L 4166 4666 
L 1850 2491 
L 4331 0 
L 3500 0 
L 1259 2247 
L 1259 0 
L 628 0 
L 628 4666 
z
" transform="scale(0.015625)"/>
       <path id="DejaVuSans-75" d="M 544 1381 
L 544 3500 
L 1119 3500 
L 1119 1403 
Q 1119 906 1312 657 
Q 1506 409 1894 409 
Q 2359 409 2629 706 
Q 2900 1003 2900 1516 
L 2900 3500 
L 3475 3500 
L 3475 0 
L 2900 0 
L 2900 538 
Q 2691 219 2414 64 
Q 2138 -91 1772 -91 
Q 1169 -91 856 284 
Q 544 659 544 1381 
z
M 1991 3584 
L 1991 3584 
z
" transform="scale(0.015625)"/>
       <path id="DejaVuSans-6c" d="M 603 4863 
L 1178 4863 
L 1178 0 
L 603 0 
L 603 4863 
z
" transform="scale(0.015625)"/>
       <path id="DejaVuSans-61" d="M 2194 1759 
Q 1497 1759 1228 1600 
Q 959 1441 959 1056 
Q 959 750 1161 570 
Q 1363 391 1709 391 
Q 2188 391 2477 730 
Q 2766 1069 2766 1631 
L 2766 1759 
L 2194 1759 
z
M 3341 1997 
L 3341 0 
L 2766 0 
L 2766 531 
Q 2569 213 2275 61 
Q 1981 -91 1556 -91 
Q 1019 -91 701 211 
Q 384 513 384 1019 
Q 384 1609 779 1909 
Q 1175 2209 1959 2209 
L 2766 2209 
L 2766 2266 
Q 2766 2663 2505 2880 
Q 2244 3097 1772 3097 
Q 1472 3097 1187 3025 
Q 903 2953 641 2809 
L 641 3341 
Q 956 3463 1253 3523 
Q 1550 3584 1831 3584 
Q 2591 3584 2966 3190 
Q 3341 2797 3341 1997 
z
" transform="scale(0.015625)"/>
       <path id="DejaVuSans-6e" d="M 3513 2113 
L 3513 0 
L 2938 0 
L 2938 2094 
Q 2938 2591 2744 2837 
Q 2550 3084 2163 3084 
Q 1697 3084 1428 2787 
Q 1159 2491 1159 1978 
L 1159 0 
L 581 0 
L 581 3500 
L 1159 3500 
L 1159 2956 
Q 1366 3272 1645 3428 
Q 1925 3584 2291 3584 
Q 2894 3584 3203 3211 
Q 3513 2838 3513 2113 
z
" transform="scale(0.015625)"/>
       <path id="DejaVuSans-131" d="M 603 3500 
L 1178 3500 
L 1178 0 
L 603 0 
L 603 3500 
z
M 891 3584 
L 891 3584 
z
" transform="scale(0.015625)"/>
       <path id="DejaVuSans-63" d="M 3122 3366 
L 3122 2828 
Q 2878 2963 2633 3030 
Q 2388 3097 2138 3097 
Q 1578 3097 1268 2742 
Q 959 2388 959 1747 
Q 959 1106 1268 751 
Q 1578 397 2138 397 
Q 2388 397 2633 464 
Q 2878 531 3122 666 
L 3122 134 
Q 2881 22 2623 -34 
Q 2366 -91 2075 -91 
Q 1284 -91 818 406 
Q 353 903 353 1747 
Q 353 2603 823 3093 
Q 1294 3584 2113 3584 
Q 2378 3584 2631 3529 
Q 2884 3475 3122 3366 
z
" transform="scale(0.015625)"/>
       <path id="DejaVuSans-20" transform="scale(0.015625)"/>
       <path id="DejaVuSans-53" d="M 3425 4513 
L 3425 3897 
Q 3066 4069 2747 4153 
Q 2428 4238 2131 4238 
Q 1616 4238 1336 4038 
Q 1056 3838 1056 3469 
Q 1056 3159 1242 3001 
Q 1428 2844 1947 2747 
L 2328 2669 
Q 3034 2534 3370 2195 
Q 3706 1856 3706 1288 
Q 3706 609 3251 259 
Q 2797 -91 1919 -91 
Q 1588 -91 1214 -16 
Q 841 59 441 206 
L 441 856 
Q 825 641 1194 531 
Q 1563 422 1919 422 
Q 2459 422 2753 634 
Q 3047 847 3047 1241 
Q 3047 1584 2836 1778 
Q 2625 1972 2144 2069 
L 1759 2144 
Q 1053 2284 737 2584 
Q 422 2884 422 3419 
Q 422 4038 858 4394 
Q 1294 4750 2059 4750 
Q 2388 4750 2728 4690 
Q 3069 4631 3425 4513 
z
" transform="scale(0.015625)"/>
       <path id="DejaVuSans-79" d="M 2059 -325 
Q 1816 -950 1584 -1140 
Q 1353 -1331 966 -1331 
L 506 -1331 
L 506 -850 
L 844 -850 
Q 1081 -850 1212 -737 
Q 1344 -625 1503 -206 
L 1606 56 
L 191 3500 
L 800 3500 
L 1894 763 
L 2988 3500 
L 3597 3500 
L 2059 -325 
z
" transform="scale(0.015625)"/>
       <path id="DejaVuSans-73" d="M 2834 3397 
L 2834 2853 
Q 2591 2978 2328 3040 
Q 2066 3103 1784 3103 
Q 1356 3103 1142 2972 
Q 928 2841 928 2578 
Q 928 2378 1081 2264 
Q 1234 2150 1697 2047 
L 1894 2003 
Q 2506 1872 2764 1633 
Q 3022 1394 3022 966 
Q 3022 478 2636 193 
Q 2250 -91 1575 -91 
Q 1294 -91 989 -36 
Q 684 19 347 128 
L 347 722 
Q 666 556 975 473 
Q 1284 391 1588 391 
Q 1994 391 2212 530 
Q 2431 669 2431 922 
Q 2431 1156 2273 1281 
Q 2116 1406 1581 1522 
L 1381 1569 
Q 847 1681 609 1914 
Q 372 2147 372 2553 
Q 372 3047 722 3315 
Q 1072 3584 1716 3584 
Q 2034 3584 2315 3537 
Q 2597 3491 2834 3397 
z
" transform="scale(0.015625)"/>
       <path id="DejaVuSans-28" d="M 1984 4856 
Q 1566 4138 1362 3434 
Q 1159 2731 1159 2009 
Q 1159 1288 1364 580 
Q 1569 -128 1984 -844 
L 1484 -844 
Q 1016 -109 783 600 
Q 550 1309 550 2009 
Q 550 2706 781 3412 
Q 1013 4119 1484 4856 
L 1984 4856 
z
" transform="scale(0.015625)"/>
       <path id="DejaVuSans-6f" d="M 1959 3097 
Q 1497 3097 1228 2736 
Q 959 2375 959 1747 
Q 959 1119 1226 758 
Q 1494 397 1959 397 
Q 2419 397 2687 759 
Q 2956 1122 2956 1747 
Q 2956 2369 2687 2733 
Q 2419 3097 1959 3097 
z
M 1959 3584 
Q 2709 3584 3137 3096 
Q 3566 2609 3566 1747 
Q 3566 888 3137 398 
Q 2709 -91 1959 -91 
Q 1206 -91 779 398 
Q 353 888 353 1747 
Q 353 2609 779 3096 
Q 1206 3584 1959 3584 
z
" transform="scale(0.015625)"/>
       <path id="DejaVuSans-67" d="M 2906 1791 
Q 2906 2416 2648 2759 
Q 2391 3103 1925 3103 
Q 1463 3103 1205 2759 
Q 947 2416 947 1791 
Q 947 1169 1205 825 
Q 1463 481 1925 481 
Q 2391 481 2648 825 
Q 2906 1169 2906 1791 
z
M 3481 434 
Q 3481 -459 3084 -895 
Q 2688 -1331 1869 -1331 
Q 1566 -1331 1297 -1286 
Q 1028 -1241 775 -1147 
L 775 -588 
Q 1028 -725 1275 -790 
Q 1522 -856 1778 -856 
Q 2344 -856 2625 -561 
Q 2906 -266 2906 331 
L 2906 616 
Q 2728 306 2450 153 
Q 2172 0 1784 0 
Q 1141 0 747 490 
Q 353 981 353 1791 
Q 353 2603 747 3093 
Q 1141 3584 1784 3584 
Q 2172 3584 2450 3431 
Q 2728 3278 2906 2969 
L 2906 3500 
L 3481 3500 
L 3481 434 
z
" transform="scale(0.015625)"/>
       <path id="DejaVuSans-f6" d="M 1959 3097 
Q 1497 3097 1228 2736 
Q 959 2375 959 1747 
Q 959 1119 1226 758 
Q 1494 397 1959 397 
Q 2419 397 2687 759 
Q 2956 1122 2956 1747 
Q 2956 2369 2687 2733 
Q 2419 3097 1959 3097 
z
M 1959 3584 
Q 2709 3584 3137 3096 
Q 3566 2609 3566 1747 
Q 3566 888 3137 398 
Q 2709 -91 1959 -91 
Q 1206 -91 779 398 
Q 353 888 353 1747 
Q 353 2609 779 3096 
Q 1206 3584 1959 3584 
z
M 2254 4850 
L 2888 4850 
L 2888 4219 
L 2254 4219 
L 2254 4850 
z
M 1032 4850 
L 1666 4850 
L 1666 4219 
L 1032 4219 
L 1032 4850 
z
" transform="scale(0.015625)"/>
       <path id="DejaVuSans-e7" d="M 3122 3366 
L 3122 2828 
Q 2878 2963 2633 3030 
Q 2388 3097 2138 3097 
Q 1578 3097 1268 2742 
Q 959 2388 959 1747 
Q 959 1106 1268 751 
Q 1578 397 2138 397 
Q 2388 397 2633 464 
Q 2878 531 3122 666 
L 3122 134 
Q 2881 22 2623 -34 
Q 2366 -91 2075 -91 
Q 1284 -91 818 406 
Q 353 903 353 1747 
Q 353 2603 823 3093 
Q 1294 3584 2113 3584 
Q 2378 3584 2631 3529 
Q 2884 3475 3122 3366 
z
M 2311 0 
Q 2482 -194 2566 -358 
Q 2651 -522 2651 -672 
Q 2651 -950 2463 -1092 
Q 2276 -1234 1907 -1234 
Q 1764 -1234 1628 -1215 
Q 1492 -1197 1357 -1159 
L 1357 -750 
Q 1464 -803 1579 -826 
Q 1695 -850 1842 -850 
Q 2026 -850 2120 -775 
Q 2214 -700 2214 -556 
Q 2214 -463 2146 -327 
Q 2079 -191 1939 0 
L 2311 0 
z
" transform="scale(0.015625)"/>
       <path id="DejaVuSans-65" d="M 3597 1894 
L 3597 1613 
L 953 1613 
Q 991 1019 1311 708 
Q 1631 397 2203 397 
Q 2534 397 2845 478 
Q 3156 559 3463 722 
L 3463 178 
Q 3153 47 2828 -22 
Q 2503 -91 2169 -91 
Q 1331 -91 842 396 
Q 353 884 353 1716 
Q 353 2575 817 3079 
Q 1281 3584 2069 3584 
Q 2775 3584 3186 3129 
Q 3597 2675 3597 1894 
z
M 3022 2063 
Q 3016 2534 2758 2815 
Q 2500 3097 2075 3097 
Q 1594 3097 1305 2825 
Q 1016 2553 972 2059 
L 3022 2063 
z
" transform="scale(0.015625)"/>
       <path id="DejaVuSans-6b" d="M 581 4863 
L 1159 4863 
L 1159 1991 
L 2875 3500 
L 3609 3500 
L 1753 1863 
L 3688 0 
L 2938 0 
L 1159 1709 
L 1159 0 
L 581 0 
L 581 4863 
z
" transform="scale(0.015625)"/>
       <path id="DejaVuSans-29" d="M 513 4856 
L 1013 4856 
Q 1481 4119 1714 3412 
Q 1947 2706 1947 2009 
Q 1947 1309 1714 600 
Q 1481 -109 1013 -844 
L 513 -844 
Q 928 -128 1133 580 
Q 1338 1288 1338 2009 
Q 1338 2731 1133 3434 
Q 928 4138 513 4856 
z
" transform="scale(0.015625)"/>
      </defs>
      <use xlink:href="#DejaVuSans-4b"/>
      <use xlink:href="#DejaVuSans-75" x="60.576172"/>
      <use xlink:href="#DejaVuSans-6c" x="123.955078"/>
      <use xlink:href="#DejaVuSans-6c" x="151.738281"/>
      <use xlink:href="#DejaVuSans-61" x="179.521484"/>
      <use xlink:href="#DejaVuSans-6e" x="240.800781"/>
      <use xlink:href="#DejaVuSans-131" x="304.179688"/>
      <use xlink:href="#DejaVuSans-63" x="331.962891"/>
      <use xlink:href="#DejaVuSans-131" x="386.943359"/>
      <use xlink:href="#DejaVuSans-20" x="414.726562"/>
      <use xlink:href="#DejaVuSans-53" x="446.513672"/>
      <use xlink:href="#DejaVuSans-61" x="509.990234"/>
      <use xlink:href="#DejaVuSans-79" x="571.269531"/>
      <use xlink:href="#DejaVuSans-131" x="630.449219"/>
      <use xlink:href="#DejaVuSans-73" x="658.232422"/>
      <use xlink:href="#DejaVuSans-131" x="710.332031"/>
      <use xlink:href="#DejaVuSans-20" x="738.115234"/>
      <use xlink:href="#DejaVuSans-28" x="769.902344"/>
      <use xlink:href="#DejaVuSans-6c" x="808.916016"/>
      <use xlink:href="#DejaVuSans-6f" x="836.699219"/>
      <use xlink:href="#DejaVuSans-67" x="897.880859"/>
      <use xlink:href="#DejaVuSans-20" x="961.357422"/>
      <use xlink:href="#DejaVuSans-f6" x="993.144531"/>
      <use xlink:href="#DejaVuSans-6c" x="1054.326172"/>
      <use xlink:href="#DejaVuSans-e7" x="1082.109375"/>
      <use xlink:href="#DejaVuSans-65" x="1137.089844"/>
      <use xlink:href="#DejaVuSans-6b" x="1198.613281"/>
      <use xlink:href="#DejaVuSans-29" x="1256.523438"/>
     </g>
    </g>
   </g>
   <g id="matplotlib.axis_2">
    <g id="ytick_1">
     <g id="line2d_21">
      <path d="M 49.22 438.982909 
L 997.2 438.982909 
" clip-path="url(#p0f897799f3)" style="fill: none; stroke: #b0b0b0; stroke-opacity: 0.3; stroke-width: 0.8; stroke-linecap: square"/>
     </g>
     <g id="line2d_22">
      <defs>
       <path id="m7e2f8a62ab" d="M 0 0 
L -3.5 0 
" style="stroke: #000000; stroke-width: 0.8"/>
      </defs>
      <g>
       <use xlink:href="#m7e2f8a62ab" x="49.22" y="438.982909" style="stroke: #000000; stroke-width: 0.8"/>
      </g>
     </g>
     <g id="text_4">
      <!-- 0.0 -->
      <g transform="translate(26.316875 442.782128) scale(0.1 -0.1)">
       <defs>
        <path id="DejaVuSans-2e" d="M 684 794 
L 1344 794 
L 1344 0 
L 684 0 
L 684 794 
z
" transform="scale(0.015625)"/>
       </defs>
       <use xlink:href="#DejaVuSans-30"/>
       <use xlink:href="#DejaVuSans-2e" x="63.623047"/>
       <use xlink:href="#DejaVuSans-30" x="95.410156"/>
      </g>
     </g>
    </g>
    <g id="ytick_2">
     <g id="line2d_23">
      <path d="M 49.22 364.055192 
L 997.2 364.055192 
" clip-path="url(#p0f897799f3)" style="fill: none; stroke: #b0b0b0; stroke-opacity: 0.3; stroke-width: 0.8; stroke-linecap: square"/>
     </g>
     <g id="line2d_24">
      <g>
       <use xlink:href="#m7e2f8a62ab" x="49.22" y="364.055192" style="stroke: #000000; stroke-width: 0.8"/>
      </g>
     </g>
     <g id="text_5">
      <!-- 0.5 -->
      <g transform="translate(26.316875 367.85441) scale(0.1 -0.1)">
       <defs>
        <path id="DejaVuSans-35" d="M 691 4666 
L 3169 4666 
L 3169 4134 
L 1269 4134 
L 1269 2991 
Q 1406 3038 1543 3061 
Q 1681 3084 1819 3084 
Q 2600 3084 3056 2656 
Q 3513 2228 3513 1497 
Q 3513 744 3044 326 
Q 2575 -91 1722 -91 
Q 1428 -91 1123 -41 
Q 819 9 494 109 
L 494 744 
Q 775 591 1075 516 
Q 1375 441 1709 441 
Q 2250 441 2565 725 
Q 2881 1009 2881 1497 
Q 2881 1984 2565 2268 
Q 2250 2553 1709 2553 
Q 1456 2553 1204 2497 
Q 953 2441 691 2322 
L 691 4666 
z
" transform="scale(0.015625)"/>
       </defs>
       <use xlink:href="#DejaVuSans-30"/>
       <use xlink:href="#DejaVuSans-2e" x="63.623047"/>
       <use xlink:href="#DejaVuSans-35" x="95.410156"/>
      </g>
     </g>
    </g>
    <g id="ytick_3">
     <g id="line2d_25">
      <path d="M 49.22 289.127474 
L 997.2 289.127474 
" clip-path="url(#p0f897799f3)" style="fill: none; stroke: #b0b0b0; stroke-opacity: 0.3; stroke-width: 0.8; stroke-linecap: square"/>
     </g>
     <g id="line2d_26">
      <g>
       <use xlink:href="#m7e2f8a62ab" x="49.22" y="289.127474" style="stroke: #000000; stroke-width: 0.8"/>
      </g>
     </g>
     <g id="text_6">
      <!-- 1.0 -->
      <g transform="translate(26.316875 292.926693) scale(0.1 -0.1)">
       <use xlink:href="#DejaVuSans-31"/>
       <use xlink:href="#DejaVuSans-2e" x="63.623047"/>
       <use xlink:href="#DejaVuSans-30" x="95.410156"/>
      </g>
     </g>
    </g>
    <g id="ytick_4">
     <g id="line2d_27">
      <path d="M 49.22 214.199756 
L 997.2 214.199756 
" clip-path="url(#p0f897799f3)" style="fill: none; stroke: #b0b0b0; stroke-opacity: 0.3; stroke-width: 0.8; stroke-linecap: square"/>
     </g>
     <g id="line2d_28">
      <g>
       <use xlink:href="#m7e2f8a62ab" x="49.22" y="214.199756" style="stroke: #000000; stroke-width: 0.8"/>
      </g>
     </g>
     <g id="text_7">
      <!-- 1.5 -->
      <g transform="translate(26.316875 217.998975) scale(0.1 -0.1)">
       <use xlink:href="#DejaVuSans-31"/>
       <use xlink:href="#DejaVuSans-2e" x="63.623047"/>
       <use xlink:href="#DejaVuSans-35" x="95.410156"/>
      </g>
     </g>
    </g>
    <g id="ytick_5">
     <g id="line2d_29">
      <path d="M 49.22 139.272039 
L 997.2 139.272039 
" clip-path="url(#p0f897799f3)" style="fill: none; stroke: #b0b0b0; stroke-opacity: 0.3; stroke-width: 0.8; stroke-linecap: square"/>
     </g>
     <g id="line2d_30">
      <g>
       <use xlink:href="#m7e2f8a62ab" x="49.22" y="139.272039" style="stroke: #000000; stroke-width: 0.8"/>
      </g>
     </g>
     <g id="text_8">
      <!-- 2.0 -->
      <g transform="translate(26.316875 143.071258) scale(0.1 -0.1)">
       <use xlink:href="#DejaVuSans-32"/>
       <use xlink:href="#DejaVuSans-2e" x="63.623047"/>
       <use xlink:href="#DejaVuSans-30" x="95.410156"/>
      </g>
     </g>
    </g>
    <g id="ytick_6">
     <g id="line2d_31">
      <path d="M 49.22 64.344321 
L 997.2 64.344321 
" clip-path="url(#p0f897799f3)" style="fill: none; stroke: #b0b0b0; stroke-opacity: 0.3; stroke-width: 0.8; stroke-linecap: square"/>
     </g>
     <g id="line2d_32">
      <g>
       <use xlink:href="#m7e2f8a62ab" x="49.22" y="64.344321" style="stroke: #000000; stroke-width: 0.8"/>
      </g>
     </g>
     <g id="text_9">
      <!-- 2.5 -->
      <g transform="translate(26.316875 68.14354) scale(0.1 -0.1)">
       <use xlink:href="#DejaVuSans-32"/>
       <use xlink:href="#DejaVuSans-2e" x="63.623047"/>
       <use xlink:href="#DejaVuSans-35" x="95.410156"/>
      </g>
     </g>
    </g>
    <g id="text_10">
     <!-- Sorgu Süresi (saniye) -->
     <g transform="translate(19.82125 306.863562) rotate(-90) scale(0.12 -0.12)">
      <defs>
       <path id="DejaVuSans-72" d="M 2631 2963 
Q 2534 3019 2420 3045 
Q 2306 3072 2169 3072 
Q 1681 3072 1420 2755 
Q 1159 2438 1159 1844 
L 1159 0 
L 581 0 
L 581 3500 
L 1159 3500 
L 1159 2956 
Q 1341 3275 1631 3429 
Q 1922 3584 2338 3584 
Q 2397 3584 2469 3576 
Q 2541 3569 2628 3553 
L 2631 2963 
z
" transform="scale(0.015625)"/>
       <path id="DejaVuSans-fc" d="M 544 1381 
L 544 3500 
L 1119 3500 
L 1119 1403 
Q 1119 906 1312 657 
Q 1506 409 1894 409 
Q 2359 409 2629 706 
Q 2900 1003 2900 1516 
L 2900 3500 
L 3475 3500 
L 3475 0 
L 2900 0 
L 2900 538 
Q 2691 219 2414 64 
Q 2138 -91 1772 -91 
Q 1169 -91 856 284 
Q 544 659 544 1381 
z
M 1991 3584 
L 1991 3584 
z
M 2278 4850 
L 2912 4850 
L 2912 4219 
L 2278 4219 
L 2278 4850 
z
M 1056 4850 
L 1690 4850 
L 1690 4219 
L 1056 4219 
L 1056 4850 
z
" transform="scale(0.015625)"/>
       <path id="DejaVuSans-69" d="M 603 3500 
L 1178 3500 
L 1178 0 
L 603 0 
L 603 3500 
z
M 603 4863 
L 1178 4863 
L 1178 4134 
L 603 4134 
L 603 4863 
z
" transform="scale(0.015625)"/>
      </defs>
      <use xlink:href="#DejaVuSans-53"/>
      <use xlink:href="#DejaVuSans-6f" x="63.476562"/>
      <use xlink:href="#DejaVuSans-72" x="124.658203"/>
      <use xlink:href="#DejaVuSans-67" x="164.021484"/>
      <use xlink:href="#DejaVuSans-75" x="227.498047"/>
      <use xlink:href="#DejaVuSans-20" x="290.876953"/>
      <use xlink:href="#DejaVuSans-53" x="322.664062"/>
      <use xlink:href="#DejaVuSans-fc" x="386.140625"/>
      <use xlink:href="#DejaVuSans-72" x="449.519531"/>
      <use xlink:href="#DejaVuSans-65" x="488.382812"/>
      <use xlink:href="#DejaVuSans-73" x="549.90625"/>
      <use xlink:href="#DejaVuSans-69" x="602.005859"/>
      <use xlink:href="#DejaVuSans-20" x="629.789062"/>
      <use xlink:href="#DejaVuSans-28" x="661.576172"/>
      <use xlink:href="#DejaVuSans-73" x="700.589844"/>
      <use xlink:href="#DejaVuSans-61" x="752.689453"/>
      <use xlink:href="#DejaVuSans-6e" x="813.96875"/>
      <use xlink:href="#DejaVuSans-69" x="877.347656"/>
      <use xlink:href="#DejaVuSans-79" x="905.130859"/>
      <use xlink:href="#DejaVuSans-65" x="964.310547"/>
      <use xlink:href="#DejaVuSans-29" x="1025.833984"/>
     </g>
    </g>
   </g>
   <g id="line2d_33">
    <path d="M 92.31 438.833054 
L 129.714372 438.833054 
L 161.339318 438.833054 
L 180.00273 438.833054 
L 205.155339 438.833054 
L 234.513344 438.833054 
L 260.191322 438.982909 
L 288.338963 438.833054 
L 313.086526 438.833054 
L 339.312317 438.608271 
L 369.76158 438.683198 
L 399.355262 438.683198 
L 425.213279 438.683198 
L 452.945204 438.503372 
L 483.557032 438.383487 
L 510.188671 438.30856 
L 538.473494 438.30856 
L 566.062453 438.188675 
L 593.96609 438.533343 
L 619.574298 438.593285 
L 647.882909 437.754095 
L 676.754041 438.158704 
L 703.454548 438.203661 
L 731.370243 437.259572 
L 759.673459 438.383487 
L 787.33244 438.383487 
L 814.958116 436.585222 
L 842.857083 435.835945 
L 870.823875 437.034788 
L 898.410797 436.735078 
L 926.040707 434.562174 
L 954.11 434.142579 
" clip-path="url(#p0f897799f3)" style="fill: none; stroke: #e91e63; stroke-width: 2; stroke-linecap: square"/>
    <defs>
     <path id="m9074ce4063" d="M 0 2 
C 0.530406 2 1.03916 1.789267 1.414214 1.414214 
C 1.789267 1.03916 2 0.530406 2 0 
C 2 -0.530406 1.789267 -1.03916 1.414214 -1.414214 
C 1.03916 -1.789267 0.530406 -2 0 -2 
C -0.530406 -2 -1.03916 -1.789267 -1.414214 -1.414214 
C -1.789267 -1.03916 -2 -0.530406 -2 0 
C -2 0.530406 -1.789267 1.03916 -1.414214 1.414214 
C -1.03916 1.789267 -0.530406 2 0 2 
z
" style="stroke: #e91e63"/>
    </defs>
    <g clip-path="url(#p0f897799f3)">
     <use xlink:href="#m9074ce4063" x="92.31" y="438.833054" style="fill: #e91e63; stroke: #e91e63"/>
     <use xlink:href="#m9074ce4063" x="129.714372" y="438.833054" style="fill: #e91e63; stroke: #e91e63"/>
     <use xlink:href="#m9074ce4063" x="161.339318" y="438.833054" style="fill: #e91e63; stroke: #e91e63"/>
     <use xlink:href="#m9074ce4063" x="180.00273" y="438.833054" style="fill: #e91e63; stroke: #e91e63"/>
     <use xlink:href="#m9074ce4063" x="205.155339" y="438.833054" style="fill: #e91e63; stroke: #e91e63"/>
     <use xlink:href="#m9074ce4063" x="234.513344" y="438.833054" style="fill: #e91e63; stroke: #e91e63"/>
     <use xlink:href="#m9074ce4063" x="260.191322" y="438.982909" style="fill: #e91e63; stroke: #e91e63"/>
     <use xlink:href="#m9074ce4063" x="288.338963" y="438.833054" style="fill: #e91e63; stroke: #e91e63"/>
     <use xlink:href="#m9074ce4063" x="313.086526" y="438.833054" style="fill: #e91e63; stroke: #e91e63"/>
     <use xlink:href="#m9074ce4063" x="339.312317" y="438.608271" style="fill: #e91e63; stroke: #e91e63"/>
     <use xlink:href="#m9074ce4063" x="369.76158" y="438.683198" style="fill: #e91e63; stroke: #e91e63"/>
     <use xlink:href="#m9074ce4063" x="399.355262" y="438.683198" style="fill: #e91e63; stroke: #e91e63"/>
     <use xlink:href="#m9074ce4063" x="425.213279" y="438.683198" style="fill: #e91e63; stroke: #e91e63"/>
     <use xlink:href="#m9074ce4063" x="452.945204" y="438.503372" style="fill: #e91e63; stroke: #e91e63"/>
     <use xlink:href="#m9074ce4063" x="483.557032" y="438.383487" style="fill: #e91e63; stroke: #e91e63"/>
     <use xlink:href="#m9074ce4063" x="510.188671" y="438.30856" style="fill: #e91e63; stroke: #e91e63"/>
     <use xlink:href="#m9074ce4063" x="538.473494" y="438.30856" style="fill: #e91e63; stroke: #e91e63"/>
     <use xlink:href="#m9074ce4063" x="566.062453" y="438.188675" style="fill: #e91e63; stroke: #e91e63"/>
     <use xlink:href="#m9074ce4063" x="593.96609" y="438.533343" style="fill: #e91e63; stroke: #e91e63"/>
     <use xlink:href="#m9074ce4063" x="619.574298" y="438.593285" style="fill: #e91e63; stroke: #e91e63"/>
     <use xlink:href="#m9074ce4063" x="647.882909" y="437.754095" style="fill: #e91e63; stroke: #e91e63"/>
     <use xlink:href="#m9074ce4063" x="676.754041" y="438.158704" style="fill: #e91e63; stroke: #e91e63"/>
     <use xlink:href="#m9074ce4063" x="703.454548" y="438.203661" style="fill: #e91e63; stroke: #e91e63"/>
     <use xlink:href="#m9074ce4063" x="731.370243" y="437.259572" style="fill: #e91e63; stroke: #e91e63"/>
     <use xlink:href="#m9074ce4063" x="759.673459" y="438.383487" style="fill: #e91e63; stroke: #e91e63"/>
     <use xlink:href="#m9074ce4063" x="787.33244" y="438.383487" style="fill: #e91e63; stroke: #e91e63"/>
     <use xlink:href="#m9074ce4063" x="814.958116" y="436.585222" style="fill: #e91e63; stroke: #e91e63"/>
     <use xlink:href="#m9074ce4063" x="842.857083" y="435.835945" style="fill: #e91e63; stroke: #e91e63"/>
     <use xlink:href="#m9074ce4063" x="870.823875" y="437.034788" style="fill: #e91e63; stroke: #e91e63"/>
     <use xlink:href="#m9074ce4063" x="898.410797" y="436.735078" style="fill: #e91e63; stroke: #e91e63"/>
     <use xlink:href="#m9074ce4063" x="926.040707" y="434.562174" style="fill: #e91e63; stroke: #e91e63"/>
     <use xlink:href="#m9074ce4063" x="954.11" y="434.142579" style="fill: #e91e63; stroke: #e91e63"/>
    </g>
   </g>
   <g id="line2d_34">
    <path d="M 92.31 438.982909 
L 129.714372 438.982909 
L 161.339318 438.833054 
L 180.00273 438.982909 
L 205.155339 438.982909 
L 234.513344 438.982909 
L 260.191322 438.833054 
L 288.338963 438.833054 
L 313.086526 438.833054 
L 339.312317 438.982909 
L 369.76158 438.833054 
L 399.355262 438.982909 
L 425.213279 438.952938 
L 452.945204 438.833054 
L 483.557032 438.833054 
L 510.188671 438.833054 
L 538.473494 438.833054 
L 566.062453 438.833054 
L 593.96609 438.833054 
L 619.574298 438.668213 
L 647.882909 438.833054 
L 676.754041 438.833054 
L 703.454548 438.683198 
L 731.370243 438.683198 
L 759.673459 438.683198 
L 787.33244 438.683198 
L 814.958116 438.683198 
L 842.857083 438.383487 
L 870.823875 438.533343 
L 898.410797 438.263603 
L 926.040707 438.158704 
L 954.11 438.383487 
" clip-path="url(#p0f897799f3)" style="fill: none; stroke: #ff9800; stroke-width: 2; stroke-linecap: square"/>
    <defs>
     <path id="m57e458b062" d="M 0 2 
C 0.530406 2 1.03916 1.789267 1.414214 1.414214 
C 1.789267 1.03916 2 0.530406 2 0 
C 2 -0.530406 1.789267 -1.03916 1.414214 -1.414214 
C 1.03916 -1.789267 0.530406 -2 0 -2 
C -0.530406 -2 -1.03916 -1.789267 -1.414214 -1.414214 
C -1.789267 -1.03916 -2 -0.530406 -2 0 
C -2 0.530406 -1.789267 1.03916 -1.414214 1.414214 
C -1.03916 1.789267 -0.530406 2 0 2 
z
" style="stroke: #ff9800"/>
    </defs>
    <g clip-path="url(#p0f897799f3)">
     <use xlink:href="#m57e458b062" x="92.31" y="438.982909" style="fill: #ff9800; stroke: #ff9800"/>
     <use xlink:href="#m57e458b062" x="129.714372" y="438.982909" style="fill: #ff9800; stroke: #ff9800"/>
     <use xlink:href="#m57e458b062" x="161.339318" y="438.833054" style="fill: #ff9800; stroke: #ff9800"/>
     <use xlink:href="#m57e458b062" x="180.00273" y="438.982909" style="fill: #ff9800; stroke: #ff9800"/>
     <use xlink:href="#m57e458b062" x="205.155339" y="438.982909" style="fill: #ff9800; stroke: #ff9800"/>
     <use xlink:href="#m57e458b062" x="234.513344" y="438.982909" style="fill: #ff9800; stroke: #ff9800"/>
     <use xlink:href="#m57e458b062" x="260.191322" y="438.833054" style="fill: #ff9800; stroke: #ff9800"/>
     <use xlink:href="#m57e458b062" x="288.338963" y="438.833054" style="fill: #ff9800; stroke: #ff9800"/>
     <use xlink:href="#m57e458b062" x="313.086526" y="438.833054" style="fill: #ff9800; stroke: #ff9800"/>
     <use xlink:href="#m57e458b062" x="339.312317" y="438.982909" style="fill: #ff9800; stroke: #ff9800"/>
     <use xlink:href="#m57e458b062" x="369.76158" y="438.833054" style="fill: #ff9800; stroke: #ff9800"/>
     <use xlink:href="#m57e458b062" x="399.355262" y="438.982909" style="fill: #ff9800; stroke: #ff9800"/>
     <use xlink:href="#m57e458b062" x="425.213279" y="438.952938" style="fill: #ff9800; stroke: #ff9800"/>
     <use xlink:href="#m57e458b062" x="452.945204" y="438.833054" style="fill: #ff9800; stroke: #ff9800"/>
     <use xlink:href="#m57e458b062" x="483.557032" y="438.833054" style="fill: #ff9800; stroke: #ff9800"/>
     <use xlink:href="#m57e458b062" x="510.188671" y="438.833054" style="fill: #ff9800; stroke: #ff9800"/>
     <use xlink:href="#m57e458b062" x="538.473494" y="438.833054" style="fill: #ff9800; stroke: #ff9800"/>
     <use xlink:href="#m57e458b062" x="566.062453" y="438.833054" style="fill: #ff9800; stroke: #ff9800"/>
     <use xlink:href="#m57e458b062" x="593.96609" y="438.833054" style="fill: #ff9800; stroke: #ff9800"/>
     <use xlink:href="#m57e458b062" x="619.574298" y="438.668213" style="fill: #ff9800; stroke: #ff9800"/>
     <use xlink:href="#m57e458b062" x="647.882909" y="438.833054" style="fill: #ff9800; stroke: #ff9800"/>
     <use xlink:href="#m57e458b062" x="676.754041" y="438.833054" style="fill: #ff9800; stroke: #ff9800"/>
     <use xlink:href="#m57e458b062" x="703.454548" y="438.683198" style="fill: #ff9800; stroke: #ff9800"/>
     <use xlink:href="#m57e458b062" x="731.370243" y="438.683198" style="fill: #ff9800; stroke: #ff9800"/>
     <use xlink:href="#m57e458b062" x="759.673459" y="438.683198" style="fill: #ff9800; stroke: #ff9800"/>
     <use xlink:href="#m57e458b062" x="787.33244" y="438.683198" style="fill: #ff9800; stroke: #ff9800"/>
     <use xlink:href="#m57e458b062" x="814.958116" y="438.683198" style="fill: #ff9800; stroke: #ff9800"/>
     <use xlink:href="#m57e458b062" x="842.857083" y="438.383487" style="fill: #ff9800; stroke: #ff9800"/>
     <use xlink:href="#m57e458b062" x="870.823875" y="438.533343" style="fill: #ff9800; stroke: #ff9800"/>
     <use xlink:href="#m57e458b062" x="898.410797" y="438.263603" style="fill: #ff9800; stroke: #ff9800"/>
     <use xlink:href="#m57e458b062" x="926.040707" y="438.158704" style="fill: #ff9800; stroke: #ff9800"/>
     <use xlink:href="#m57e458b062" x="954.11" y="438.383487" style="fill: #ff9800; stroke: #ff9800"/>
    </g>
   </g>
   <g id="line2d_35">
    <path d="M 92.31 438.833054 
L 129.714372 438.833054 
L 161.339318 438.982909 
L 180.00273 438.833054 
L 205.155339 438.833054 
L 234.513344 438.833054 
L 260.191322 438.982909 
L 288.338963 438.982909 
L 313.086526 438.982909 
L 339.312317 438.833054 
L 369.76158 438.982909 
L 399.355262 438.833054 
L 425.213279 438.833054 
L 452.945204 438.833054 
L 483.557032 438.907981 
L 510.188671 438.982909 
L 538.473494 438.833054 
L 566.062453 438.683198 
L 593.96609 438.833054 
L 619.574298 438.833054 
L 647.882909 438.833054 
L 676.754041 438.623256 
L 703.454548 438.383487 
L 731.370243 438.233632 
L 759.673459 438.833054 
L 787.33244 438.518357 
L 814.958116 438.533343 
L 842.857083 437.814037 
L 870.823875 437.709138 
L 898.410797 438.533343 
L 926.040707 438.338531 
L 954.11 436.944875 
" clip-path="url(#p0f897799f3)" style="fill: none; stroke: #9c27b0; stroke-width: 2; stroke-linecap: square"/>
    <defs>
     <path id="m29cc457fca" d="M 0 2 
C 0.530406 2 1.03916 1.789267 1.414214 1.414214 
C 1.789267 1.03916 2 0.530406 2 0 
C 2 -0.530406 1.789267 -1.03916 1.414214 -1.414214 
C 1.03916 -1.789267 0.530406 -2 0 -2 
C -0.530406 -2 -1.03916 -1.789267 -1.414214 -1.414214 
C -1.789267 -1.03916 -2 -0.530406 -2 0 
C -2 0.530406 -1.789267 1.03916 -1.414214 1.414214 
C -1.03916 1.789267 -0.530406 2 0 2 
z
" style="stroke: #9c27b0"/>
    </defs>
    <g clip-path="url(#p0f897799f3)">
     <use xlink:href="#m29cc457fca" x="92.31" y="438.833054" style="fill: #9c27b0; stroke: #9c27b0"/>
     <use xlink:href="#m29cc457fca" x="129.714372" y="438.833054" style="fill: #9c27b0; stroke: #9c27b0"/>
     <use xlink:href="#m29cc457fca" x="161.339318" y="438.982909" style="fill: #9c27b0; stroke: #9c27b0"/>
     <use xlink:href="#m29cc457fca" x="180.00273" y="438.833054" style="fill: #9c27b0; stroke: #9c27b0"/>
     <use xlink:href="#m29cc457fca" x="205.155339" y="438.833054" style="fill: #9c27b0; stroke: #9c27b0"/>
     <use xlink:href="#m29cc457fca" x="234.513344" y="438.833054" style="fill: #9c27b0; stroke: #9c27b0"/>
     <use xlink:href="#m29cc457fca" x="260.191322" y="438.982909" style="fill: #9c27b0; stroke: #9c27b0"/>
     <use xlink:href="#m29cc457fca" x="288.338963" y="438.982909" style="fill: #9c27b0; stroke: #9c27b0"/>
     <use xlink:href="#m29cc457fca" x="313.086526" y="438.982909" style="fill: #9c27b0; stroke: #9c27b0"/>
     <use xlink:href="#m29cc457fca" x="339.312317" y="438.833054" style="fill: #9c27b0; stroke: #9c27b0"/>
     <use xlink:href="#m29cc457fca" x="369.76158" y="438.982909" style="fill: #9c27b0; stroke: #9c27b0"/>
     <use xlink:href="#m29cc457fca" x="399.355262" y="438.833054" style="fill: #9c27b0; stroke: #9c27b0"/>
     <use xlink:href="#m29cc457fca" x="425.213279" y="438.833054" style="fill: #9c27b0; stroke: #9c27b0"/>
     <use xlink:href="#m29cc457fca" x="452.945204" y="438.833054" style="fill: #9c27b0; stroke: #9c27b0"/>
     <use xlink:href="#m29cc457fca" x="483.557032" y="438.907981" style="fill: #9c27b0; stroke: #9c27b0"/>
     <use xlink:href="#m29cc457fca" x="510.188671" y="438.982909" style="fill: #9c27b0; stroke: #9c27b0"/>
     <use xlink:href="#m29cc457fca" x="538.473494" y="438.833054" style="fill: #9c27b0; stroke: #9c27b0"/>
     <use xlink:href="#m29cc457fca" x="566.062453" y="438.683198" style="fill: #9c27b0; stroke: #9c27b0"/>
     <use xlink:href="#m29cc457fca" x="593.96609" y="438.833054" style="fill: #9c27b0; stroke: #9c27b0"/>
     <use xlink:href="#m29cc457fca" x="619.574298" y="438.833054" style="fill: #9c27b0; stroke: #9c27b0"/>
     <use xlink:href="#m29cc457fca" x="647.882909" y="438.833054" style="fill: #9c27b0; stroke: #9c27b0"/>
     <use xlink:href="#m29cc457fca" x="676.754041" y="438.623256" style="fill: #9c27b0; stroke: #9c27b0"/>
     <use xlink:href="#m29cc457fca" x="703.454548" y="438.383487" style="fill: #9c27b0; stroke: #9c27b0"/>
     <use xlink:href="#m29cc457fca" x="731.370243" y="438.233632" style="fill: #9c27b0; stroke: #9c27b0"/>
     <use xlink:href="#m29cc457fca" x="759.673459" y="438.833054" style="fill: #9c27b0; stroke: #9c27b0"/>
     <use xlink:href="#m29cc457fca" x="787.33244" y="438.518357" style="fill: #9c27b0; stroke: #9c27b0"/>
     <use xlink:href="#m29cc457fca" x="814.958116" y="438.533343" style="fill: #9c27b0; stroke: #9c27b0"/>
     <use xlink:href="#m29cc457fca" x="842.857083" y="437.814037" style="fill: #9c27b0; stroke: #9c27b0"/>
     <use xlink:href="#m29cc457fca" x="870.823875" y="437.709138" style="fill: #9c27b0; stroke: #9c27b0"/>
     <use xlink:href="#m29cc457fca" x="898.410797" y="438.533343" style="fill: #9c27b0; stroke: #9c27b0"/>
     <use xlink:href="#m29cc457fca" x="926.040707" y="438.338531" style="fill: #9c27b0; stroke: #9c27b0"/>
     <use xlink:href="#m29cc457fca" x="954.11" y="436.944875" style="fill: #9c27b0; stroke: #9c27b0"/>
    </g>
   </g>
   <g id="line2d_36">
    <path d="M 92.31 438.982909 
L 129.714372 438.982909 
L 161.339318 438.982909 
L 180.00273 438.982909 
L 205.155339 438.982909 
L 234.513344 438.982909 
L 260.191322 438.982909 
L 288.338963 438.758126 
L 313.086526 438.833054 
L 339.312317 438.982909 
L 369.76158 438.982909 
L 399.355262 438.833054 
L 425.213279 438.833054 
L 452.945204 438.833054 
L 483.557032 438.833054 
L 510.188671 438.833054 
L 538.473494 438.833054 
L 566.062453 438.533343 
L 593.96609 438.833054 
L 619.574298 438.833054 
L 647.882909 438.683198 
L 676.754041 438.833054 
L 703.454548 438.383487 
L 731.370243 438.383487 
L 759.673459 438.608271 
L 787.33244 438.683198 
L 814.958116 438.533343 
L 842.857083 437.739109 
L 870.823875 437.709138 
L 898.410797 438.158704 
L 926.040707 438.383487 
L 954.11 437.034788 
" clip-path="url(#p0f897799f3)" style="fill: none; stroke: #00bcd4; stroke-width: 2; stroke-linecap: square"/>
    <defs>
     <path id="mf38a8a1279" d="M 0 2 
C 0.530406 2 1.03916 1.789267 1.414214 1.414214 
C 1.789267 1.03916 2 0.530406 2 0 
C 2 -0.530406 1.789267 -1.03916 1.414214 -1.414214 
C 1.03916 -1.789267 0.530406 -2 0 -2 
C -0.530406 -2 -1.03916 -1.789267 -1.414214 -1.414214 
C -1.789267 -1.03916 -2 -0.530406 -2 0 
C -2 0.530406 -1.789267 1.03916 -1.414214 1.414214 
C -1.03916 1.789267 -0.530406 2 0 2 
z
" style="stroke: #00bcd4"/>
    </defs>
    <g clip-path="url(#p0f897799f3)">
     <use xlink:href="#mf38a8a1279" x="92.31" y="438.982909" style="fill: #00bcd4; stroke: #00bcd4"/>
     <use xlink:href="#mf38a8a1279" x="129.714372" y="438.982909" style="fill: #00bcd4; stroke: #00bcd4"/>
     <use xlink:href="#mf38a8a1279" x="161.339318" y="438.982909" style="fill: #00bcd4; stroke: #00bcd4"/>
     <use xlink:href="#mf38a8a1279" x="180.00273" y="438.982909" style="fill: #00bcd4; stroke: #00bcd4"/>
     <use xlink:href="#mf38a8a1279" x="205.155339" y="438.982909" style="fill: #00bcd4; stroke: #00bcd4"/>
     <use xlink:href="#mf38a8a1279" x="234.513344" y="438.982909" style="fill: #00bcd4; stroke: #00bcd4"/>
     <use xlink:href="#mf38a8a1279" x="260.191322" y="438.982909" style="fill: #00bcd4; stroke: #00bcd4"/>
     <use xlink:href="#mf38a8a1279" x="288.338963" y="438.758126" style="fill: #00bcd4; stroke: #00bcd4"/>
     <use xlink:href="#mf38a8a1279" x="313.086526" y="438.833054" style="fill: #00bcd4; stroke: #00bcd4"/>
     <use xlink:href="#mf38a8a1279" x="339.312317" y="438.982909" style="fill: #00bcd4; stroke: #00bcd4"/>
     <use xlink:href="#mf38a8a1279" x="369.76158" y="438.982909" style="fill: #00bcd4; stroke: #00bcd4"/>
     <use xlink:href="#mf38a8a1279" x="399.355262" y="438.833054" style="fill: #00bcd4; stroke: #00bcd4"/>
     <use xlink:href="#mf38a8a1279" x="425.213279" y="438.833054" style="fill: #00bcd4; stroke: #00bcd4"/>
     <use xlink:href="#mf38a8a1279" x="452.945204" y="438.833054" style="fill: #00bcd4; stroke: #00bcd4"/>
     <use xlink:href="#mf38a8a1279" x="483.557032" y="438.833054" style="fill: #00bcd4; stroke: #00bcd4"/>
     <use xlink:href="#mf38a8a1279" x="510.188671" y="438.833054" style="fill: #00bcd4; stroke: #00bcd4"/>
     <use xlink:href="#mf38a8a1279" x="538.473494" y="438.833054" style="fill: #00bcd4; stroke: #00bcd4"/>
     <use xlink:href="#mf38a8a1279" x="566.062453" y="438.533343" style="fill: #00bcd4; stroke: #00bcd4"/>
     <use xlink:href="#mf38a8a1279" x="593.96609" y="438.833054" style="fill: #00bcd4; stroke: #00bcd4"/>
     <use xlink:href="#mf38a8a1279" x="619.574298" y="438.833054" style="fill: #00bcd4; stroke: #00bcd4"/>
     <use xlink:href="#mf38a8a1279" x="647.882909" y="438.683198" style="fill: #00bcd4; stroke: #00bcd4"/>
     <use xlink:href="#mf38a8a1279" x="676.754041" y="438.833054" style="fill: #00bcd4; stroke: #00bcd4"/>
     <use xlink:href="#mf38a8a1279" x="703.454548" y="438.383487" style="fill: #00bcd4; stroke: #00bcd4"/>
     <use xlink:href="#mf38a8a1279" x="731.370243" y="438.383487" style="fill: #00bcd4; stroke: #00bcd4"/>
     <use xlink:href="#mf38a8a1279" x="759.673459" y="438.608271" style="fill: #00bcd4; stroke: #00bcd4"/>
     <use xlink:href="#mf38a8a1279" x="787.33244" y="438.683198" style="fill: #00bcd4; stroke: #00bcd4"/>
     <use xlink:href="#mf38a8a1279" x="814.958116" y="438.533343" style="fill: #00bcd4; stroke: #00bcd4"/>
     <use xlink:href="#mf38a8a1279" x="842.857083" y="437.739109" style="fill: #00bcd4; stroke: #00bcd4"/>
     <use xlink:href="#mf38a8a1279" x="870.823875" y="437.709138" style="fill: #00bcd4; stroke: #00bcd4"/>
     <use xlink:href="#mf38a8a1279" x="898.410797" y="438.158704" style="fill: #00bcd4; stroke: #00bcd4"/>
     <use xlink:href="#mf38a8a1279" x="926.040707" y="438.383487" style="fill: #00bcd4; stroke: #00bcd4"/>
     <use xlink:href="#mf38a8a1279" x="954.11" y="437.034788" style="fill: #00bcd4; stroke: #00bcd4"/>
    </g>
   </g>
   <g id="line2d_37">
    <path d="M 92.31 438.383487 
L 129.714372 438.533343 
L 161.339318 438.338531 
L 180.00273 438.383487 
L 205.155339 438.083776 
L 234.513344 437.933921 
L 260.191322 437.709138 
L 288.338963 437.36447 
L 313.086526 436.974846 
L 339.312317 436.585222 
L 369.76158 436.195598 
L 399.355262 435.056697 
L 425.213279 433.812897 
L 452.945204 432.569096 
L 483.557032 429.841728 
L 510.188671 427.923578 
L 538.473494 423.832525 
L 566.062453 437.259572 
L 593.96609 415.125924 
L 619.574298 409.371475 
L 647.882909 436.435367 
L 676.754041 390.924271 
L 703.454548 436.105685 
L 731.370243 361.687476 
L 759.673459 435.101653 
L 787.33244 290.326317 
L 814.958116 433.183504 
L 842.857083 210.453371 
L 870.823875 140.575781 
L 898.410797 46.961091 
L 926.040707 429.077465 
L 954.11 427.893607 
" clip-path="url(#p0f897799f3)" style="fill: none; stroke: #8bc34a; stroke-width: 2; stroke-linecap: square"/>
    <defs>
     <path id="m456cb602ce" d="M 0 2 
C 0.530406 2 1.03916 1.789267 1.414214 1.414214 
C 1.789267 1.03916 2 0.530406 2 0 
C 2 -0.530406 1.789267 -1.03916 1.414214 -1.414214 
C 1.03916 -1.789267 0.530406 -2 0 -2 
C -0.530406 -2 -1.03916 -1.789267 -1.414214 -1.414214 
C -1.789267 -1.03916 -2 -0.530406 -2 0 
C -2 0.530406 -1.789267 1.03916 -1.414214 1.414214 
C -1.03916 1.789267 -0.530406 2 0 2 
z
" style="stroke: #8bc34a"/>
    </defs>
    <g clip-path="url(#p0f897799f3)">
     <use xlink:href="#m456cb602ce" x="92.31" y="438.383487" style="fill: #8bc34a; stroke: #8bc34a"/>
     <use xlink:href="#m456cb602ce" x="129.714372" y="438.533343" style="fill: #8bc34a; stroke: #8bc34a"/>
     <use xlink:href="#m456cb602ce" x="161.339318" y="438.338531" style="fill: #8bc34a; stroke: #8bc34a"/>
     <use xlink:href="#m456cb602ce" x="180.00273" y="438.383487" style="fill: #8bc34a; stroke: #8bc34a"/>
     <use xlink:href="#m456cb602ce" x="205.155339" y="438.083776" style="fill: #8bc34a; stroke: #8bc34a"/>
     <use xlink:href="#m456cb602ce" x="234.513344" y="437.933921" style="fill: #8bc34a; stroke: #8bc34a"/>
     <use xlink:href="#m456cb602ce" x="260.191322" y="437.709138" style="fill: #8bc34a; stroke: #8bc34a"/>
     <use xlink:href="#m456cb602ce" x="288.338963" y="437.36447" style="fill: #8bc34a; stroke: #8bc34a"/>
     <use xlink:href="#m456cb602ce" x="313.086526" y="436.974846" style="fill: #8bc34a; stroke: #8bc34a"/>
     <use xlink:href="#m456cb602ce" x="339.312317" y="436.585222" style="fill: #8bc34a; stroke: #8bc34a"/>
     <use xlink:href="#m456cb602ce" x="369.76158" y="436.195598" style="fill: #8bc34a; stroke: #8bc34a"/>
     <use xlink:href="#m456cb602ce" x="399.355262" y="435.056697" style="fill: #8bc34a; stroke: #8bc34a"/>
     <use xlink:href="#m456cb602ce" x="425.213279" y="433.812897" style="fill: #8bc34a; stroke: #8bc34a"/>
     <use xlink:href="#m456cb602ce" x="452.945204" y="432.569096" style="fill: #8bc34a; stroke: #8bc34a"/>
     <use xlink:href="#m456cb602ce" x="483.557032" y="429.841728" style="fill: #8bc34a; stroke: #8bc34a"/>
     <use xlink:href="#m456cb602ce" x="510.188671" y="427.923578" style="fill: #8bc34a; stroke: #8bc34a"/>
     <use xlink:href="#m456cb602ce" x="538.473494" y="423.832525" style="fill: #8bc34a; stroke: #8bc34a"/>
     <use xlink:href="#m456cb602ce" x="566.062453" y="437.259572" style="fill: #8bc34a; stroke: #8bc34a"/>
     <use xlink:href="#m456cb602ce" x="593.96609" y="415.125924" style="fill: #8bc34a; stroke: #8bc34a"/>
     <use xlink:href="#m456cb602ce" x="619.574298" y="409.371475" style="fill: #8bc34a; stroke: #8bc34a"/>
     <use xlink:href="#m456cb602ce" x="647.882909" y="436.435367" style="fill: #8bc34a; stroke: #8bc34a"/>
     <use xlink:href="#m456cb602ce" x="676.754041" y="390.924271" style="fill: #8bc34a; stroke: #8bc34a"/>
     <use xlink:href="#m456cb602ce" x="703.454548" y="436.105685" style="fill: #8bc34a; stroke: #8bc34a"/>
     <use xlink:href="#m456cb602ce" x="731.370243" y="361.687476" style="fill: #8bc34a; stroke: #8bc34a"/>
     <use xlink:href="#m456cb602ce" x="759.673459" y="435.101653" style="fill: #8bc34a; stroke: #8bc34a"/>
     <use xlink:href="#m456cb602ce" x="787.33244" y="290.326317" style="fill: #8bc34a; stroke: #8bc34a"/>
     <use xlink:href="#m456cb602ce" x="814.958116" y="433.183504" style="fill: #8bc34a; stroke: #8bc34a"/>
     <use xlink:href="#m456cb602ce" x="842.857083" y="210.453371" style="fill: #8bc34a; stroke: #8bc34a"/>
     <use xlink:href="#m456cb602ce" x="870.823875" y="140.575781" style="fill: #8bc34a; stroke: #8bc34a"/>
     <use xlink:href="#m456cb602ce" x="898.410797" y="46.961091" style="fill: #8bc34a; stroke: #8bc34a"/>
     <use xlink:href="#m456cb602ce" x="926.040707" y="429.077465" style="fill: #8bc34a; stroke: #8bc34a"/>
     <use xlink:href="#m456cb602ce" x="954.11" y="427.893607" style="fill: #8bc34a; stroke: #8bc34a"/>
    </g>
   </g>
   <g id="patch_3">
    <path d="M 49.22 458.584 
L 49.22 27.36 
" style="fill: none; stroke: #000000; stroke-width: 0.8; stroke-linejoin: miter; stroke-linecap: square"/>
   </g>
   <g id="patch_4">
    <path d="M 997.2 458.584 
L 997.2 27.36 
" style="fill: none; stroke: #000000; stroke-width: 0.8; stroke-linejoin: miter; stroke-linecap: square"/>
   </g>
   <g id="patch_5">
    <path d="M 49.22 458.584 
L 997.2 458.584 
" style="fill: none; stroke: #000000; stroke-width: 0.8; stroke-linejoin: miter; stroke-linecap: square"/>
   </g>
   <g id="patch_6">
    <path d="M 49.22 27.36 
L 997.2 27.36 
" style="fill: none; stroke: #000000; stroke-width: 0.8; stroke-linejoin: miter; stroke-linecap: square"/>
   </g>
   <g id="text_11">
    <!-- Süpervizör Sorgu Süreleri vs Kullanıcı Sayısı -->
    <g transform="translate(348.429844 21.36) scale(0.14 -0.14)">
     <defs>
      <path id="DejaVuSans-Bold-53" d="M 3834 4519 
L 3834 3531 
Q 3450 3703 3084 3790 
Q 2719 3878 2394 3878 
Q 1963 3878 1756 3759 
Q 1550 3641 1550 3391 
Q 1550 3203 1689 3098 
Q 1828 2994 2194 2919 
L 2706 2816 
Q 3484 2659 3812 2340 
Q 4141 2022 4141 1434 
Q 4141 663 3683 286 
Q 3225 -91 2284 -91 
Q 1841 -91 1394 -6 
Q 947 78 500 244 
L 500 1259 
Q 947 1022 1364 901 
Q 1781 781 2169 781 
Q 2563 781 2772 912 
Q 2981 1044 2981 1288 
Q 2981 1506 2839 1625 
Q 2697 1744 2272 1838 
L 1806 1941 
Q 1106 2091 782 2419 
Q 459 2747 459 3303 
Q 459 4000 909 4375 
Q 1359 4750 2203 4750 
Q 2588 4750 2994 4692 
Q 3400 4634 3834 4519 
z
" transform="scale(0.015625)"/>
      <path id="DejaVuSans-Bold-fc" d="M 500 1363 
L 500 3500 
L 1625 3500 
L 1625 3150 
Q 1625 2866 1622 2436 
Q 1619 2006 1619 1863 
Q 1619 1441 1641 1255 
Q 1663 1069 1716 984 
Q 1784 875 1895 815 
Q 2006 756 2150 756 
Q 2500 756 2700 1025 
Q 2900 1294 2900 1772 
L 2900 3500 
L 4019 3500 
L 4019 0 
L 2900 0 
L 2900 506 
Q 2647 200 2364 54 
Q 2081 -91 1741 -91 
Q 1134 -91 817 281 
Q 500 653 500 1363 
z
M 1280 4953 
L 2014 4953 
L 2014 4184 
L 1280 4184 
L 1280 4953 
z
M 2514 4953 
L 3248 4953 
L 3248 4184 
L 2514 4184 
L 2514 4953 
z
" transform="scale(0.015625)"/>
      <path id="DejaVuSans-Bold-70" d="M 1656 506 
L 1656 -1331 
L 538 -1331 
L 538 3500 
L 1656 3500 
L 1656 2988 
Q 1888 3294 2169 3439 
Q 2450 3584 2816 3584 
Q 3463 3584 3878 3070 
Q 4294 2556 4294 1747 
Q 4294 938 3878 423 
Q 3463 -91 2816 -91 
Q 2450 -91 2169 54 
Q 1888 200 1656 506 
z
M 2400 2772 
Q 2041 2772 1848 2508 
Q 1656 2244 1656 1747 
Q 1656 1250 1848 986 
Q 2041 722 2400 722 
Q 2759 722 2948 984 
Q 3138 1247 3138 1747 
Q 3138 2247 2948 2509 
Q 2759 2772 2400 2772 
z
" transform="scale(0.015625)"/>
      <path id="DejaVuSans-Bold-65" d="M 4031 1759 
L 4031 1441 
L 1416 1441 
Q 1456 1047 1700 850 
Q 1944 653 2381 653 
Q 2734 653 3104 758 
Q 3475 863 3866 1075 
L 3866 213 
Q 3469 63 3072 -14 
Q 2675 -91 2278 -91 
Q 1328 -91 801 392 
Q 275 875 275 1747 
Q 275 2603 792 3093 
Q 1309 3584 2216 3584 
Q 3041 3584 3536 3087 
Q 4031 2591 4031 1759 
z
M 2881 2131 
Q 2881 2450 2695 2645 
Q 2509 2841 2209 2841 
Q 1884 2841 1681 2658 
Q 1478 2475 1428 2131 
L 2881 2131 
z
" transform="scale(0.015625)"/>
      <path id="DejaVuSans-Bold-72" d="M 3138 2547 
Q 2991 2616 2845 2648 
Q 2700 2681 2553 2681 
Q 2122 2681 1889 2404 
Q 1656 2128 1656 1613 
L 1656 0 
L 538 0 
L 538 3500 
L 1656 3500 
L 1656 2925 
Q 1872 3269 2151 3426 
Q 2431 3584 2822 3584 
Q 2878 3584 2943 3579 
Q 3009 3575 3134 3559 
L 3138 2547 
z
" transform="scale(0.015625)"/>
      <path id="DejaVuSans-Bold-76" d="M 97 3500 
L 1216 3500 
L 2088 1081 
L 2956 3500 
L 4078 3500 
L 2700 0 
L 1472 0 
L 97 3500 
z
" transform="scale(0.015625)"/>
      <path id="DejaVuSans-Bold-69" d="M 538 3500 
L 1656 3500 
L 1656 0 
L 538 0 
L 538 3500 
z
M 538 4863 
L 1656 4863 
L 1656 3950 
L 538 3950 
L 538 4863 
z
" transform="scale(0.015625)"/>
      <path id="DejaVuSans-Bold-7a" d="M 366 3500 
L 3419 3500 
L 3419 2719 
L 1575 800 
L 3419 800 
L 3419 0 
L 288 0 
L 288 781 
L 2131 2700 
L 366 2700 
L 366 3500 
z
" transform="scale(0.015625)"/>
      <path id="DejaVuSans-Bold-f6" d="M 2203 2784 
Q 1831 2784 1636 2517 
Q 1441 2250 1441 1747 
Q 1441 1244 1636 976 
Q 1831 709 2203 709 
Q 2569 709 2762 976 
Q 2956 1244 2956 1747 
Q 2956 2250 2762 2517 
Q 2569 2784 2203 2784 
z
M 2203 3584 
Q 3106 3584 3614 3096 
Q 4122 2609 4122 1747 
Q 4122 884 3614 396 
Q 3106 -91 2203 -91 
Q 1297 -91 786 396 
Q 275 884 275 1747 
Q 275 2609 786 3096 
Q 1297 3584 2203 3584 
z
M 1208 4953 
L 1942 4953 
L 1942 4184 
L 1208 4184 
L 1208 4953 
z
M 2442 4953 
L 3176 4953 
L 3176 4184 
L 2442 4184 
L 2442 4953 
z
" transform="scale(0.015625)"/>
      <path id="DejaVuSans-Bold-20" transform="scale(0.015625)"/>
      <path id="DejaVuSans-Bold-6f" d="M 2203 2784 
Q 1831 2784 1636 2517 
Q 1441 2250 1441 1747 
Q 1441 1244 1636 976 
Q 1831 709 2203 709 
Q 2569 709 2762 976 
Q 2956 1244 2956 1747 
Q 2956 2250 2762 2517 
Q 2569 2784 2203 2784 
z
M 2203 3584 
Q 3106 3584 3614 3096 
Q 4122 2609 4122 1747 
Q 4122 884 3614 396 
Q 3106 -91 2203 -91 
Q 1297 -91 786 396 
Q 275 884 275 1747 
Q 275 2609 786 3096 
Q 1297 3584 2203 3584 
z
" transform="scale(0.015625)"/>
      <path id="DejaVuSans-Bold-67" d="M 2919 594 
Q 2688 288 2409 144 
Q 2131 0 1766 0 
Q 1125 0 706 504 
Q 288 1009 288 1791 
Q 288 2575 706 3076 
Q 1125 3578 1766 3578 
Q 2131 3578 2409 3434 
Q 2688 3291 2919 2981 
L 2919 3500 
L 4044 3500 
L 4044 353 
Q 4044 -491 3511 -936 
Q 2978 -1381 1966 -1381 
Q 1638 -1381 1331 -1331 
Q 1025 -1281 716 -1178 
L 716 -306 
Q 1009 -475 1290 -558 
Q 1572 -641 1856 -641 
Q 2406 -641 2662 -400 
Q 2919 -159 2919 353 
L 2919 594 
z
M 2181 2772 
Q 1834 2772 1640 2515 
Q 1447 2259 1447 1791 
Q 1447 1309 1634 1061 
Q 1822 813 2181 813 
Q 2531 813 2725 1069 
Q 2919 1325 2919 1791 
Q 2919 2259 2725 2515 
Q 2531 2772 2181 2772 
z
" transform="scale(0.015625)"/>
      <path id="DejaVuSans-Bold-75" d="M 500 1363 
L 500 3500 
L 1625 3500 
L 1625 3150 
Q 1625 2866 1622 2436 
Q 1619 2006 1619 1863 
Q 1619 1441 1641 1255 
Q 1663 1069 1716 984 
Q 1784 875 1895 815 
Q 2006 756 2150 756 
Q 2500 756 2700 1025 
Q 2900 1294 2900 1772 
L 2900 3500 
L 4019 3500 
L 4019 0 
L 2900 0 
L 2900 506 
Q 2647 200 2364 54 
Q 2081 -91 1741 -91 
Q 1134 -91 817 281 
Q 500 653 500 1363 
z
" transform="scale(0.015625)"/>
      <path id="DejaVuSans-Bold-6c" d="M 538 4863 
L 1656 4863 
L 1656 0 
L 538 0 
L 538 4863 
z
" transform="scale(0.015625)"/>
      <path id="DejaVuSans-Bold-73" d="M 3272 3391 
L 3272 2541 
Q 2913 2691 2578 2766 
Q 2244 2841 1947 2841 
Q 1628 2841 1473 2761 
Q 1319 2681 1319 2516 
Q 1319 2381 1436 2309 
Q 1553 2238 1856 2203 
L 2053 2175 
Q 2913 2066 3209 1816 
Q 3506 1566 3506 1031 
Q 3506 472 3093 190 
Q 2681 -91 1863 -91 
Q 1516 -91 1145 -36 
Q 775 19 384 128 
L 384 978 
Q 719 816 1070 734 
Q 1422 653 1784 653 
Q 2113 653 2278 743 
Q 2444 834 2444 1013 
Q 2444 1163 2330 1236 
Q 2216 1309 1875 1350 
L 1678 1375 
Q 931 1469 631 1722 
Q 331 1975 331 2491 
Q 331 3047 712 3315 
Q 1094 3584 1881 3584 
Q 2191 3584 2531 3537 
Q 2872 3491 3272 3391 
z
" transform="scale(0.015625)"/>
      <path id="DejaVuSans-Bold-4b" d="M 588 4666 
L 1791 4666 
L 1791 2963 
L 3525 4666 
L 4922 4666 
L 2675 2456 
L 5153 0 
L 3647 0 
L 1791 1838 
L 1791 0 
L 588 0 
L 588 4666 
z
" transform="scale(0.015625)"/>
      <path id="DejaVuSans-Bold-61" d="M 2106 1575 
Q 1756 1575 1579 1456 
Q 1403 1338 1403 1106 
Q 1403 894 1545 773 
Q 1688 653 1941 653 
Q 2256 653 2472 879 
Q 2688 1106 2688 1447 
L 2688 1575 
L 2106 1575 
z
M 3816 1997 
L 3816 0 
L 2688 0 
L 2688 519 
Q 2463 200 2181 54 
Q 1900 -91 1497 -91 
Q 953 -91 614 226 
Q 275 544 275 1050 
Q 275 1666 698 1953 
Q 1122 2241 2028 2241 
L 2688 2241 
L 2688 2328 
Q 2688 2594 2478 2717 
Q 2269 2841 1825 2841 
Q 1466 2841 1156 2769 
Q 847 2697 581 2553 
L 581 3406 
Q 941 3494 1303 3539 
Q 1666 3584 2028 3584 
Q 2975 3584 3395 3211 
Q 3816 2838 3816 1997 
z
" transform="scale(0.015625)"/>
      <path id="DejaVuSans-Bold-6e" d="M 4056 2131 
L 4056 0 
L 2931 0 
L 2931 347 
L 2931 1631 
Q 2931 2084 2911 2256 
Q 2891 2428 2841 2509 
Q 2775 2619 2662 2680 
Q 2550 2741 2406 2741 
Q 2056 2741 1856 2470 
Q 1656 2200 1656 1722 
L 1656 0 
L 538 0 
L 538 3500 
L 1656 3500 
L 1656 2988 
Q 1909 3294 2193 3439 
Q 2478 3584 2822 3584 
Q 3428 3584 3742 3212 
Q 4056 2841 4056 2131 
z
" transform="scale(0.015625)"/>
      <path id="DejaVuSans-Bold-131" d="M 538 3500 
L 1656 3500 
L 1656 0 
L 538 0 
L 538 3500 
z
" transform="scale(0.015625)"/>
      <path id="DejaVuSans-Bold-63" d="M 3366 3391 
L 3366 2478 
Q 3138 2634 2908 2709 
Q 2678 2784 2431 2784 
Q 1963 2784 1702 2511 
Q 1441 2238 1441 1747 
Q 1441 1256 1702 982 
Q 1963 709 2431 709 
Q 2694 709 2930 787 
Q 3166 866 3366 1019 
L 3366 103 
Q 3103 6 2833 -42 
Q 2563 -91 2291 -91 
Q 1344 -91 809 395 
Q 275 881 275 1747 
Q 275 2613 809 3098 
Q 1344 3584 2291 3584 
Q 2566 3584 2833 3536 
Q 3100 3488 3366 3391 
z
" transform="scale(0.015625)"/>
      <path id="DejaVuSans-Bold-79" d="M 78 3500 
L 1197 3500 
L 2138 1125 
L 2938 3500 
L 4056 3500 
L 2584 -331 
Q 2363 -916 2067 -1148 
Q 1772 -1381 1288 -1381 
L 641 -1381 
L 641 -647 
L 991 -647 
Q 1275 -647 1404 -556 
Q 1534 -466 1606 -231 
L 1638 -134 
L 78 3500 
z
" transform="scale(0.015625)"/>
     </defs>
     <use xlink:href="#DejaVuSans-Bold-53"/>
     <use xlink:href="#DejaVuSans-Bold-fc" x="72.021484"/>
     <use xlink:href="#DejaVuSans-Bold-70" x="143.212891"/>
     <use xlink:href="#DejaVuSans-Bold-65" x="214.794922"/>
     <use xlink:href="#DejaVuSans-Bold-72" x="282.617188"/>
     <use xlink:href="#DejaVuSans-Bold-76" x="331.933594"/>
     <use xlink:href="#DejaVuSans-Bold-69" x="397.119141"/>
     <use xlink:href="#DejaVuSans-Bold-7a" x="431.396484"/>
     <use xlink:href="#DejaVuSans-Bold-f6" x="489.599609"/>
     <use xlink:href="#DejaVuSans-Bold-72" x="558.300781"/>
     <use xlink:href="#DejaVuSans-Bold-20" x="607.617188"/>
     <use xlink:href="#DejaVuSans-Bold-53" x="642.431641"/>
     <use xlink:href="#DejaVuSans-Bold-6f" x="714.453125"/>
     <use xlink:href="#DejaVuSans-Bold-72" x="783.154297"/>
     <use xlink:href="#DejaVuSans-Bold-67" x="832.470703"/>
     <use xlink:href="#DejaVuSans-Bold-75" x="904.052734"/>
     <use xlink:href="#DejaVuSans-Bold-20" x="975.244141"/>
     <use xlink:href="#DejaVuSans-Bold-53" x="1010.058594"/>
     <use xlink:href="#DejaVuSans-Bold-fc" x="1082.080078"/>
     <use xlink:href="#DejaVuSans-Bold-72" x="1153.271484"/>
     <use xlink:href="#DejaVuSans-Bold-65" x="1202.587891"/>
     <use xlink:href="#DejaVuSans-Bold-6c" x="1270.410156"/>
     <use xlink:href="#DejaVuSans-Bold-65" x="1304.6875"/>
     <use xlink:href="#DejaVuSans-Bold-72" x="1372.509766"/>
     <use xlink:href="#DejaVuSans-Bold-69" x="1421.826172"/>
     <use xlink:href="#DejaVuSans-Bold-20" x="1456.103516"/>
     <use xlink:href="#DejaVuSans-Bold-76" x="1490.917969"/>
     <use xlink:href="#DejaVuSans-Bold-73" x="1556.103516"/>
     <use xlink:href="#DejaVuSans-Bold-20" x="1615.625"/>
     <use xlink:href="#DejaVuSans-Bold-4b" x="1650.439453"/>
     <use xlink:href="#DejaVuSans-Bold-75" x="1726.179688"/>
     <use xlink:href="#DejaVuSans-Bold-6c" x="1797.371094"/>
     <use xlink:href="#DejaVuSans-Bold-6c" x="1831.648438"/>
     <use xlink:href="#DejaVuSans-Bold-61" x="1865.925781"/>
     <use xlink:href="#DejaVuSans-Bold-6e" x="1933.40625"/>
     <use xlink:href="#DejaVuSans-Bold-131" x="2004.597656"/>
     <use xlink:href="#DejaVuSans-Bold-63" x="2038.875"/>
     <use xlink:href="#DejaVuSans-Bold-131" x="2098.152344"/>
     <use xlink:href="#DejaVuSans-Bold-20" x="2132.429688"/>
     <use xlink:href="#DejaVuSans-Bold-53" x="2167.244141"/>
     <use xlink:href="#DejaVuSans-Bold-61" x="2239.265625"/>
     <use xlink:href="#DejaVuSans-Bold-79" x="2303.621094"/>
     <use xlink:href="#DejaVuSans-Bold-131" x="2368.806641"/>
     <use xlink:href="#DejaVuSans-Bold-73" x="2403.083984"/>
     <use xlink:href="#DejaVuSans-Bold-131" x="2462.605469"/>
    </g>
   </g>
   <g id="legend_1">
    <g id="patch_7">
     <path d="M 55.52 100.611562 
L 211.288906 100.611562 
Q 213.088906 100.611562 213.088906 98.811562 
L 213.088906 33.66 
Q 213.088906 31.86 211.288906 31.86 
L 55.52 31.86 
Q 53.72 31.86 53.72 33.66 
L 53.72 98.811562 
Q 53.72 100.611562 55.52 100.611562 
z
" style="fill: #ffffff; opacity: 0.8; stroke: #cccccc; stroke-linejoin: miter"/>
    </g>
    <g id="line2d_38">
     <path d="M 57.32 39.148594 
L 66.32 39.148594 
L 75.32 39.148594 
" style="fill: none; stroke: #e91e63; stroke-width: 2; stroke-linecap: square"/>
     <g>
      <use xlink:href="#m9074ce4063" x="66.32" y="39.148594" style="fill: #e91e63; stroke: #e91e63"/>
     </g>
    </g>
    <g id="text_12">
     <!-- S1: Kurum Sorgulama -->
     <g transform="translate(82.52 42.298594) scale(0.09 -0.09)">
      <defs>
       <path id="DejaVuSans-3a" d="M 750 794 
L 1409 794 
L 1409 0 
L 750 0 
L 750 794 
z
M 750 3309 
L 1409 3309 
L 1409 2516 
L 750 2516 
L 750 3309 
z
" transform="scale(0.015625)"/>
       <path id="DejaVuSans-6d" d="M 3328 2828 
Q 3544 3216 3844 3400 
Q 4144 3584 4550 3584 
Q 5097 3584 5394 3201 
Q 5691 2819 5691 2113 
L 5691 0 
L 5113 0 
L 5113 2094 
Q 5113 2597 4934 2840 
Q 4756 3084 4391 3084 
Q 3944 3084 3684 2787 
Q 3425 2491 3425 1978 
L 3425 0 
L 2847 0 
L 2847 2094 
Q 2847 2600 2669 2842 
Q 2491 3084 2119 3084 
Q 1678 3084 1418 2786 
Q 1159 2488 1159 1978 
L 1159 0 
L 581 0 
L 581 3500 
L 1159 3500 
L 1159 2956 
Q 1356 3278 1631 3431 
Q 1906 3584 2284 3584 
Q 2666 3584 2933 3390 
Q 3200 3197 3328 2828 
z
" transform="scale(0.015625)"/>
      </defs>
      <use xlink:href="#DejaVuSans-53"/>
      <use xlink:href="#DejaVuSans-31" x="63.476562"/>
      <use xlink:href="#DejaVuSans-3a" x="127.099609"/>
      <use xlink:href="#DejaVuSans-20" x="160.791016"/>
      <use xlink:href="#DejaVuSans-4b" x="192.578125"/>
      <use xlink:href="#DejaVuSans-75" x="253.154297"/>
      <use xlink:href="#DejaVuSans-72" x="316.533203"/>
      <use xlink:href="#DejaVuSans-75" x="357.646484"/>
      <use xlink:href="#DejaVuSans-6d" x="421.025391"/>
      <use xlink:href="#DejaVuSans-20" x="518.4375"/>
      <use xlink:href="#DejaVuSans-53" x="550.224609"/>
      <use xlink:href="#DejaVuSans-6f" x="613.701172"/>
      <use xlink:href="#DejaVuSans-72" x="674.882812"/>
      <use xlink:href="#DejaVuSans-67" x="714.246094"/>
      <use xlink:href="#DejaVuSans-75" x="777.722656"/>
      <use xlink:href="#DejaVuSans-6c" x="841.101562"/>
      <use xlink:href="#DejaVuSans-61" x="868.884766"/>
      <use xlink:href="#DejaVuSans-6d" x="930.164062"/>
      <use xlink:href="#DejaVuSans-61" x="1027.576172"/>
     </g>
    </g>
    <g id="line2d_39">
     <path d="M 57.32 52.358906 
L 66.32 52.358906 
L 75.32 52.358906 
" style="fill: none; stroke: #ff9800; stroke-width: 2; stroke-linecap: square"/>
     <g>
      <use xlink:href="#m57e458b062" x="66.32" y="52.358906" style="fill: #ff9800; stroke: #ff9800"/>
     </g>
    </g>
    <g id="text_13">
     <!-- S2: Uzman Sorgulama -->
     <g transform="translate(82.52 55.508906) scale(0.09 -0.09)">
      <defs>
       <path id="DejaVuSans-55" d="M 556 4666 
L 1191 4666 
L 1191 1831 
Q 1191 1081 1462 751 
Q 1734 422 2344 422 
Q 2950 422 3222 751 
Q 3494 1081 3494 1831 
L 3494 4666 
L 4128 4666 
L 4128 1753 
Q 4128 841 3676 375 
Q 3225 -91 2344 -91 
Q 1459 -91 1007 375 
Q 556 841 556 1753 
L 556 4666 
z
" transform="scale(0.015625)"/>
       <path id="DejaVuSans-7a" d="M 353 3500 
L 3084 3500 
L 3084 2975 
L 922 459 
L 3084 459 
L 3084 0 
L 275 0 
L 275 525 
L 2438 3041 
L 353 3041 
L 353 3500 
z
" transform="scale(0.015625)"/>
      </defs>
      <use xlink:href="#DejaVuSans-53"/>
      <use xlink:href="#DejaVuSans-32" x="63.476562"/>
      <use xlink:href="#DejaVuSans-3a" x="127.099609"/>
      <use xlink:href="#DejaVuSans-20" x="160.791016"/>
      <use xlink:href="#DejaVuSans-55" x="192.578125"/>
      <use xlink:href="#DejaVuSans-7a" x="265.771484"/>
      <use xlink:href="#DejaVuSans-6d" x="318.261719"/>
      <use xlink:href="#DejaVuSans-61" x="415.673828"/>
      <use xlink:href="#DejaVuSans-6e" x="476.953125"/>
      <use xlink:href="#DejaVuSans-20" x="540.332031"/>
      <use xlink:href="#DejaVuSans-53" x="572.119141"/>
      <use xlink:href="#DejaVuSans-6f" x="635.595703"/>
      <use xlink:href="#DejaVuSans-72" x="696.777344"/>
      <use xlink:href="#DejaVuSans-67" x="736.140625"/>
      <use xlink:href="#DejaVuSans-75" x="799.617188"/>
      <use xlink:href="#DejaVuSans-6c" x="862.996094"/>
      <use xlink:href="#DejaVuSans-61" x="890.779297"/>
      <use xlink:href="#DejaVuSans-6d" x="952.058594"/>
      <use xlink:href="#DejaVuSans-61" x="1049.470703"/>
     </g>
    </g>
    <g id="line2d_40">
     <path d="M 57.32 65.569219 
L 66.32 65.569219 
L 75.32 65.569219 
" style="fill: none; stroke: #9c27b0; stroke-width: 2; stroke-linecap: square"/>
     <g>
      <use xlink:href="#m29cc457fca" x="66.32" y="65.569219" style="fill: #9c27b0; stroke: #9c27b0"/>
     </g>
    </g>
    <g id="text_14">
     <!-- S3: Olay Türü Sorgulama -->
     <g transform="translate(82.52 68.719219) scale(0.09 -0.09)">
      <defs>
       <path id="DejaVuSans-4f" d="M 2522 4238 
Q 1834 4238 1429 3725 
Q 1025 3213 1025 2328 
Q 1025 1447 1429 934 
Q 1834 422 2522 422 
Q 3209 422 3611 934 
Q 4013 1447 4013 2328 
Q 4013 3213 3611 3725 
Q 3209 4238 2522 4238 
z
M 2522 4750 
Q 3503 4750 4090 4092 
Q 4678 3434 4678 2328 
Q 4678 1225 4090 567 
Q 3503 -91 2522 -91 
Q 1538 -91 948 565 
Q 359 1222 359 2328 
Q 359 3434 948 4092 
Q 1538 4750 2522 4750 
z
" transform="scale(0.015625)"/>
       <path id="DejaVuSans-54" d="M -19 4666 
L 3928 4666 
L 3928 4134 
L 2272 4134 
L 2272 0 
L 1638 0 
L 1638 4134 
L -19 4134 
L -19 4666 
z
" transform="scale(0.015625)"/>
      </defs>
      <use xlink:href="#DejaVuSans-53"/>
      <use xlink:href="#DejaVuSans-33" x="63.476562"/>
      <use xlink:href="#DejaVuSans-3a" x="127.099609"/>
      <use xlink:href="#DejaVuSans-20" x="160.791016"/>
      <use xlink:href="#DejaVuSans-4f" x="192.578125"/>
      <use xlink:href="#DejaVuSans-6c" x="271.289062"/>
      <use xlink:href="#DejaVuSans-61" x="299.072266"/>
      <use xlink:href="#DejaVuSans-79" x="360.351562"/>
      <use xlink:href="#DejaVuSans-20" x="419.53125"/>
      <use xlink:href="#DejaVuSans-54" x="451.318359"/>
      <use xlink:href="#DejaVuSans-fc" x="498.652344"/>
      <use xlink:href="#DejaVuSans-72" x="562.03125"/>
      <use xlink:href="#DejaVuSans-fc" x="603.144531"/>
      <use xlink:href="#DejaVuSans-20" x="666.523438"/>
      <use xlink:href="#DejaVuSans-53" x="698.310547"/>
      <use xlink:href="#DejaVuSans-6f" x="761.787109"/>
      <use xlink:href="#DejaVuSans-72" x="822.96875"/>
      <use xlink:href="#DejaVuSans-67" x="862.332031"/>
      <use xlink:href="#DejaVuSans-75" x="925.808594"/>
      <use xlink:href="#DejaVuSans-6c" x="989.1875"/>
      <use xlink:href="#DejaVuSans-61" x="1016.970703"/>
      <use xlink:href="#DejaVuSans-6d" x="1078.25"/>
      <use xlink:href="#DejaVuSans-61" x="1175.662109"/>
     </g>
    </g>
    <g id="line2d_41">
     <path d="M 57.32 78.779531 
L 66.32 78.779531 
L 75.32 78.779531 
" style="fill: none; stroke: #00bcd4; stroke-width: 2; stroke-linecap: square"/>
     <g>
      <use xlink:href="#mf38a8a1279" x="66.32" y="78.779531" style="fill: #00bcd4; stroke: #00bcd4"/>
     </g>
    </g>
    <g id="text_15">
     <!-- S4: Medyalı Olay Sorgulama -->
     <g transform="translate(82.52 81.929531) scale(0.09 -0.09)">
      <defs>
       <path id="DejaVuSans-34" d="M 2419 4116 
L 825 1625 
L 2419 1625 
L 2419 4116 
z
M 2253 4666 
L 3047 4666 
L 3047 1625 
L 3713 1625 
L 3713 1100 
L 3047 1100 
L 3047 0 
L 2419 0 
L 2419 1100 
L 313 1100 
L 313 1709 
L 2253 4666 
z
" transform="scale(0.015625)"/>
       <path id="DejaVuSans-4d" d="M 628 4666 
L 1569 4666 
L 2759 1491 
L 3956 4666 
L 4897 4666 
L 4897 0 
L 4281 0 
L 4281 4097 
L 3078 897 
L 2444 897 
L 1241 4097 
L 1241 0 
L 628 0 
L 628 4666 
z
" transform="scale(0.015625)"/>
       <path id="DejaVuSans-64" d="M 2906 2969 
L 2906 4863 
L 3481 4863 
L 3481 0 
L 2906 0 
L 2906 525 
Q 2725 213 2448 61 
Q 2172 -91 1784 -91 
Q 1150 -91 751 415 
Q 353 922 353 1747 
Q 353 2572 751 3078 
Q 1150 3584 1784 3584 
Q 2172 3584 2448 3432 
Q 2725 3281 2906 2969 
z
M 947 1747 
Q 947 1113 1208 752 
Q 1469 391 1925 391 
Q 2381 391 2643 752 
Q 2906 1113 2906 1747 
Q 2906 2381 2643 2742 
Q 2381 3103 1925 3103 
Q 1469 3103 1208 2742 
Q 947 2381 947 1747 
z
" transform="scale(0.015625)"/>
      </defs>
      <use xlink:href="#DejaVuSans-53"/>
      <use xlink:href="#DejaVuSans-34" x="63.476562"/>
      <use xlink:href="#DejaVuSans-3a" x="127.099609"/>
      <use xlink:href="#DejaVuSans-20" x="160.791016"/>
      <use xlink:href="#DejaVuSans-4d" x="192.578125"/>
      <use xlink:href="#DejaVuSans-65" x="278.857422"/>
      <use xlink:href="#DejaVuSans-64" x="340.380859"/>
      <use xlink:href="#DejaVuSans-79" x="403.857422"/>
      <use xlink:href="#DejaVuSans-61" x="463.037109"/>
      <use xlink:href="#DejaVuSans-6c" x="524.316406"/>
      <use xlink:href="#DejaVuSans-131" x="552.099609"/>
      <use xlink:href="#DejaVuSans-20" x="579.882812"/>
      <use xlink:href="#DejaVuSans-4f" x="611.669922"/>
      <use xlink:href="#DejaVuSans-6c" x="690.380859"/>
      <use xlink:href="#DejaVuSans-61" x="718.164062"/>
      <use xlink:href="#DejaVuSans-79" x="779.443359"/>
      <use xlink:href="#DejaVuSans-20" x="838.623047"/>
      <use xlink:href="#DejaVuSans-53" x="870.410156"/>
      <use xlink:href="#DejaVuSans-6f" x="933.886719"/>
      <use xlink:href="#DejaVuSans-72" x="995.068359"/>
      <use xlink:href="#DejaVuSans-67" x="1034.431641"/>
      <use xlink:href="#DejaVuSans-75" x="1097.908203"/>
      <use xlink:href="#DejaVuSans-6c" x="1161.287109"/>
      <use xlink:href="#DejaVuSans-61" x="1189.070312"/>
      <use xlink:href="#DejaVuSans-6d" x="1250.349609"/>
      <use xlink:href="#DejaVuSans-61" x="1347.761719"/>
     </g>
    </g>
    <g id="line2d_42">
     <path d="M 57.32 91.989844 
L 66.32 91.989844 
L 75.32 91.989844 
" style="fill: none; stroke: #8bc34a; stroke-width: 2; stroke-linecap: square"/>
     <g>
      <use xlink:href="#m456cb602ce" x="66.32" y="91.989844" style="fill: #8bc34a; stroke: #8bc34a"/>
     </g>
    </g>
    <g id="text_16">
     <!-- S5: Tarih+Kurum Sorgulama -->
     <g transform="translate(82.52 95.139844) scale(0.09 -0.09)">
      <defs>
       <path id="DejaVuSans-68" d="M 3513 2113 
L 3513 0 
L 2938 0 
L 2938 2094 
Q 2938 2591 2744 2837 
Q 2550 3084 2163 3084 
Q 1697 3084 1428 2787 
Q 1159 2491 1159 1978 
L 1159 0 
L 581 0 
L 581 4863 
L 1159 4863 
L 1159 2956 
Q 1366 3272 1645 3428 
Q 1925 3584 2291 3584 
Q 2894 3584 3203 3211 
Q 3513 2838 3513 2113 
z
" transform="scale(0.015625)"/>
       <path id="DejaVuSans-2b" d="M 2944 4013 
L 2944 2272 
L 4684 2272 
L 4684 1741 
L 2944 1741 
L 2944 0 
L 2419 0 
L 2419 1741 
L 678 1741 
L 678 2272 
L 2419 2272 
L 2419 4013 
L 2944 4013 
z
" transform="scale(0.015625)"/>
      </defs>
      <use xlink:href="#DejaVuSans-53"/>
      <use xlink:href="#DejaVuSans-35" x="63.476562"/>
      <use xlink:href="#DejaVuSans-3a" x="127.099609"/>
      <use xlink:href="#DejaVuSans-20" x="160.791016"/>
      <use xlink:href="#DejaVuSans-54" x="192.578125"/>
      <use xlink:href="#DejaVuSans-61" x="237.162109"/>
      <use xlink:href="#DejaVuSans-72" x="298.441406"/>
      <use xlink:href="#DejaVuSans-69" x="339.554688"/>
      <use xlink:href="#DejaVuSans-68" x="367.337891"/>
      <use xlink:href="#DejaVuSans-2b" x="430.716797"/>
      <use xlink:href="#DejaVuSans-4b" x="514.505859"/>
      <use xlink:href="#DejaVuSans-75" x="575.082031"/>
      <use xlink:href="#DejaVuSans-72" x="638.460938"/>
      <use xlink:href="#DejaVuSans-75" x="679.574219"/>
      <use xlink:href="#DejaVuSans-6d" x="742.953125"/>
      <use xlink:href="#DejaVuSans-20" x="840.365234"/>
      <use xlink:href="#DejaVuSans-53" x="872.152344"/>
      <use xlink:href="#DejaVuSans-6f" x="935.628906"/>
      <use xlink:href="#DejaVuSans-72" x="996.810547"/>
      <use xlink:href="#DejaVuSans-67" x="1036.173828"/>
      <use xlink:href="#DejaVuSans-75" x="1099.650391"/>
      <use xlink:href="#DejaVuSans-6c" x="1163.029297"/>
      <use xlink:href="#DejaVuSans-61" x="1190.8125"/>
      <use xlink:href="#DejaVuSans-6d" x="1252.091797"/>
      <use xlink:href="#DejaVuSans-61" x="1349.503906"/>
     </g>
    </g>
   </g>
  </g>
 </g>
 <defs>
  <clipPath id="p0f897799f3">
   <rect x="49.22" y="27.36" width="947.98" height="431.224"/>
  </clipPath>
 </defs>
</svg>
