<?xml version="1.0" encoding="utf-8" standalone="no"?>
<!DOCTYPE svg PUBLIC "-//W3C//DTD SVG 1.1//EN"
  "http://www.w3.org/Graphics/SVG/1.1/DTD/svg11.dtd">
<svg xmlns:xlink="http://www.w3.org/1999/xlink" width="864pt" height="432pt" viewBox="0 0 864 432" xmlns="http://www.w3.org/2000/svg" version="1.1">
 <metadata>
  <rdf:RDF xmlns:dc="http://purl.org/dc/elements/1.1/" xmlns:cc="http://creativecommons.org/ns#" xmlns:rdf="http://www.w3.org/1999/02/22-rdf-syntax-ns#">
   <cc:Work>
    <dc:type rdf:resource="http://purl.org/dc/dcmitype/StillImage"/>
    <dc:date>2026-03-15T10:05:36.304977</dc:date>
    <dc:format>image/svg+xml</dc:format>
    <dc:creator>
     <cc:Agent>
      <dc:title>Matplotlib v3.9.0, https://matplotlib.org/</dc:title>
     </cc:Agent>
    </dc:creator>
   </cc:Work>
  </rdf:RDF>
 </metadata>
 <defs>
  <style type="text/css">*{stroke-linejoin: round; stroke-linecap: butt}</style>
 </defs>
 <g id="figure_1">
  <g id="patch_1">
   <path d="M 0 432 
L 864 432 
L 864 0 
L 0 0 
z
" style="fill: #ffffff"/>
  </g>
  <g id="axes_1">
   <g id="patch_2">
    <path d="M 66.66 380.58 
L 851.04 380.58 
L 851.04 30 
L 66.66 30 
z
" style="fill: #ffffff"/>
   </g>
   <g id="matplotlib.axis_1">
    <g id="xtick_1">
     <g id="line2d_1">
      <path d="M 306.688916 380.58 
L 306.688916 30 
" clip-path="url(#p21406ff620)" style="fill: none; stroke: #b0b0b0; stroke-opacity: 0.3; stroke-width: 0.5; stroke-linecap: square"/>
     </g>
     <g id="line2d_2">
      <defs>
       <path id="md087f7d5ee" d="M 0 0 
L 0 6 
" style="stroke: #000000; stroke-width: 2"/>
      </defs>
      <g>
       <use xlink:href="#md087f7d5ee" x="306.688916" y="380.58" style="stroke: #000000; stroke-width: 2"/>
      </g>
     </g>
     <g id="text_1">
      <!-- 100 -->
      <g transform="translate(295.236416 399.198125) scale(0.12 -0.12)">
       <defs>
        <path id="DejaVuSans-31" d="M 794 531 
L 1825 531 
L 1825 4091 
L 703 3866 
L 703 4441 
L 1819 4666 
L 2450 4666 
L 2450 531 
L 3481 531 
L 3481 0 
L 794 0 
L 794 531 
z
" transform="scale(0.015625)"/>
        <path id="DejaVuSans-30" d="M 2034 4250 
Q 1547 4250 1301 3770 
Q 1056 3291 1056 2328 
Q 1056 1369 1301 889 
Q 1547 409 2034 409 
Q 2525 409 2770 889 
Q 3016 1369 3016 2328 
Q 3016 3291 2770 3770 
Q 2525 4250 2034 4250 
z
M 2034 4750 
Q 2819 4750 3233 4129 
Q 3647 3509 3647 2328 
Q 3647 1150 3233 529 
Q 2819 -91 2034 -91 
Q 1250 -91 836 529 
Q 422 1150 422 2328 
Q 422 3509 836 4129 
Q 1250 4750 2034 4750 
z
" transform="scale(0.015625)"/>
       </defs>
       <use xlink:href="#DejaVuSans-31"/>
       <use xlink:href="#DejaVuSans-30" x="63.623047"/>
       <use xlink:href="#DejaVuSans-30" x="127.246094"/>
      </g>
     </g>
    </g>
    <g id="xtick_2">
     <g id="line2d_3">
      <path d="M 697.554448 380.58 
L 697.554448 30 
" clip-path="url(#p21406ff620)" style="fill: none; stroke: #b0b0b0; stroke-opacity: 0.3; stroke-width: 0.5; stroke-linecap: square"/>
     </g>
     <g id="line2d_4">
      <g>
       <use xlink:href="#md087f7d5ee" x="697.554448" y="380.58" style="stroke: #000000; stroke-width: 2"/>
      </g>
     </g>
     <g id="text_2">
      <!-- 1,000 -->
      <g transform="translate(680.377573 399.198125) scale(0.12 -0.12)">
       <defs>
        <path id="DejaVuSans-2c" d="M 750 794 
L 1409 794 
L 1409 256 
L 897 -744 
L 494 -744 
L 750 256 
L 750 794 
z
" transform="scale(0.015625)"/>
       </defs>
       <use xlink:href="#DejaVuSans-31"/>
       <use xlink:href="#DejaVuSans-2c" x="63.623047"/>
       <use xlink:href="#DejaVuSans-30" x="95.410156"/>
       <use xlink:href="#DejaVuSans-30" x="159.033203"/>
       <use xlink:href="#DejaVuSans-30" x="222.65625"/>
      </g>
     </g>
    </g>
    <g id="xtick_3">
     <g id="line2d_5">
      <defs>
       <path id="m164544f4e1" d="M 0 0 
L 0 2 
" style="stroke: #000000; stroke-width: 0.6"/>
      </defs>
      <g>
       <use xlink:href="#m164544f4e1" x="102.313636" y="380.58" style="stroke: #000000; stroke-width: 0.6"/>
      </g>
     </g>
    </g>
    <g id="xtick_4">
     <g id="line2d_6">
      <g>
       <use xlink:href="#m164544f4e1" x="151.147882" y="380.58" style="stroke: #000000; stroke-width: 0.6"/>
      </g>
     </g>
    </g>
    <g id="xtick_5">
     <g id="line2d_7">
      <g>
       <use xlink:href="#m164544f4e1" x="189.026666" y="380.58" style="stroke: #000000; stroke-width: 0.6"/>
      </g>
     </g>
    </g>
    <g id="xtick_6">
     <g id="line2d_8">
      <g>
       <use xlink:href="#m164544f4e1" x="219.975886" y="380.58" style="stroke: #000000; stroke-width: 0.6"/>
      </g>
     </g>
    </g>
    <g id="xtick_7">
     <g id="line2d_9">
      <g>
       <use xlink:href="#m164544f4e1" x="246.143079" y="380.58" style="stroke: #000000; stroke-width: 0.6"/>
      </g>
     </g>
    </g>
    <g id="xtick_8">
     <g id="line2d_10">
      <g>
       <use xlink:href="#m164544f4e1" x="268.810132" y="380.58" style="stroke: #000000; stroke-width: 0.6"/>
      </g>
     </g>
    </g>
    <g id="xtick_9">
     <g id="line2d_11">
      <g>
       <use xlink:href="#m164544f4e1" x="288.80389" y="380.58" style="stroke: #000000; stroke-width: 0.6"/>
      </g>
     </g>
    </g>
    <g id="xtick_10">
     <g id="line2d_12">
      <g>
       <use xlink:href="#m164544f4e1" x="424.351165" y="380.58" style="stroke: #000000; stroke-width: 0.6"/>
      </g>
     </g>
    </g>
    <g id="xtick_11">
     <g id="line2d_13">
      <g>
       <use xlink:href="#m164544f4e1" x="493.179169" y="380.58" style="stroke: #000000; stroke-width: 0.6"/>
      </g>
     </g>
    </g>
    <g id="xtick_12">
     <g id="line2d_14">
      <g>
       <use xlink:href="#m164544f4e1" x="542.013415" y="380.58" style="stroke: #000000; stroke-width: 0.6"/>
      </g>
     </g>
    </g>
    <g id="xtick_13">
     <g id="line2d_15">
      <g>
       <use xlink:href="#m164544f4e1" x="579.892199" y="380.58" style="stroke: #000000; stroke-width: 0.6"/>
      </g>
     </g>
    </g>
    <g id="xtick_14">
     <g id="line2d_16">
      <g>
       <use xlink:href="#m164544f4e1" x="610.841418" y="380.58" style="stroke: #000000; stroke-width: 0.6"/>
      </g>
     </g>
    </g>
    <g id="xtick_15">
     <g id="line2d_17">
      <g>
       <use xlink:href="#m164544f4e1" x="637.008611" y="380.58" style="stroke: #000000; stroke-width: 0.6"/>
      </g>
     </g>
    </g>
    <g id="xtick_16">
     <g id="line2d_18">
      <g>
       <use xlink:href="#m164544f4e1" x="659.675664" y="380.58" style="stroke: #000000; stroke-width: 0.6"/>
      </g>
     </g>
    </g>
    <g id="xtick_17">
     <g id="line2d_19">
      <g>
       <use xlink:href="#m164544f4e1" x="679.669422" y="380.58" style="stroke: #000000; stroke-width: 0.6"/>
      </g>
     </g>
    </g>
    <g id="xtick_18">
     <g id="line2d_20">
      <g>
       <use xlink:href="#m164544f4e1" x="815.216698" y="380.58" style="stroke: #000000; stroke-width: 0.6"/>
      </g>
     </g>
    </g>
    <g id="text_3">
     <!-- Kullanıcı Sayısı -->
     <g transform="translate(399.598281 416.331563) scale(0.14 -0.14)">
      <defs>
       <path id="DejaVuSans-Bold-4b" d="M 588 4666 
L 1791 4666 
L 1791 2963 
L 3525 4666 
L 4922 4666 
L 2675 2456 
L 5153 0 
L 3647 0 
L 1791 1838 
L 1791 0 
L 588 0 
L 588 4666 
z
" transform="scale(0.015625)"/>
       <path id="DejaVuSans-Bold-75" d="M 500 1363 
L 500 3500 
L 1625 3500 
L 1625 3150 
Q 1625 2866 1622 2436 
Q 1619 2006 1619 1863 
Q 1619 1441 1641 1255 
Q 1663 1069 1716 984 
Q 1784 875 1895 815 
Q 2006 756 2150 756 
Q 2500 756 2700 1025 
Q 2900 1294 2900 1772 
L 2900 3500 
L 4019 3500 
L 4019 0 
L 2900 0 
L 2900 506 
Q 2647 200 2364 54 
Q 2081 -91 1741 -91 
Q 1134 -91 817 281 
Q 500 653 500 1363 
z
" transform="scale(0.015625)"/>
       <path id="DejaVuSans-Bold-6c" d="M 538 4863 
L 1656 4863 
L 1656 0 
L 538 0 
L 538 4863 
z
" transform="scale(0.015625)"/>
       <path id="DejaVuSans-Bold-61" d="M 2106 1575 
Q 1756 1575 1579 1456 
Q 1403 1338 1403 1106 
Q 1403 894 1545 773 
Q 1688 653 1941 653 
Q 2256 653 2472 879 
Q 2688 1106 2688 1447 
L 2688 1575 
L 2106 1575 
z
M 3816 1997 
L 3816 0 
L 2688 0 
L 2688 519 
Q 2463 200 2181 54 
Q 1900 -91 1497 -91 
Q 953 -91 614 226 
Q 275 544 275 1050 
Q 275 1666 698 1953 
Q 1122 2241 2028 2241 
L 2688 2241 
L 2688 2328 
Q 2688 2594 2478 2717 
Q 2269 2841 1825 2841 
Q 1466 2841 1156 2769 
Q 847 2697 581 2553 
L 581 3406 
Q 941 3494 1303 3539 
Q 1666 3584 2028 3584 
Q 2975 3584 3395 3211 
Q 3816 2838 3816 1997 
z
" transform="scale(0.015625)"/>
       <path id="DejaVuSans-Bold-6e" d="M 4056 2131 
L 4056 0 
L 2931 0 
L 2931 347 
L 2931 1631 
Q 2931 2084 2911 2256 
Q 2891 2428 2841 2509 
Q 2775 2619 2662 2680 
Q 2550 2741 2406 2741 
Q 2056 2741 1856 2470 
Q 1656 2200 1656 1722 
L 1656 0 
L 538 0 
L 538 3500 
L 1656 3500 
L 1656 2988 
Q 1909 3294 2193 3439 
Q 2478 3584 2822 3584 
Q 3428 3584 3742 3212 
Q 4056 2841 4056 2131 
z
" transform="scale(0.015625)"/>
       <path id="DejaVuSans-Bold-131" d="M 538 3500 
L 1656 3500 
L 1656 0 
L 538 0 
L 538 3500 
z
" transform="scale(0.015625)"/>
       <path id="DejaVuSans-Bold-63" d="M 3366 3391 
L 3366 2478 
Q 3138 2634 2908 2709 
Q 2678 2784 2431 2784 
Q 1963 2784 1702 2511 
Q 1441 2238 1441 1747 
Q 1441 1256 1702 982 
Q 1963 709 2431 709 
Q 2694 709 2930 787 
Q 3166 866 3366 1019 
L 3366 103 
Q 3103 6 2833 -42 
Q 2563 -91 2291 -91 
Q 1344 -91 809 395 
Q 275 881 275 1747 
Q 275 2613 809 3098 
Q 1344 3584 2291 3584 
Q 2566 3584 2833 3536 
Q 3100 3488 3366 3391 
z
" transform="scale(0.015625)"/>
       <path id="DejaVuSans-Bold-20" transform="scale(0.015625)"/>
       <path id="DejaVuSans-Bold-53" d="M 3834 4519 
L 3834 3531 
Q 3450 3703 3084 3790 
Q 2719 3878 2394 3878 
Q 1963 3878 1756 3759 
Q 1550 3641 1550 3391 
Q 1550 3203 1689 3098 
Q 1828 2994 2194 2919 
L 2706 2816 
Q 3484 2659 3812 2340 
Q 4141 2022 4141 1434 
Q 4141 663 3683 286 
Q 3225 -91 2284 -91 
Q 1841 -91 1394 -6 
Q 947 78 500 244 
L 500 1259 
Q 947 1022 1364 901 
Q 1781 781 2169 781 
Q 2563 781 2772 912 
Q 2981 1044 2981 1288 
Q 2981 1506 2839 1625 
Q 2697 1744 2272 1838 
L 1806 1941 
Q 1106 2091 782 2419 
Q 459 2747 459 3303 
Q 459 4000 909 4375 
Q 1359 4750 2203 4750 
Q 2588 4750 2994 4692 
Q 3400 4634 3834 4519 
z
" transform="scale(0.015625)"/>
       <path id="DejaVuSans-Bold-79" d="M 78 3500 
L 1197 3500 
L 2138 1125 
L 2938 3500 
L 4056 3500 
L 2584 -331 
Q 2363 -916 2067 -1148 
Q 1772 -1381 1288 -1381 
L 641 -1381 
L 641 -647 
L 991 -647 
Q 1275 -647 1404 -556 
Q 1534 -466 1606 -231 
L 1638 -134 
L 78 3500 
z
" transform="scale(0.015625)"/>
       <path id="DejaVuSans-Bold-73" d="M 3272 3391 
L 3272 2541 
Q 2913 2691 2578 2766 
Q 2244 2841 1947 2841 
Q 1628 2841 1473 2761 
Q 1319 2681 1319 2516 
Q 1319 2381 1436 2309 
Q 1553 2238 1856 2203 
L 2053 2175 
Q 2913 2066 3209 1816 
Q 3506 1566 3506 1031 
Q 3506 472 3093 190 
Q 2681 -91 1863 -91 
Q 1516 -91 1145 -36 
Q 775 19 384 128 
L 384 978 
Q 719 816 1070 734 
Q 1422 653 1784 653 
Q 2113 653 2278 743 
Q 2444 834 2444 1013 
Q 2444 1163 2330 1236 
Q 2216 1309 1875 1350 
L 1678 1375 
Q 931 1469 631 1722 
Q 331 1975 331 2491 
Q 331 3047 712 3315 
Q 1094 3584 1881 3584 
Q 2191 3584 2531 3537 
Q 2872 3491 3272 3391 
z
" transform="scale(0.015625)"/>
      </defs>
      <use xlink:href="#DejaVuSans-Bold-4b"/>
      <use xlink:href="#DejaVuSans-Bold-75" x="75.740234"/>
      <use xlink:href="#DejaVuSans-Bold-6c" x="146.931641"/>
      <use xlink:href="#DejaVuSans-Bold-6c" x="181.208984"/>
      <use xlink:href="#DejaVuSans-Bold-61" x="215.486328"/>
      <use xlink:href="#DejaVuSans-Bold-6e" x="282.966797"/>
      <use xlink:href="#DejaVuSans-Bold-131" x="354.158203"/>
      <use xlink:href="#DejaVuSans-Bold-63" x="388.435547"/>
      <use xlink:href="#DejaVuSans-Bold-131" x="447.712891"/>
      <use xlink:href="#DejaVuSans-Bold-20" x="481.990234"/>
      <use xlink:href="#DejaVuSans-Bold-53" x="516.804688"/>
      <use xlink:href="#DejaVuSans-Bold-61" x="588.826172"/>
      <use xlink:href="#DejaVuSans-Bold-79" x="653.181641"/>
      <use xlink:href="#DejaVuSans-Bold-131" x="718.367188"/>
      <use xlink:href="#DejaVuSans-Bold-73" x="752.644531"/>
      <use xlink:href="#DejaVuSans-Bold-131" x="812.166016"/>
     </g>
    </g>
   </g>
   <g id="matplotlib.axis_2">
    <g id="ytick_1">
     <g id="line2d_21">
      <path d="M 66.66 370.414572 
L 851.04 370.414572 
" clip-path="url(#p21406ff620)" style="fill: none; stroke: #b0b0b0; stroke-opacity: 0.3; stroke-width: 0.5; stroke-linecap: square"/>
     </g>
     <g id="line2d_22">
      <defs>
       <path id="m9c054b7413" d="M 0 0 
L -6 0 
" style="stroke: #000000; stroke-width: 2"/>
      </defs>
      <g>
       <use xlink:href="#m9c054b7413" x="66.66" y="370.414572" style="stroke: #000000; stroke-width: 2"/>
      </g>
     </g>
     <g id="text_4">
      <!-- 0.00 -->
      <g transform="translate(30.44125 374.973634) scale(0.12 -0.12)">
       <defs>
        <path id="DejaVuSans-2e" d="M 684 794 
L 1344 794 
L 1344 0 
L 684 0 
L 684 794 
z
" transform="scale(0.015625)"/>
       </defs>
       <use xlink:href="#DejaVuSans-30"/>
       <use xlink:href="#DejaVuSans-2e" x="63.623047"/>
       <use xlink:href="#DejaVuSans-30" x="95.410156"/>
       <use xlink:href="#DejaVuSans-30" x="159.033203"/>
      </g>
     </g>
    </g>
    <g id="ytick_2">
     <g id="line2d_23">
      <path d="M 66.66 327.987909 
L 851.04 327.987909 
" clip-path="url(#p21406ff620)" style="fill: none; stroke: #b0b0b0; stroke-opacity: 0.3; stroke-width: 0.5; stroke-linecap: square"/>
     </g>
     <g id="line2d_24">
      <g>
       <use xlink:href="#m9c054b7413" x="66.66" y="327.987909" style="stroke: #000000; stroke-width: 2"/>
      </g>
     </g>
     <g id="text_5">
      <!-- 0.25 -->
      <g transform="translate(30.44125 332.546971) scale(0.12 -0.12)">
       <defs>
        <path id="DejaVuSans-32" d="M 1228 531 
L 3431 531 
L 3431 0 
L 469 0 
L 469 531 
Q 828 903 1448 1529 
Q 2069 2156 2228 2338 
Q 2531 2678 2651 2914 
Q 2772 3150 2772 3378 
Q 2772 3750 2511 3984 
Q 2250 4219 1831 4219 
Q 1534 4219 1204 4116 
Q 875 4013 500 3803 
L 500 4441 
Q 881 4594 1212 4672 
Q 1544 4750 1819 4750 
Q 2544 4750 2975 4387 
Q 3406 4025 3406 3419 
Q 3406 3131 3298 2873 
Q 3191 2616 2906 2266 
Q 2828 2175 2409 1742 
Q 1991 1309 1228 531 
z
" transform="scale(0.015625)"/>
        <path id="DejaVuSans-35" d="M 691 4666 
L 3169 4666 
L 3169 4134 
L 1269 4134 
L 1269 2991 
Q 1406 3038 1543 3061 
Q 1681 3084 1819 3084 
Q 2600 3084 3056 2656 
Q 3513 2228 3513 1497 
Q 3513 744 3044 326 
Q 2575 -91 1722 -91 
Q 1428 -91 1123 -41 
Q 819 9 494 109 
L 494 744 
Q 775 591 1075 516 
Q 1375 441 1709 441 
Q 2250 441 2565 725 
Q 2881 1009 2881 1497 
Q 2881 1984 2565 2268 
Q 2250 2553 1709 2553 
Q 1456 2553 1204 2497 
Q 953 2441 691 2322 
L 691 4666 
z
" transform="scale(0.015625)"/>
       </defs>
       <use xlink:href="#DejaVuSans-30"/>
       <use xlink:href="#DejaVuSans-2e" x="63.623047"/>
       <use xlink:href="#DejaVuSans-32" x="95.410156"/>
       <use xlink:href="#DejaVuSans-35" x="159.033203"/>
      </g>
     </g>
    </g>
    <g id="ytick_3">
     <g id="line2d_25">
      <path d="M 66.66 285.561246 
L 851.04 285.561246 
" clip-path="url(#p21406ff620)" style="fill: none; stroke: #b0b0b0; stroke-opacity: 0.3; stroke-width: 0.5; stroke-linecap: square"/>
     </g>
     <g id="line2d_26">
      <g>
       <use xlink:href="#m9c054b7413" x="66.66" y="285.561246" style="stroke: #000000; stroke-width: 2"/>
      </g>
     </g>
     <g id="text_6">
      <!-- 0.50 -->
      <g transform="translate(30.44125 290.120309) scale(0.12 -0.12)">
       <use xlink:href="#DejaVuSans-30"/>
       <use xlink:href="#DejaVuSans-2e" x="63.623047"/>
       <use xlink:href="#DejaVuSans-35" x="95.410156"/>
       <use xlink:href="#DejaVuSans-30" x="159.033203"/>
      </g>
     </g>
    </g>
    <g id="ytick_4">
     <g id="line2d_27">
      <path d="M 66.66 243.134583 
L 851.04 243.134583 
" clip-path="url(#p21406ff620)" style="fill: none; stroke: #b0b0b0; stroke-opacity: 0.3; stroke-width: 0.5; stroke-linecap: square"/>
     </g>
     <g id="line2d_28">
      <g>
       <use xlink:href="#m9c054b7413" x="66.66" y="243.134583" style="stroke: #000000; stroke-width: 2"/>
      </g>
     </g>
     <g id="text_7">
      <!-- 0.75 -->
      <g transform="translate(30.44125 247.693646) scale(0.12 -0.12)">
       <defs>
        <path id="DejaVuSans-37" d="M 525 4666 
L 3525 4666 
L 3525 4397 
L 1831 0 
L 1172 0 
L 2766 4134 
L 525 4134 
L 525 4666 
z
" transform="scale(0.015625)"/>
       </defs>
       <use xlink:href="#DejaVuSans-30"/>
       <use xlink:href="#DejaVuSans-2e" x="63.623047"/>
       <use xlink:href="#DejaVuSans-37" x="95.410156"/>
       <use xlink:href="#DejaVuSans-35" x="159.033203"/>
      </g>
     </g>
    </g>
    <g id="ytick_5">
     <g id="line2d_29">
      <path d="M 66.66 200.70792 
L 851.04 200.70792 
" clip-path="url(#p21406ff620)" style="fill: none; stroke: #b0b0b0; stroke-opacity: 0.3; stroke-width: 0.5; stroke-linecap: square"/>
     </g>
     <g id="line2d_30">
      <g>
       <use xlink:href="#m9c054b7413" x="66.66" y="200.70792" style="stroke: #000000; stroke-width: 2"/>
      </g>
     </g>
     <g id="text_8">
      <!-- 1.00 -->
      <g transform="translate(30.44125 205.266983) scale(0.12 -0.12)">
       <use xlink:href="#DejaVuSans-31"/>
       <use xlink:href="#DejaVuSans-2e" x="63.623047"/>
       <use xlink:href="#DejaVuSans-30" x="95.410156"/>
       <use xlink:href="#DejaVuSans-30" x="159.033203"/>
      </g>
     </g>
    </g>
    <g id="ytick_6">
     <g id="line2d_31">
      <path d="M 66.66 158.281258 
L 851.04 158.281258 
" clip-path="url(#p21406ff620)" style="fill: none; stroke: #b0b0b0; stroke-opacity: 0.3; stroke-width: 0.5; stroke-linecap: square"/>
     </g>
     <g id="line2d_32">
      <g>
       <use xlink:href="#m9c054b7413" x="66.66" y="158.281258" style="stroke: #000000; stroke-width: 2"/>
      </g>
     </g>
     <g id="text_9">
      <!-- 1.25 -->
      <g transform="translate(30.44125 162.84032) scale(0.12 -0.12)">
       <use xlink:href="#DejaVuSans-31"/>
       <use xlink:href="#DejaVuSans-2e" x="63.623047"/>
       <use xlink:href="#DejaVuSans-32" x="95.410156"/>
       <use xlink:href="#DejaVuSans-35" x="159.033203"/>
      </g>
     </g>
    </g>
    <g id="ytick_7">
     <g id="line2d_33">
      <path d="M 66.66 115.854595 
L 851.04 115.854595 
" clip-path="url(#p21406ff620)" style="fill: none; stroke: #b0b0b0; stroke-opacity: 0.3; stroke-width: 0.5; stroke-linecap: square"/>
     </g>
     <g id="line2d_34">
      <g>
       <use xlink:href="#m9c054b7413" x="66.66" y="115.854595" style="stroke: #000000; stroke-width: 2"/>
      </g>
     </g>
     <g id="text_10">
      <!-- 1.50 -->
      <g transform="translate(30.44125 120.413657) scale(0.12 -0.12)">
       <use xlink:href="#DejaVuSans-31"/>
       <use xlink:href="#DejaVuSans-2e" x="63.623047"/>
       <use xlink:href="#DejaVuSans-35" x="95.410156"/>
       <use xlink:href="#DejaVuSans-30" x="159.033203"/>
      </g>
     </g>
    </g>
    <g id="ytick_8">
     <g id="line2d_35">
      <path d="M 66.66 73.427932 
L 851.04 73.427932 
" clip-path="url(#p21406ff620)" style="fill: none; stroke: #b0b0b0; stroke-opacity: 0.3; stroke-width: 0.5; stroke-linecap: square"/>
     </g>
     <g id="line2d_36">
      <g>
       <use xlink:href="#m9c054b7413" x="66.66" y="73.427932" style="stroke: #000000; stroke-width: 2"/>
      </g>
     </g>
     <g id="text_11">
      <!-- 1.75 -->
      <g transform="translate(30.44125 77.986995) scale(0.12 -0.12)">
       <use xlink:href="#DejaVuSans-31"/>
       <use xlink:href="#DejaVuSans-2e" x="63.623047"/>
       <use xlink:href="#DejaVuSans-37" x="95.410156"/>
       <use xlink:href="#DejaVuSans-35" x="159.033203"/>
      </g>
     </g>
    </g>
    <g id="ytick_9">
     <g id="line2d_37">
      <path d="M 66.66 31.001269 
L 851.04 31.001269 
" clip-path="url(#p21406ff620)" style="fill: none; stroke: #b0b0b0; stroke-opacity: 0.3; stroke-width: 0.5; stroke-linecap: square"/>
     </g>
     <g id="line2d_38">
      <g>
       <use xlink:href="#m9c054b7413" x="66.66" y="31.001269" style="stroke: #000000; stroke-width: 2"/>
      </g>
     </g>
     <g id="text_12">
      <!-- 2.00 -->
      <g transform="translate(30.44125 35.560332) scale(0.12 -0.12)">
       <use xlink:href="#DejaVuSans-32"/>
       <use xlink:href="#DejaVuSans-2e" x="63.623047"/>
       <use xlink:href="#DejaVuSans-30" x="95.410156"/>
       <use xlink:href="#DejaVuSans-30" x="159.033203"/>
      </g>
     </g>
    </g>
    <g id="text_13">
     <!-- Süre (saniye) -->
     <g transform="translate(23.420312 257.933281) rotate(-90) scale(0.14 -0.14)">
      <defs>
       <path id="DejaVuSans-Bold-fc" d="M 500 1363 
L 500 3500 
L 1625 3500 
L 1625 3150 
Q 1625 2866 1622 2436 
Q 1619 2006 1619 1863 
Q 1619 1441 1641 1255 
Q 1663 1069 1716 984 
Q 1784 875 1895 815 
Q 2006 756 2150 756 
Q 2500 756 2700 1025 
Q 2900 1294 2900 1772 
L 2900 3500 
L 4019 3500 
L 4019 0 
L 2900 0 
L 2900 506 
Q 2647 200 2364 54 
Q 2081 -91 1741 -91 
Q 1134 -91 817 281 
Q 500 653 500 1363 
z
M 1280 4953 
L 2014 4953 
L 2014 4184 
L 1280 4184 
L 1280 4953 
z
M 2514 4953 
L 3248 4953 
L 3248 4184 
L 2514 4184 
L 2514 4953 
z
" transform="scale(0.015625)"/>
       <path id="DejaVuSans-Bold-72" d="M 3138 2547 
Q 2991 2616 2845 2648 
Q 2700 2681 2553 2681 
Q 2122 2681 1889 2404 
Q 1656 2128 1656 1613 
L 1656 0 
L 538 0 
L 538 3500 
L 1656 3500 
L 1656 2925 
Q 1872 3269 2151 3426 
Q 2431 3584 2822 3584 
Q 2878 3584 2943 3579 
Q 3009 3575 3134 3559 
L 3138 2547 
z
" transform="scale(0.015625)"/>
       <path id="DejaVuSans-Bold-65" d="M 4031 1759 
L 4031 1441 
L 1416 1441 
Q 1456 1047 1700 850 
Q 1944 653 2381 653 
Q 2734 653 3104 758 
Q 3475 863 3866 1075 
L 3866 213 
Q 3469 63 3072 -14 
Q 2675 -91 2278 -91 
Q 1328 -91 801 392 
Q 275 875 275 1747 
Q 275 2603 792 3093 
Q 1309 3584 2216 3584 
Q 3041 3584 3536 3087 
Q 4031 2591 4031 1759 
z
M 2881 2131 
Q 2881 2450 2695 2645 
Q 2509 2841 2209 2841 
Q 1884 2841 1681 2658 
Q 1478 2475 1428 2131 
L 2881 2131 
z
" transform="scale(0.015625)"/>
       <path id="DejaVuSans-Bold-28" d="M 2413 -844 
L 1484 -844 
Q 1006 -72 778 623 
Q 550 1319 550 2003 
Q 550 2688 779 3389 
Q 1009 4091 1484 4856 
L 2413 4856 
Q 2013 4116 1813 3408 
Q 1613 2700 1613 2009 
Q 1613 1319 1811 609 
Q 2009 -100 2413 -844 
z
" transform="scale(0.015625)"/>
       <path id="DejaVuSans-Bold-69" d="M 538 3500 
L 1656 3500 
L 1656 0 
L 538 0 
L 538 3500 
z
M 538 4863 
L 1656 4863 
L 1656 3950 
L 538 3950 
L 538 4863 
z
" transform="scale(0.015625)"/>
       <path id="DejaVuSans-Bold-29" d="M 513 -844 
Q 913 -100 1113 609 
Q 1313 1319 1313 2009 
Q 1313 2700 1113 3408 
Q 913 4116 513 4856 
L 1441 4856 
Q 1916 4091 2145 3389 
Q 2375 2688 2375 2003 
Q 2375 1319 2147 623 
Q 1919 -72 1441 -844 
L 513 -844 
z
" transform="scale(0.015625)"/>
      </defs>
      <use xlink:href="#DejaVuSans-Bold-53"/>
      <use xlink:href="#DejaVuSans-Bold-fc" x="72.021484"/>
      <use xlink:href="#DejaVuSans-Bold-72" x="143.212891"/>
      <use xlink:href="#DejaVuSans-Bold-65" x="192.529297"/>
      <use xlink:href="#DejaVuSans-Bold-20" x="260.351562"/>
      <use xlink:href="#DejaVuSans-Bold-28" x="295.166016"/>
      <use xlink:href="#DejaVuSans-Bold-73" x="340.869141"/>
      <use xlink:href="#DejaVuSans-Bold-61" x="400.390625"/>
      <use xlink:href="#DejaVuSans-Bold-6e" x="467.871094"/>
      <use xlink:href="#DejaVuSans-Bold-69" x="539.0625"/>
      <use xlink:href="#DejaVuSans-Bold-79" x="573.339844"/>
      <use xlink:href="#DejaVuSans-Bold-65" x="638.525391"/>
      <use xlink:href="#DejaVuSans-Bold-29" x="706.347656"/>
     </g>
    </g>
   </g>
   <g id="line2d_39">
    <path d="M 102.313636 364.644545 
L 133.262856 363.965719 
L 159.430049 363.626306 
L 174.872576 362.777772 
L 195.684411 362.098946 
L 219.975886 361.080706 
L 241.222423 359.213933 
L 264.512415 358.535106 
L 284.989106 355.8198 
L 306.688916 353.78332 
L 331.883322 351.74684 
L 356.3698 351.407427 
L 377.765306 345.297987 
L 400.711326 339.697668 
L 426.040241 338.849134 
L 448.075859 333.588228 
L 471.479359 328.666735 
L 494.307085 323.575536 
L 517.395182 313.562843 
L 538.58399 304.228978 
L 562.007173 299.307485 
L 585.895798 282.167113 
L 607.988398 276.7365 
L 631.086473 256.201995 
L 654.505191 246.86813 
L 677.390855 224.466852 
L 700.248961 208.684133 
L 723.333195 179.664296 
L 746.473548 157.772138 
L 769.299589 136.049686 
L 792.161199 85.986224 
L 815.386364 45.935455 
" clip-path="url(#p21406ff620)" style="fill: none; stroke: #2196f3; stroke-width: 2; stroke-linecap: square"/>
    <defs>
     <path id="mb2ef82b4d3" d="M 0 2.5 
C 0.663008 2.5 1.29895 2.236584 1.767767 1.767767 
C 2.236584 1.29895 2.5 0.663008 2.5 0 
C 2.5 -0.663008 2.236584 -1.29895 1.767767 -1.767767 
C 1.29895 -2.236584 0.663008 -2.5 0 -2.5 
C -0.663008 -2.5 -1.29895 -2.236584 -1.767767 -1.767767 
C -2.236584 -1.29895 -2.5 -0.663008 -2.5 0 
C -2.5 0.663008 -2.236584 1.29895 -1.767767 1.767767 
C -1.29895 2.236584 -0.663008 2.5 0 2.5 
z
" style="stroke: #2196f3"/>
    </defs>
    <g clip-path="url(#p21406ff620)">
     <use xlink:href="#mb2ef82b4d3" x="102.313636" y="364.644545" style="fill: #2196f3; stroke: #2196f3"/>
     <use xlink:href="#mb2ef82b4d3" x="133.262856" y="363.965719" style="fill: #2196f3; stroke: #2196f3"/>
     <use xlink:href="#mb2ef82b4d3" x="159.430049" y="363.626306" style="fill: #2196f3; stroke: #2196f3"/>
     <use xlink:href="#mb2ef82b4d3" x="174.872576" y="362.777772" style="fill: #2196f3; stroke: #2196f3"/>
     <use xlink:href="#mb2ef82b4d3" x="195.684411" y="362.098946" style="fill: #2196f3; stroke: #2196f3"/>
     <use xlink:href="#mb2ef82b4d3" x="219.975886" y="361.080706" style="fill: #2196f3; stroke: #2196f3"/>
     <use xlink:href="#mb2ef82b4d3" x="241.222423" y="359.213933" style="fill: #2196f3; stroke: #2196f3"/>
     <use xlink:href="#mb2ef82b4d3" x="264.512415" y="358.535106" style="fill: #2196f3; stroke: #2196f3"/>
     <use xlink:href="#mb2ef82b4d3" x="284.989106" y="355.8198" style="fill: #2196f3; stroke: #2196f3"/>
     <use xlink:href="#mb2ef82b4d3" x="306.688916" y="353.78332" style="fill: #2196f3; stroke: #2196f3"/>
     <use xlink:href="#mb2ef82b4d3" x="331.883322" y="351.74684" style="fill: #2196f3; stroke: #2196f3"/>
     <use xlink:href="#mb2ef82b4d3" x="356.3698" y="351.407427" style="fill: #2196f3; stroke: #2196f3"/>
     <use xlink:href="#mb2ef82b4d3" x="377.765306" y="345.297987" style="fill: #2196f3; stroke: #2196f3"/>
     <use xlink:href="#mb2ef82b4d3" x="400.711326" y="339.697668" style="fill: #2196f3; stroke: #2196f3"/>
     <use xlink:href="#mb2ef82b4d3" x="426.040241" y="338.849134" style="fill: #2196f3; stroke: #2196f3"/>
     <use xlink:href="#mb2ef82b4d3" x="448.075859" y="333.588228" style="fill: #2196f3; stroke: #2196f3"/>
     <use xlink:href="#mb2ef82b4d3" x="471.479359" y="328.666735" style="fill: #2196f3; stroke: #2196f3"/>
     <use xlink:href="#mb2ef82b4d3" x="494.307085" y="323.575536" style="fill: #2196f3; stroke: #2196f3"/>
     <use xlink:href="#mb2ef82b4d3" x="517.395182" y="313.562843" style="fill: #2196f3; stroke: #2196f3"/>
     <use xlink:href="#mb2ef82b4d3" x="538.58399" y="304.228978" style="fill: #2196f3; stroke: #2196f3"/>
     <use xlink:href="#mb2ef82b4d3" x="562.007173" y="299.307485" style="fill: #2196f3; stroke: #2196f3"/>
     <use xlink:href="#mb2ef82b4d3" x="585.895798" y="282.167113" style="fill: #2196f3; stroke: #2196f3"/>
     <use xlink:href="#mb2ef82b4d3" x="607.988398" y="276.7365" style="fill: #2196f3; stroke: #2196f3"/>
     <use xlink:href="#mb2ef82b4d3" x="631.086473" y="256.201995" style="fill: #2196f3; stroke: #2196f3"/>
     <use xlink:href="#mb2ef82b4d3" x="654.505191" y="246.86813" style="fill: #2196f3; stroke: #2196f3"/>
     <use xlink:href="#mb2ef82b4d3" x="677.390855" y="224.466852" style="fill: #2196f3; stroke: #2196f3"/>
     <use xlink:href="#mb2ef82b4d3" x="700.248961" y="208.684133" style="fill: #2196f3; stroke: #2196f3"/>
     <use xlink:href="#mb2ef82b4d3" x="723.333195" y="179.664296" style="fill: #2196f3; stroke: #2196f3"/>
     <use xlink:href="#mb2ef82b4d3" x="746.473548" y="157.772138" style="fill: #2196f3; stroke: #2196f3"/>
     <use xlink:href="#mb2ef82b4d3" x="769.299589" y="136.049686" style="fill: #2196f3; stroke: #2196f3"/>
     <use xlink:href="#mb2ef82b4d3" x="792.161199" y="85.986224" style="fill: #2196f3; stroke: #2196f3"/>
     <use xlink:href="#mb2ef82b4d3" x="815.386364" y="45.935455" style="fill: #2196f3; stroke: #2196f3"/>
    </g>
   </g>
   <g id="patch_3">
    <path d="M 66.66 380.58 
L 66.66 30 
" style="fill: none; stroke: #000000; stroke-width: 2.5; stroke-linejoin: miter; stroke-linecap: square"/>
   </g>
   <g id="patch_4">
    <path d="M 66.66 380.58 
L 851.04 380.58 
" style="fill: none; stroke: #000000; stroke-width: 2.5; stroke-linejoin: miter; stroke-linecap: square"/>
   </g>
   <g id="text_14">
    <!-- Kullanıcı Sayısına Göre Veri Ekleme Süresi -->
    <g transform="translate(280.447266 24) scale(0.15 -0.15)">
     <defs>
      <path id="DejaVuSans-Bold-47" d="M 4781 347 
Q 4331 128 3847 18 
Q 3363 -91 2847 -91 
Q 1681 -91 1000 561 
Q 319 1213 319 2328 
Q 319 3456 1012 4103 
Q 1706 4750 2913 4750 
Q 3378 4750 3804 4662 
Q 4231 4575 4609 4403 
L 4609 3438 
Q 4219 3659 3833 3768 
Q 3447 3878 3059 3878 
Q 2341 3878 1952 3476 
Q 1563 3075 1563 2328 
Q 1563 1588 1938 1184 
Q 2313 781 3003 781 
Q 3191 781 3352 804 
Q 3513 828 3641 878 
L 3641 1784 
L 2906 1784 
L 2906 2591 
L 4781 2591 
L 4781 347 
z
" transform="scale(0.015625)"/>
      <path id="DejaVuSans-Bold-f6" d="M 2203 2784 
Q 1831 2784 1636 2517 
Q 1441 2250 1441 1747 
Q 1441 1244 1636 976 
Q 1831 709 2203 709 
Q 2569 709 2762 976 
Q 2956 1244 2956 1747 
Q 2956 2250 2762 2517 
Q 2569 2784 2203 2784 
z
M 2203 3584 
Q 3106 3584 3614 3096 
Q 4122 2609 4122 1747 
Q 4122 884 3614 396 
Q 3106 -91 2203 -91 
Q 1297 -91 786 396 
Q 275 884 275 1747 
Q 275 2609 786 3096 
Q 1297 3584 2203 3584 
z
M 1208 4953 
L 1942 4953 
L 1942 4184 
L 1208 4184 
L 1208 4953 
z
M 2442 4953 
L 3176 4953 
L 3176 4184 
L 2442 4184 
L 2442 4953 
z
" transform="scale(0.015625)"/>
      <path id="DejaVuSans-Bold-56" d="M 31 4666 
L 1241 4666 
L 2478 1222 
L 3713 4666 
L 4922 4666 
L 3194 0 
L 1759 0 
L 31 4666 
z
" transform="scale(0.015625)"/>
      <path id="DejaVuSans-Bold-45" d="M 588 4666 
L 3834 4666 
L 3834 3756 
L 1791 3756 
L 1791 2888 
L 3713 2888 
L 3713 1978 
L 1791 1978 
L 1791 909 
L 3903 909 
L 3903 0 
L 588 0 
L 588 4666 
z
" transform="scale(0.015625)"/>
      <path id="DejaVuSans-Bold-6b" d="M 538 4863 
L 1656 4863 
L 1656 2216 
L 2944 3500 
L 4244 3500 
L 2534 1894 
L 4378 0 
L 3022 0 
L 1656 1459 
L 1656 0 
L 538 0 
L 538 4863 
z
" transform="scale(0.015625)"/>
      <path id="DejaVuSans-Bold-6d" d="M 3781 2919 
Q 3994 3244 4286 3414 
Q 4578 3584 4928 3584 
Q 5531 3584 5847 3212 
Q 6163 2841 6163 2131 
L 6163 0 
L 5038 0 
L 5038 1825 
Q 5041 1866 5042 1909 
Q 5044 1953 5044 2034 
Q 5044 2406 4934 2573 
Q 4825 2741 4581 2741 
Q 4263 2741 4089 2478 
Q 3916 2216 3909 1719 
L 3909 0 
L 2784 0 
L 2784 1825 
Q 2784 2406 2684 2573 
Q 2584 2741 2328 2741 
Q 2006 2741 1831 2477 
Q 1656 2213 1656 1722 
L 1656 0 
L 531 0 
L 531 3500 
L 1656 3500 
L 1656 2988 
Q 1863 3284 2130 3434 
Q 2397 3584 2719 3584 
Q 3081 3584 3359 3409 
Q 3638 3234 3781 2919 
z
" transform="scale(0.015625)"/>
     </defs>
     <use xlink:href="#DejaVuSans-Bold-4b"/>
     <use xlink:href="#DejaVuSans-Bold-75" x="75.740234"/>
     <use xlink:href="#DejaVuSans-Bold-6c" x="146.931641"/>
     <use xlink:href="#DejaVuSans-Bold-6c" x="181.208984"/>
     <use xlink:href="#DejaVuSans-Bold-61" x="215.486328"/>
     <use xlink:href="#DejaVuSans-Bold-6e" x="282.966797"/>
     <use xlink:href="#DejaVuSans-Bold-131" x="354.158203"/>
     <use xlink:href="#DejaVuSans-Bold-63" x="388.435547"/>
     <use xlink:href="#DejaVuSans-Bold-131" x="447.712891"/>
     <use xlink:href="#DejaVuSans-Bold-20" x="481.990234"/>
     <use xlink:href="#DejaVuSans-Bold-53" x="516.804688"/>
     <use xlink:href="#DejaVuSans-Bold-61" x="588.826172"/>
     <use xlink:href="#DejaVuSans-Bold-79" x="653.181641"/>
     <use xlink:href="#DejaVuSans-Bold-131" x="718.367188"/>
     <use xlink:href="#DejaVuSans-Bold-73" x="752.644531"/>
     <use xlink:href="#DejaVuSans-Bold-131" x="812.166016"/>
     <use xlink:href="#DejaVuSans-Bold-6e" x="846.443359"/>
     <use xlink:href="#DejaVuSans-Bold-61" x="917.634766"/>
     <use xlink:href="#DejaVuSans-Bold-20" x="985.115234"/>
     <use xlink:href="#DejaVuSans-Bold-47" x="1019.929688"/>
     <use xlink:href="#DejaVuSans-Bold-f6" x="1102.009766"/>
     <use xlink:href="#DejaVuSans-Bold-72" x="1170.710938"/>
     <use xlink:href="#DejaVuSans-Bold-65" x="1220.027344"/>
     <use xlink:href="#DejaVuSans-Bold-20" x="1287.849609"/>
     <use xlink:href="#DejaVuSans-Bold-56" x="1322.664062"/>
     <use xlink:href="#DejaVuSans-Bold-65" x="1394.556641"/>
     <use xlink:href="#DejaVuSans-Bold-72" x="1462.378906"/>
     <use xlink:href="#DejaVuSans-Bold-69" x="1511.695312"/>
     <use xlink:href="#DejaVuSans-Bold-20" x="1545.972656"/>
     <use xlink:href="#DejaVuSans-Bold-45" x="1580.787109"/>
     <use xlink:href="#DejaVuSans-Bold-6b" x="1649.097656"/>
     <use xlink:href="#DejaVuSans-Bold-6c" x="1715.601562"/>
     <use xlink:href="#DejaVuSans-Bold-65" x="1749.878906"/>
     <use xlink:href="#DejaVuSans-Bold-6d" x="1817.701172"/>
     <use xlink:href="#DejaVuSans-Bold-65" x="1921.900391"/>
     <use xlink:href="#DejaVuSans-Bold-20" x="1989.722656"/>
     <use xlink:href="#DejaVuSans-Bold-53" x="2024.537109"/>
     <use xlink:href="#DejaVuSans-Bold-fc" x="2096.558594"/>
     <use xlink:href="#DejaVuSans-Bold-72" x="2167.75"/>
     <use xlink:href="#DejaVuSans-Bold-65" x="2217.066406"/>
     <use xlink:href="#DejaVuSans-Bold-73" x="2284.888672"/>
     <use xlink:href="#DejaVuSans-Bold-69" x="2344.410156"/>
    </g>
   </g>
  </g>
 </g>
 <defs>
  <clipPath id="p21406ff620">
   <rect x="66.66" y="30" width="784.38" height="350.58"/>
  </clipPath>
 </defs>
</svg>
